<!DOCTYPE svg PUBLIC "-//W3C//DTD SVG 1.1//EN" "http://www.w3.org/Graphics/SVG/1.1/DTD/svg11.dtd">
<!-- Uploaded to: SVG Repo, www.svgrepo.com, Transformed by: SVG Repo Mixer Tools -->
<svg version="1.1" id="Layer_1" xmlns="http://www.w3.org/2000/svg" xmlns:xlink="http://www.w3.org/1999/xlink" viewBox="0 0 512 512" xml:space="preserve" width="800px" height="800px" fill="#000000">
<g id="SVGRepo_bgCarrier" stroke-width="0"/>
<g id="SVGRepo_tracerCarrier" stroke-linecap="round" stroke-linejoin="round"/>
<g id="SVGRepo_iconCarrier"> <rect x="34.762" y="223.832" style="fill:#269AF2;" width="115.86" height="230.852"/> <rect x="198.069" y="117.702" style="fill:#007a0e;" width="115.86" height="336.982"/> <rect x="361.388" y="11.584" style="fill:#b31414;" width="115.86" height="443.1"/> <g> <path style="fill:#11113F;" d="M34.76,466.272h115.857c6.397,0,11.584-5.186,11.584-11.584V223.831 c0-6.398-5.187-11.584-11.584-11.584H34.76c-6.397,0-11.584,5.186-11.584,11.584v230.858 C23.176,461.086,28.362,466.272,34.76,466.272z M46.344,235.415h92.689v207.69H46.344V235.415z"/> <path style="fill:#11113F;" d="M198.072,466.272h115.856c6.397,0,11.584-5.186,11.584-11.584V117.707 c0-6.398-5.187-11.584-11.584-11.584H198.072c-6.397,0-11.584,5.186-11.584,11.584v336.982 C186.488,461.086,191.675,466.272,198.072,466.272z M209.655,129.29h92.688v313.814h-92.688V129.29z"/> <path style="fill:#11113F;" d="M477.239,0H361.383C354.987,0,349.8,5.186,349.8,11.584v443.105c0,6.398,5.187,11.584,11.584,11.584 H477.24c6.397,0,11.584-5.186,11.584-11.584V11.584C488.823,5.186,483.637,0,477.239,0z M465.655,443.105h-92.689V23.167h92.689 V443.105z"/> <path style="fill:#11113F;" d="M477.239,488.833H34.76c-6.397,0-11.584,5.186-11.584,11.584c0,6.398,5.187,11.584,11.584,11.584 h442.479c6.397,0,11.584-5.186,11.584-11.584C488.823,494.019,483.637,488.833,477.239,488.833z"/> </g> </g>
</svg>