<?xml version="1.0" encoding="UTF-8"?>
<svg version="1.1" viewBox="0 0 2048 1304" width="1280" height="1280" xmlns="http://www.w3.org/2000/svg">
<path transform="translate(1040,39)" d="m0 0 20 2 14 4 12 5 15 9 14 12 11 12 10 15 7 15 6 22 2 18-2 21-5 18-7 16-12 20-10 9 4 4 17 11 12 9 10 9 10 11 8 14 8 18 4 17 2 37 8 10 5 5 5 4 12 16 1 3 6 1 7-10 8-10 7-7 15-11 15-9 7-4-2-4-9-10-11-18-6-14-5-16-1-6v-32l4-18 6-15 8-14 8-11 9-10 10-9 13-8 8-4 19-7 30-3h16l8-7 12-12 13-8 12-6 17-5 5-1h21l18 3 13 5 11 6 10 8 10 9 11 14 8 16 5 16 2 10v15l-6 24-8 16-12 17-5 6-14 9-21 10-18 7-8 16-11 18-6 7-5 5 10 7 9 5 10 8 10 9 9 9 9 13 8 16 5 13 3 16 2 21 3 9 4 6 7 10 12 22 5 13 7 31 1 16-6 36-5 18-7 17-9 16-13 18-11 13-5 5-6 8-13 25-10 15-7 9-14 13-1 6 7 21 32 7 27 6 16 5 16 6 18 10 16 12 8 7 9 11 11 15 10 18 7 18 4 16 2 17 1 55v236l-3 1-119 1h-1071l-5-1-1-6-1-28v-203l1-59 2-13 6-22 9-20 8-13 8-10 10-12 8-7 12-10 14-9 15-7 16-5 28-7 20-4 19-6 5-8 1-16-3-6-8-8-5-4-10-13-10-17-8-16-8-11-10-11-11-14-11-17-9-19-6-18-4-19-2-24v-82l2-23 3-10 10-14 11-10 16-8 5-5 11-22 8-10 11-12 10-9 19-12 7-4-6-7-9-12-9-16-5-11-5-20-1-6v-21l6-29 6-15 9-14 7-9 6-7 8-7 14-10 21-10 11-3 16-2h22l16 2 18 6 17 9 10 8 10 9 11 13 9 15 7 15 4 15 2 10v22l-3 18-5 15-10 19-10 14-7 7 1 3 18 10 11 8 10 9 6 5 8 10 6 8 4-2 7-7 9-11 11-12 4-8 1-25 3-18 5-18 8-16 10-13 10-11 5-5 12-9 20-11-3-7-13-17-8-16-6-16-2-10-1-12v-18l3-20 6-17 8-15 10-13 15-15 11-8 15-8 18-6 13-2zm228 664v101l1 1h12l22-4 7-3 5-8 3-10-1-7-8-10-12-13-11-15-11-23-4-8zm-468 2-3 3-6 16-8 14-10 14-11 12-10 10 1 4 3 7 4 13 10 3 21 4h11l2-4 1-6v-88l-1-2z" fill="#030303"/>
<path transform="translate(1028,348)" d="m0 0h21l21 2 24 5 20 8 22 12 12 8 14 11 8 8 8 7 9 10 10 13 12 21 10 21 5 15 5 27 1 10 1 23v233l-10-3-24-6-29-5-26-4-10-4-12-12-4-6-1-5 4-5 19-14 14-14 7-8 10-15 8-16 6-15 4-15 2-20 1-17v-89l-5-2-46-10-24-8-16-8-17-12-15-14-9-11-4-7v-23l2-23-8-2-9-1h-22l1 32v18l-6 9-9 10-10 9-14 10-14 8-19 9-21 6-29 6-13 3-1 5-1 50v17l1 32 3 20 4 15 8 19 9 17 12 16 13 14 11 9 16 13 1 2-8 11-9 10-8 4-34 7-35 7-20 6-4 1-1-1 1-135v-108l1-17 5-26 6-20 6-15 11-21 8-12 11-13 14-15 10-9 16-12 17-10 18-8 18-6 22-5z" fill="#626971"/>
<path transform="translate(887,808)" d="m0 0h9l4 5 14 27 10 18 15 28 12 23 10 19 16 30 12 21 6 12 9 16 6 11 6 13 1 3v167l-1 1-23 1h-92l-2-1v-33l-2-14-6-17-10-25-6-17-8-22-3-12-3-23v-36l6-29 5-17 5-16 2-6-8-1-15-4-14-4-11 39-6 31-1 9-1 41-1 1-22 1h-56v-79l2-16 6-25 8-21 9-17 8-12 8-10 9-10 3-3h2l2-4 17-13 11-7 11-6 14-7 21-7z" fill="#B6D75A"/>
<path transform="translate(1177,807)" d="m0 0 9 1 28 8 24 11 18 11 13 11 10 9 9 10 10 13 9 16 8 18 8 27 3 22 1 24v59h-79l-1-33-2-25-6-31-4-17-3-8-2-8-33 11-4 1 6 20 5 16 5 25 1 15v21l-1 17-3 17-6 21-15 39-4 8-6 16-2 7-1 42-1 1-13 1h-102l-1-1-1-73v-88l2-9 10-21 12-22 12-23 10-18 17-32 12-22 13-25 24-44 10-17z" fill="#B6D75A"/>
<path transform="translate(543,852)" d="m0 0h5l6 7 14 26 11 23 6 10 7 14 8 14 4 8 9 16 7 14 4 7 11 21 8 13 6 11 13 24 5 10 1 4v127l-1 1-9 1h-108v-210l1-3h-38v211l-1 1-8 1-31 1v-252l1-16 4-13 6-16 9-14 8-10 8-9 16-12 15-9z" fill="#FA8876"/>
<path transform="translate(1523,853)" d="m0 0 9 1 11 6 10 7 12 11 8 8 10 15 9 17 4 11 2 9 1 9v255l-1 1h-38v-215l-26 1h-13v213h-117v-130l6-11 8-15 7-13 6-12h2l2-6 4-8 16-30 14-26 8-15 9-16 8-17 6-10 3-7h2l3-9 6-10 5-9 2-4z" fill="#FDFDFC"/>
<path transform="translate(1034,478)" d="m0 0 5 2 12 12 17 13 9 6 11 6 10 5 16 6 10 4 24 5 4 2 1 6v62l-4 27-4 13-4 9-8 13-7 9-14 14-15 11-14 7-18 5-9 2h-36l-18-4-11-4-14-7-14-10-10-9-7-8-10-14-5-9-4-8-5-16-2-11-1-50v-28l7-2 22-5 16-6 10-4 16-8 11-7 12-9 12-11 5-5z" fill="#F5D6BD"/>
<path transform="translate(567,465)" d="m0 0h158l23 2 10 3 17 8 13 10 13 12 6 8v6l-2 4-1 12v99l-2-2-5-16-11-23-11-13-13-11-13-8-9-4 1-8 3-12-1-7-1-1h-33l-2 1-3 16-6 12-9 8-15 8-13 3-37 4-16 4-13 7-10 9-6 8-5 12-5 26-2 1-8-19-6-20-3-18v-72l1-34 3-9 5-5z" fill="#A67A51"/>
<path transform="translate(1358,465)" d="m0 0h46l23 1 17 4 15 6 13 7 12 11 8 7 10 13 9 16 6 15 4 15 1 7v16l-3 19-9 29-5 11h-2l-5-22-8-18-8-10-9-8-12-5-18-3-34-5-12-3-12-6-9-8-6-10-4-13-1-5-3-1h-36l2 10 2 7v9l-5 4-15 9-13 11-5 4-9 14-7 15-5 17-1 5h-1l-1-35-1-77 4-8 11-13 13-11 15-10 14-6 16-4z" fill="#A67A51"/>
<path transform="translate(718,585)" d="m0 0 9 2 14 8 11 10 8 13 4 13v58l-2 13-8 16-8 12-9 9-12 8-13 6-14 3h-22l-15-3-18-10-13-11-11-14-6-12-4-16v-62l5-9h2v-2l12-3 35-5 23-5 12-4 11-7z" fill="#F5D6BD"/>
<path transform="translate(1352,584)" d="m0 0 4 2 7 8 11 5 8 4 16 4 54 8 6 3 4 8v67l-3 12-7 13-9 12-11 11-11 7-13 6-11 2h-25l-10-2-15-7-13-9-9-9-9-14-5-11-3-13-1-9v-45l4-15 6-12 8-10 10-8 13-7z" fill="#F5D6BD"/>
<path transform="translate(993,750)" d="m0 0 7 1 22 3h28l16-2h13l9 16 8 10 5 5 11 8 10 5 12 3 2 1-1 5-5 9-10 19-11 19-11 21h-123l-4-5-12-23-6-11-11-21-3-5v-2h-2l-2-6 12-3 19-10 10-9 7-9 7-14z" fill="#F5D6BD"/>
<path transform="translate(628,269)" d="m0 0h147l9 1 2 2-1 11-5 14-6 12-9 13-12 12-9 6-20 7-5 1h-27l-15-4-15-8-12-11-8-9-9-16-6-20-1-10z" fill="#F5D6BD"/>
<path transform="translate(957,153)" d="m0 0h147l10 1v11l-2 10-4 9-5 10-8 11-6 7-12 9-11 6-14 4-7 1h-19l-15-3-14-6-13-10-9-9-7-10-5-11-4-13-2-11z" fill="#F2D4BA"/>
<path transform="translate(1287,270)" d="m0 0h156v12l-2 12-7 15-9 13-9 9-14 9-15 6-9 2h-25l-17-5-13-7-10-8-10-11-10-17-5-18-1-5z" fill="#F4D5BC"/>
<path transform="translate(793,1086)" d="m0 0h37l2 1 3 12 3 8 8 23 6 14 5 13 4 12 1 33-2 1h-77l-1-1v-104l1-11z" fill="#F4D5BC"/>
<path transform="translate(1241,1086)" d="m0 0h34l13 1v115h-79l1-32 6-18 5-11 5-13 6-17 5-12z" fill="#F5D7BE"/>
<path transform="translate(994,612)" d="m0 0h2l6 12 11 9 10 5 6 1h11l10-2 9-4 9-7 6-12h7l10 4 8 5 9 4 1 5-3 7-4 6-9 10-14 11-12 6-10 3-13 3h-13l-22-4-17-8-12-9-11-12-7-14 1-5 9-3 16-8z" fill="#030303"/>
<path transform="translate(1450,155)" d="m0 0h27l12 4 12 9 10 11 4 6 5 12 1 4v20l-2 9-8 15-8 9-16 12-5 1-2-8-1-11-4-14-4-10-10-19-8-11-12-12-16-12-2-1v-2l16-8z" fill="#FCFCFA"/>
<path transform="translate(1485,1077)" d="m0 0 5 1 2 6 1 11 2 6 1 13v27l2 10v19l-4 6-5 4-13 2h-31l-11-2-5-4-2-6-1-21v-17l4-15 2-5 1-5 5-1 1 4h2l1 4h3l1 3-1 2h2l1-3 1 2-5 8 2 2 2 1v2h7l5-2 6-12 2-7 4-11v-8l4-4h2l1-3 3-2 1-3h2z" fill="#EBEDED"/>
<path transform="translate(710,1064)" d="m0 0 2 3 4 7v2l5 2 10 5 12 4 2 2v113l-1 1h-38l-1-1 1-132z" fill="#F88875"/>
<path transform="translate(1362,1066)" d="m0 0h3l1 2v134h-39v-115l1-1 10-2 11-6 10-9z" fill="#FCFCFB"/>
<path transform="translate(1177,807)" d="m0 0 9 1v2l2 1-7-1-1 4h-2v2l-3 3-11 23-6 16-3 5-2 7-5 10-11 24-7 9-4 5-4 7h-2l-2 6-7 13-3 7h-2l-2 6-8 14-1 3h-2l-2 6-10 18-6 11-5 13-6 12-4 9-2 43-1 20v21l1 62 2 6 2 1v2h100l3-1 1-2 2-36 6-18 11-27 10-30 5-20 2-15v-22l-2-31-6-20-2-24-2-10v-5l4-2 1 9 8 25 5 22 2 22v21l-1 17-3 17-6 21-15 39-4 8-6 16-2 7-1 42-1 1-13 1h-102l-1-1-1-73v-88l2-9 10-21 12-22 12-23 10-18 17-32 12-22 13-25 24-44 10-17z" fill="#BCDB70"/>
<path transform="translate(693,193)" d="m0 0h25l16 4 14 7 9 7 9 8 7 11v2l-16 1h-56l-61-1-1-2 4-6 11-13 12-9 13-6z" fill="#626971"/>
<path transform="translate(1027,76)" d="m0 0h17l16 3 16 8 11 8 11 10 6 8v2l-12 1h-48l-76-1 4-6 11-12 16-12 10-5 11-3z" fill="#A57A52"/>
<path transform="translate(1352,193)" d="m0 0h25l14 3 15 8 11 9 10 10 5 7-1 2h-133l2-5 7-7 4-5 15-11h2v-2l8-4 11-4z" fill="#FAFAF7"/>
<path transform="translate(995,911)" d="m0 0h81l2 1-2 4-6 8-4 8-12 22-10 19-4 6-3 8h-2l-9-16-12-23-12-22-7-13z" fill="#F7EDCA"/>
<path transform="translate(703,386)" d="m0 0h41l1 1v7l-3 10-7 10-9 8-11 4-5 1h-10l-11-4-2-1v-2l-4-1-2-1v-2l-4-2-3-4v-2h-2l-5-10-3-8v-2l3-1z" fill="#F2D4BB"/>
<path transform="translate(999,270)" d="m0 0h76l2 1-2 7-5 11-6 9-8 7-6 3-11 2h-10l-12-4-10-9-6-7-5-12-1-7z" fill="#F4D5BC"/>
<path transform="translate(1327,387)" d="m0 0h79v7l-3 8-7 11-7 6-9 4-11 4h-12l-7-3-9-6-9-11-5-12z" fill="#F5D5BC"/>
<path transform="translate(1364,949)" d="m0 0 27 1 5 5 7 14 6 10-1 5-4 8-10 18-9 16-3-3-10-21-6-12-1-3z" fill="#E9DC9F"/>
<path transform="translate(679,950)" d="m0 0h29v8l-1 2-1 27-4 12-9 16-5 9-5-5-6-8-3-7-8-15-2-6v-6l6-7 4-9 3-8z" fill="#FBFAF8"/>
<path transform="translate(1287,397)" d="m0 0 2 1 7 18 9 19v3l-16 8-16 10-16 12h-2l-4-13-1-10 11-23 7-9 12-11z" fill="#B4D45B"/>
<path transform="translate(1414,791)" d="m0 0h6l1 14-9 8-8 6-9 5-7 5h-6l-10-7-12-8-9-7v-2h-2l1-10 2-3h52z" fill="#F1D3BA"/>
<path transform="translate(712,791)" d="m0 0h7l3 9v6h-2l-1 3-30 20-8-1-8-7-9-6-12-9-2-3 1-8 3-3h14l10 1h17z" fill="#F3D4BB"/>
<path transform="translate(887,808)" d="m0 0h9v2l-9 2-6 3-17 4-13 7h-2l-2 6-9 8-13 8-7 4-11 8-4 5-6 5-7 8-7 9-4 6-5 9h-2l-2 5-7 12-4 10-4 6-3 10-4 22-1 61h-1l-1-70 6-27 7-19 8-16 8-14 10-13 11-12 4-2 2-4 17-13 11-7 11-6 14-7 21-7z" fill="#C1E471"/>
<path transform="translate(783,396)" d="m0 0 4 2 9 7 9 9 9 14 5 11 2 7v14l-9-2-19-12-16-8-8-5 1-6 5-8 6-17z" fill="#B4D35B"/>
<path transform="translate(955,280)" d="m0 0h2l6 14 10 22-2 4-27 10-19 9-5 1-1-1 1-9 5-13 6-11 10-13 12-11z" fill="#F38775"/>
<path transform="translate(1113,280)" d="m0 0 5 2 8 7 8 8 10 15 6 13 2 7v7l-6-1-30-13-14-5-4-2 1-5 6-10 7-22z" fill="#F48775"/>
<path transform="translate(680,876)" d="m0 0h10l10 4v2l6 2 16 7-1 11-2 9-2 1h-34l-5-8-4-11-2-4v-7z" fill="#EAECEA"/>
<path transform="translate(1384,875)" d="m0 0 6 1 8 5 1 1v8l-8 19-4 3-30 1-5-6-4-10 2-5 19-10z" fill="#E2D799"/>
<path transform="translate(618,835)" d="m0 0 9 1 19 11 2 4-8 5-32 16-5-1-5-8-9-17v-5l5-2 14-2z" fill="#E4D79B"/>
<path transform="translate(1445,836)" d="m0 0h12l23 4 3 1-1 6-8 16-6 10-5-1-29-15-8-5v-4l12-8 4-3z" fill="#F28774"/>
<path transform="translate(1192,935)" d="m0 0 2 1 1 8 8 25 5 22 2 22v21l-1 17-2 13-2-2-7 26-11 30-6 14h-2l1-5 10-28 5-15 5-20 2-15v-22l-2-31-6-20-2-24-2-10v-5z" fill="#BFE170"/>
<path transform="translate(1015,1039)" d="m0 0h1v163l-23 1h-92l-2-1v-45l2 1 1 5 2 27 1 5 5 2 66 1h21l11-2 1-1 2-14 2 4 1-143z" fill="#B9D674"/>
<path transform="translate(1444,397)" d="m0 0 5 2 13 12 8 11 8 16v5l-10-3-35-12v-4l7-18z" fill="#B3D15B"/>
<path transform="translate(1205,1061)" d="m0 0h1v7l-6 21-15 39-4 8-6 16-2 7-1 42-1 1-13 1h-102l-1-4 1-10h2l2 6 2 1v2h100l3-1 1-2 2-36 6-18 4-8 3-1 3-9 13-35 5-19z" fill="#B4CE72"/>
<path transform="translate(1279,1088)" d="m0 0h9v114h-79l1-32 3-8 4-4-2 9-1 5v11l1 14 22 2h28l15-1 3-1 2-10v-54l-1-14-1-27-4-2z" fill="#F9EBCA"/>
<path transform="translate(716,791)" d="m0 0 4 1 2 8v6h-2l-1 3-30 20-8-1-8-7-9-6-12-9-2-3 1-8 3-3h9v2l-3 2 1 4h2l7 8 5 6 8 3 9 1 10-3 6-4 5-4 1-2 1-11-1-2z" fill="#F9EECC"/>
<path transform="translate(626,397)" d="m0 0 4 1 5 17 3 8v4h-34l-5-1 2-5 13-13 8-7 4-2z" fill="#F2D4BA"/>
<path transform="translate(1288,271)" d="m0 0 2 1 7 25 5 10 8 11 9 9 11 8 14 6 15 4h13l16-4 20-8 12-11 6-7 5-8 3-5 2-1-1 6-7 11-9 10-10 8-14 7-12 4-5 1h-25l-17-5-13-7-10-8-10-11-10-17-5-18z" fill="#F0E2C0"/>
<path transform="translate(840,924)" d="m0 0h2l-4 16-7 25-6 31-1 9-1 41-5 1-12-1v-1l9-1 1-1 1-12 1-29 9-42 4-10 5-21z" fill="#B5D46C"/>
<path transform="translate(1030,922)" d="m0 0 11 1 8 7 1 2v6l-7 7-4 2-10-1-5-6-1-3v-8l5-6z" fill="#F6D7BE"/>
<path transform="translate(965,788)" d="m0 0 3 1-11 7-13 7 1 7 17 32 8 14 6 10 5 3 10 1 95 1v1h-112l-5-8-10-19-6-11-11-21-3-5v-2h-2l-2-6 12-3z" fill="#F9EECC"/>
<path transform="translate(630,900)" d="m0 0 4 1 4 5 6 15 2 9v5h-2l-2 5-4-2-4-7-3-8-4-7-3-7v-5z" fill="#F2E5C9"/>
<path transform="translate(1327,387)" d="m0 0h4v2l4 1 2 14 6 8 8 7 7 3h10l16-5 5-3h2l2-4 5-6h2l-1 5-7 8-9 5-14 5h-12l-7-3-9-6-9-11-5-12z" fill="#F6EBC7"/>
<path transform="translate(754,834)" d="m0 0h6l-1 5-5 8-9 12-4 1-7-4-5-3-4-3v-2l5-2 16-9z" fill="#ECD0B5"/>
<path transform="translate(676,880)" d="m0 0 1 2 2 1-2 4 1 7 4 8 2 1v2l3 1 26-1 1-12 3-2h5l-1 11-2 9-2 1h-34l-5-8-4-11-1-3v-7z" fill="#F7F7F0"/>
<path transform="translate(1307,901)" d="m0 0h2l8 20 6 21 2 13v46h-2l-2-9v-17l-2-21-3-17-7-24-3-11z" fill="#BBDB6C"/>
<path transform="translate(667,391)" d="m0 0h4l1 8 12 13 9 5 7 2 9 1 10-2 5 1v3l-9 4-5 1h-10l-11-4-2-1v-2l-4-1-2-1v-2l-4-2-3-4v-2h-2l-5-10z" fill="#F1E1C0"/>
<path transform="translate(932,651)" d="m0 0 3 1 7 11 7 9 15 15 8 6 13 8 18 8 14 4 9 1 1 2h-13l-19-5-5-3-7-3-12-7-10-8-8-7-7-8-10-14-4-6z" fill="#F4E5C4"/>
<path transform="translate(1314,834)" d="m0 0 9 2 21 12 2 3-9 6-4 2h-5l-11-14-3-5z" fill="#E98A77"/>
<path transform="translate(1241,1086)" d="m0 0h34l13 1v1l-9 1-27 1-7 1-2 5-5 13-14 36-5 10-3 1 1-5 5-14 5-11 5-15 5-12z" fill="#EEE4C4"/>
<path transform="translate(1437,901)" d="m0 0 4 1 6 3-1 5-8 17-4 10h-3l-4-4 1-8 7-22z" fill="#E6C8AF"/>
<path transform="translate(1352,793)" d="m0 0h7l-2 2-1 5 2 6 8 7 10 6 7 3h7l10-4 3 1-15 10h-6l-10-7-12-8-9-7v-2h-2l1-10z" fill="#F9EECB"/>
<path transform="translate(838,826)" d="m0 0 4 1-13 8-11 7-12 9-9 9h-2l-2 4-8 9-12 17-9 16-2 4h-2l1-5 10-18 9-13 11-13 6-6h2l2-4 17-13 11-7z" fill="#D4CE95"/>
<path transform="translate(1313,705)" d="m0 0h2l6 11 8 11 1 3 4 2 10 8 17 9 15 4 15 1v1h-24l-9-3-16-8-10-8-7-7-9-14-3-7z" fill="#F7ECC8"/>
<path transform="translate(628,269)" d="m0 0h147l9 1 2 2-1 11-2 7h-1v-17l-2-1-154-1z" fill="#97765C"/>
<path transform="translate(1435,301)" d="m0 0 1 4-7 12-11 12-11 8-12 6-12 4h-28v-2h17l16-4 20-8 12-11 6-7 5-8 3-5z" fill="#F7EBC9"/>
<path transform="translate(1369,993)" d="m0 0h2l9 14 3 3 6-2 8-9 1 4-9 16-4 7-3-3-10-21-3-6z" fill="#F1D3B5"/>
<path transform="translate(618,713)" d="m0 0h2l10 13 11 10 12 8 10 5 15 4v1h-13l-10-4-15-9-12-11-10-14z" fill="#F5E7C4"/>
<path transform="translate(824,1086)" d="m0 0h6l2 1 3 12 3 8 3 10-4-2-6-14-3-8-2-3-5-1h-14l-13 1-5 2-4 5-1-1v-8z" fill="#F2E7C5"/>
<path transform="translate(630,900)" d="m0 0 4 1 4 5 1 7h-6l2 8-1 4h-2l-5-9-3-7v-5z" fill="#F9F4F0"/>
<path transform="translate(783,1186)" d="m0 0 2 3 2 8 7 2 28 1 1 1 37 1v1h-77l-1-1z" fill="#E7DBB1"/>
<path transform="translate(877,941)" d="m0 0 2 2-1 10-8 28-3 14-2 1-1 5h-1v-9l7-29 6-18z" fill="#BAD275"/>
<path transform="translate(1279,1088)" d="m0 0h9l-1 99h-1l-1-54-1-14-1-27-4-2z" fill="#FFF5D3"/>
<path transform="translate(1035,479)" d="m0 0 5 2 11 11 17 13 3 2v2l-6-2-11-8-11-10-6-2-10 4-4 1 6-7 3-1 2-4z" fill="#FCF2CD"/>
<path transform="translate(805,709)" d="m0 0h1l1 17v62l-1 14-2 5h-10l-3-2 11-1 2-9z" fill="#B6B9A3"/>
<path transform="translate(993,750)" d="m0 0 7 1 10 3v1h-10l-5 2-10 15-9 10-6 5v-3l8-8 5-7 7-14z" fill="#EDE4BE"/>
<path transform="translate(1205,1061)" d="m0 0h1v7l-6 21-15 39-3 7h-2l1-5 8-20 10-28 5-20z" fill="#CCC58A"/>
<path transform="translate(1452,713)" d="m0 0 1 3-9 13-12 12-11 7-9 4h-5l1-2 11-4 11-8 12-12 8-11z" fill="#F8EFC8"/>
<path transform="translate(1442,404)" d="m0 0 1 3-2 6-1 8-4 4h3l1-2 13 8 3 3-8-1-15-5v-4l7-18h2z" fill="#D6C3A1"/>
<path transform="translate(953,918)" d="m0 0h3l16 31 7 12v2l-3-1v-2h-2l-4-6-1-7h-2v-3h-2l-2-5-3-5-1-3-2-1v-2h-2l-2-8z" fill="#B0C969"/>
<path transform="translate(749,939)" d="m0 0 3 2-1 11-3 15-1 61h-1l-1-70z" fill="#BADA70"/>
<path transform="translate(1285,445)" d="m0 0h2v2l-18 12-12 9h-2l-3-11 4 2 7-1 12-7 3-3z" fill="#B4D56D"/>
<path transform="translate(1200,962)" d="m0 0 2 4 6 25 1 7v28h-1l-3-34-4-19-1-2z" fill="#C3C281"/>
<path transform="translate(996,997)" d="m0 0h2l6 10 6 11 4 8-1 2-5-5-2-5-4-4-5-9v-2h-2z" fill="#B5D06A"/>
<path transform="translate(1435,301)" d="m0 0 1 4-7 12-11 12-11 8v-3l13-12 6-7 5-8 3-5z" fill="#F8EFC7"/>
<path transform="translate(864 1e3)" d="m0 0 1 4-1 33-2 2-1-1v-36z" fill="#BCD575"/>
<path transform="translate(999,270)" d="m0 0h76v1l-71 1-7 1 2 5 1 5-1 3-4-11v-4z" fill="#626971"/>
<path transform="translate(787,400)" d="m0 0 4 1 8 7 9 10 2 4-4-1-5-5v-2h-2v-2l-4-2v-2l-9-1-1-2z" fill="#B8D273"/>
<path transform="translate(1249,1027)" d="m0 0h1l1 18h71l5-1v3h-78z" fill="#EADEA4"/>
<path transform="translate(859,1192)" d="m0 0 3 4v6h-39l1-2 30-1 3-2z" fill="#FEF4D2"/>
<path transform="translate(1e3 623)" d="m0 0 6 2 10 7 10 4h16l3-1 2 2-4 1h-21l-9-3-8-6-5-4z" fill="#F9EECA"/>
<path transform="translate(786,586)" d="m0 0 4 4 6 8v2l5 1v13l-3-1-12-25z" fill="#E08371"/>
<path transform="translate(684,876)" d="m0 0 10 1 6 3v2l6 2 4 2v2h-6l-14-7-6-1-1-3z" fill="#F2F3EC"/>
<path transform="translate(1246,993)" d="m0 0h3l1 12v22l-1 20h-1l-1-33z" fill="#A4BA70"/>
<path transform="translate(626,397)" d="m0 0 4 1 5 17 3 8v4h-34l-5-1 1-2 7 1h28l-1-1-1-10h-2l-2-13-1-3z" fill="#8E9061"/>
<path transform="translate(1281,863)" d="m0 0 4 2 11 13 9 15 1 4-4-2-5-10v-2h-2l-4-6-8-10z" fill="#AFCB6A"/>
<path transform="translate(1080,707)" d="m0 0m-4 1h4v2l-10 4-9 2h-11l-1-2z" fill="#F0E5C4"/>
<path transform="translate(938,888)" d="m0 0h2l13 24-1 4-5-5-2-4-2-9h-2v-3h-2z" fill="#B4D26B"/>
<path transform="translate(1137,658)" d="m0 0 1 3-7 11-9 10-8 8-2-1 10-10 7-11 6-9z" fill="#FAEAC9"/>
<path transform="translate(838,826)" d="m0 0 4 1-13 8-11 7-8 6h-2l2-4 14-10 9-5z" fill="#EAE0AA"/>
<path transform="translate(1221,924)" d="m0 0h6v2l-27 9h-5l5-4z" fill="#B2CF6F"/>
<path transform="translate(630,900)" d="m0 0 4 1 4 5v2l-6 2-5-3-3 2v-5z" fill="#EEDCBD"/>
<path transform="translate(710,1064)" d="m0 0 2 3 4 7v2l4 2-1 2-4-3h-6v2h-2v-11z" fill="#E8C6AD"/>
<path transform="translate(887,808)" d="m0 0h9v2l-9 2-6 3h-16l4-2z" fill="#BDCF7A"/>
<path transform="translate(987,94)" d="m0 0 2 1-7 7-4 6-3 3h-2v2h11v1l-16 1 4-6 11-12z" fill="#EF8774"/>
<path transform="translate(1378,1011)" d="m0 0 5 4 5-1 2-1-1 6-4 7-3-3-4-8z" fill="#F1E3BD"/>
<path transform="translate(802,579)" d="m0 0h1l1 50-2-2-3-13h2z" fill="#7C6F65"/>
<path transform="translate(801,1087)" d="m0 0h20v1l-27 2-5 2-4 5-1-1v-8z" fill="#FFF5D3"/>
<path transform="translate(1440,271)" d="m0 0h3v11l-1 8h-4v-18z" fill="#F4E6C6"/>
<path transform="translate(1147,539)" d="m0 0h4v31h-1l-2-11z" fill="#FEF4D2"/>
<path transform="translate(963,179)" d="m0 0 3 1 8 16 4 6-1 2-5-5-4-5-5-11z" fill="#EFDDBF"/>
<path transform="translate(1072,276)" d="m0 0h2l-1 7-5 10-4 5h-2l1-4 6-14z" fill="#F1E6C0"/>
<path transform="translate(1194,1098)" d="m0 0 2 1-11 29-3 7h-2l1-5 8-20z" fill="#C2BD86"/>
<path transform="translate(1015,1141)" d="m0 0h1v60h-9v-1l7-2z" fill="#ECE0A2"/>
<path transform="translate(957,154)" d="m0 0 3 1v9h2l3 12-1 4h-2l-4-15z" fill="#E1C8AD"/>
<path transform="translate(776,296)" d="m0 0h2l-1 7-6 11-4 2 1-5z" fill="#F3E5C1"/>
<path transform="translate(745,1028)" d="m0 0h1l2 12 2 4 4 1v2h-10v-12z" fill="#CDE780"/>
<path transform="translate(1417,792)" d="m0 0h2l2 6v7l-4 4h-2l1-11v-5z" fill="#FBECCC"/>
<path transform="translate(1e3 286)" d="m0 0 17 17-4 1-11-11-2-3z" fill="#F6E6C6"/>
<path transform="translate(1332,846)" d="m0 0h9l4 4h-3l-1 2-8 1z" fill="#A67A53"/>
<path transform="translate(1325,1026)" d="m0 0h2v18l-5 1 1-7 1-11z" fill="#BEE368"/>
<path transform="translate(670,817)" d="m0 0 17 8 3 1-1 3-8-1-8-7-3-2z" fill="#F5EEE7"/>
<path transform="translate(921,856)" d="m0 0h2l11 20v2h-3l-6-12-4-4-1-5z" fill="#AFCD6B"/>
<path transform="translate(806,847)" d="m0 0h2l-2 4-9 9-5 3-5 4 2-4 8-8h2l2-4z" fill="#D0C194"/>
<path transform="translate(964,639)" d="m0 0 3 1 6 8 7 8-1 2-12-11-3-4z" fill="#F5E6C5"/>
<path transform="translate(741,389)" d="m0 0h3v8l-2 7h-4l2-13z" fill="#F0E3C2"/>
<path transform="translate(754,1045)" d="m0 0 35 1v1l-45 1v-1h10z" fill="#BDE26A"/>
<path transform="translate(1396,752)" d="m0 0h8l-1 3-6 1h-25v-1l19-1z" fill="#CAC898"/>
<path transform="translate(1434,422)" d="m0 0 2 4 12 4 5 1 3 3-8-1-15-5v-4z" fill="#C6BD8E"/>
<path transform="translate(1170,1160)" d="m0 0h1l1 41-4 1v-3l1-2z" fill="#EDE0A8"/>
<path transform="translate(805,785)" d="m0 0h1v17l-2 5h-10l-3-2 11-1 2-9z" fill="#BFC79D"/>
<path transform="translate(821,1007)" d="m0 0h1v40l-5-1 3-4z" fill="#ECDFA5"/>
<path transform="translate(868,981)" d="m0 0h1l-1 9-1 5-2 1-1 5h-1v-9l2-9z" fill="#BFD678"/>
<path transform="translate(953,918)" d="m0 0h3l6 12v2l-5-2v-2h-2l-2-8z" fill="#B5D56C"/>
<path transform="translate(911,836)" d="m0 0 4 5 6 11v2l-5-2-3-5-2-7z" fill="#B0CE6B"/>
<path transform="translate(802,449)" d="m0 0 14 5 1 4-7-1-8-6z" fill="#B3D46C"/>
<path transform="translate(863,1043)" d="m0 0 2 4 3 18v6l-2-1-2-8-1-9z" fill="#DCD9AF"/>
<path transform="translate(1206,998)" d="m0 0h3v28h-1l-2-24z" fill="#D9D490"/>
<path transform="translate(1321,607)" d="m0 0 1 2-4 8-6 7-1-2 6-12z" fill="#EDDCBC"/>
<path transform="translate(769,890)" d="m0 0h3l-2 5-8 15h-2l1-5z" fill="#C9C68C"/>
<path transform="translate(1243,832)" d="m0 0 5 1 13 9 1 4-5-3-6-4v-2h-3v-2l-5-2z" fill="#BCC480"/>
<path transform="translate(1186,809)" d="m0 0 11 2 11 3-2 2-12-2-6-2v-2z" fill="#ABC86A"/>
<path transform="translate(1241,960)" d="m0 0 2 3 2 5 1 12-2 3-3-16z" fill="#BAC480"/>
<path transform="translate(1432,925)" d="m0 0 3 3-1 9h-3l-2-4z" fill="#F7E9CA"/>
<path transform="translate(1249,1027)" d="m0 0h1l1 18 14 1v1h-16z" fill="#F6ECBF"/>
<path transform="translate(492,842)" d="m0 0m-1 1m-2 1 2 1-18 18v-3l7-8 8-7z" fill="#50503C"/>
<path transform="translate(1435,422)" d="m0 0 1 3h3l1-2 10 7-2 1-12-4z" fill="#F6D7BE"/>
<path transform="translate(667,387)" d="m0 0h23v1l-21 1-2 6-2-1-1-6z" fill="#B7A26C"/>
<path transform="translate(1366,981)" d="m0 0h2l2 7-1 7-2-3-2-5v-5z" fill="#DFC6A6"/>
<path transform="translate(938,888)" d="m0 0h2l6 11v2l-3-1v-2h-2v-3h-2z" fill="#B0CD6B"/>
<path transform="translate(1297,883)" d="m0 0 3 1 6 11v2l-4-2-5-10z" fill="#B0C86A"/>
<path transform="translate(676,880)" d="m0 0 1 2 2 1-4 10-2-3v-7z" fill="#FCFBF9"/>
<path transform="translate(971,951)" d="m0 0 3 1 5 9v2l-3-1v-2h-2l-4-6z" fill="#B5D26A"/>
<path transform="translate(1194,1098)" d="m0 0 2 1-6 16h-3l6-16z" fill="#C8C28C"/>
<path transform="translate(1208,928)" d="m0 0m-3 1h3v3l-8 3h-5l5-4z" fill="#B9DB6C"/>
<path transform="translate(1286,399)" d="m0 0 4 2 1 7-6-3-1-4z" fill="#E7D7A5"/>
<path transform="translate(1425,318)" d="m0 0 1 3-10 10-3 1 2-4z" fill="#F4E6C0"/>
<path transform="translate(1231,925)" d="m0 0 3 4 4 14-2 1-4-11z" fill="#E5DCB4"/>
<path transform="translate(604,838)" d="m0 0 3 1-7 3h-9l-2 4v-5l5-2z" fill="#BA7C6A"/>
<path transform="translate(995,271)" d="m0 0h9l-4 2h-3l2 5 1 5-1 3-4-11z" fill="#CA7F70"/>
<path transform="translate(874,1091)" d="m0 0 2 1 6 15-1 4-4-8-3-9z" fill="#ECE6B4"/>
<path transform="translate(1147,320)" d="m0 0 2 2 3 10v7l-4-1h2l-1-7z" fill="#92755B"/>
<path transform="translate(1155,845)" d="m0 0 1 3-7 14-1-4z" fill="#C4C489"/>
<path transform="translate(1128,798)" d="m0 0 6 1 2 1-1 5-2 2-3-5v-3z" fill="#E4D0AF"/>
<path transform="translate(1422,744)" d="m0 0m-2 1h2l-1 3-9 4h-5l1-2 11-4z" fill="#FDF0CF"/>
<path transform="translate(899,1197)" d="m0 0h2l2 3 17 1v1h-21z" fill="#EFE2AC"/>
<path transform="translate(1205,1061)" d="m0 0h1v7l-2 6h-2l1-9z" fill="#DED099"/>
<path transform="translate(1435,301)" d="m0 0 1 4-4 7-2-1 2-7z" fill="#FBF0CC"/>
<path transform="translate(846,1132)" d="m0 0 2 2 4 10v3h-2l-5-13z" fill="#DED3AD"/>
<path transform="translate(989,984)" d="m0 0 3 1 4 7-1 4-3-3-1-5h-2z" fill="#B2CE6A"/>
<path transform="translate(887,808)" d="m0 0h9v2l-11 2-2-1v-2z" fill="#B4C974"/>
<path transform="translate(1350,795)" d="m0 0h1l3 11 3 4-6-3v-2h-2z" fill="#DED7C6"/>
<path transform="translate(720,585)" d="m0 0 6 3v1l-12 3z" fill="#FDF1D0"/>
<path transform="translate(1035,479)" d="m0 0 5 2 3 3-1 2-4-2-6-1z" fill="#F8F7EC"/>
<path transform="translate(1301,430)" d="m0 0h2l2 5v3l-6 1 2-6z" fill="#B3CB6F"/>
<path transform="translate(980,968)" d="m0 0 4 2 1 6-5-3-1-4z" fill="#B9DA6C"/>
<path transform="translate(1074,752)" d="m0 0h5l2 3-1 4-6-5z" fill="#F5E5C3"/>
<path transform="translate(1285,445)" d="m0 0h2v2l-9 6h-2l2-4z" fill="#AAC66E"/>
<path transform="translate(634,419)" d="m0 0 3 1 1 7h-10v-1l7-1-1-1z" fill="#ADB959"/>
<path transform="translate(645,930)" d="m0 0h1v5h-2l-2 5-4-2v-3l3 1z" fill="#D1B19E"/>
<path transform="translate(652,802)" d="m0 0 4 1 3 4v2l-4-1-3-2z" fill="#F8F9EE"/>
<path transform="translate(987,94)" d="m0 0 2 1-7 7-6 4 2-4z" fill="#C77E71"/>
<path transform="translate(1144,867)" d="m0 0 2 1-6 11h-2l2-6z" fill="#C5C088"/>
<path transform="translate(1271,851)" d="m0 0 7 6 2 3h-3l-7-6z" fill="#A1BC6E"/>
<path transform="translate(777,881)" d="m0 0v3l-4 6-3 1 2-5 3-4z" fill="#D5CC93"/>
<path transform="translate(794,860)" d="m0 0v3l-7 7-5 2 4-5z" fill="#DCD598"/>
<path transform="translate(815,840)" d="m0 0 3 1-4 4-4 3h-2l2-4z" fill="#EEE4AD"/>
</svg>
