<svg width="52" height="43" viewBox="0 0 52 43" fill="none" xmlns="http://www.w3.org/2000/svg">
<path d="M49.7124 1.12758C49.1271 0.868315 48.4533 1.01155 48.0052 1.49043L38.9348 11.1834V8.94951C38.9348 4.56616 35.5979 1.00015 31.4961 1.00015H8.00696C3.90524 1.00015 0.568359 4.56616 0.568359 8.94951V34.0506C0.568359 38.4339 3.90524 42 8.00696 42H31.4962C35.5979 42 38.9349 38.4339 38.9349 34.0506V31.8166L48.0053 41.5096C48.305 41.83 48.7056 42.0001 49.1133 42C49.3151 42 49.5186 41.9584 49.7125 41.8726C50.2978 41.6134 50.6795 41.003 50.6795 40.326V2.67408C50.6793 1.99703 50.2976 1.38664 49.7124 1.12758ZM47.5463 36.2845L38.476 26.5915C38.0279 26.1127 37.3542 25.9697 36.7688 26.2286C36.1834 26.4878 35.8018 27.0982 35.8018 27.7752V34.0505C35.8018 36.5876 33.8702 38.6518 31.496 38.6518H8.00696C5.63277 38.6518 3.70131 36.5876 3.70131 34.0505V8.94941C3.70131 6.4122 5.63287 4.34811 8.00696 4.34811H31.4962C33.8704 4.34811 35.802 6.4123 35.802 8.94941V15.2246C35.802 15.9017 36.1836 16.5121 36.769 16.7712C37.3541 17.0304 38.028 16.8872 38.4761 16.4084L47.5465 6.71541L47.5463 36.2845ZM13.2762 10.5404C13.2762 11.4649 12.5748 12.2144 11.7097 12.2144H9.49227C8.62718 12.2144 7.92579 11.4649 7.92579 10.5404C7.92579 9.61588 8.62718 8.86633 9.49227 8.86633H11.7096C12.5748 8.86633 13.2762 9.61588 13.2762 10.5404Z" fill="white" stroke="white" stroke-linejoin="round"/>
</svg>
