<svg width="84" height="84" viewBox="0 0 84 84" fill="none" xmlns="http://www.w3.org/2000/svg">
<path d="M81.5391 0H2.46094C1.10184 0 0 1.10184 0 2.46094V81.5391C0 82.8982 1.10184 84 2.46094 84H81.5391C82.8982 84 84 82.8982 84 81.5391V2.46094C84 1.10184 82.8982 0 81.5391 0ZM79.0781 10.0078H73.9922V4.92188H79.0781V10.0078ZM64.1484 10.0078V4.92188H69.0703V10.0078H64.1484ZM54.3047 10.0078V4.92188H59.2266V10.0078H54.3047ZM49.3828 4.92188V10.0078H4.92188V4.92188H49.3828ZM4.92188 79.0781V14.9297H79.0781V79.0781H4.92188ZM66.6094 19.8516H37.0781C35.719 19.8516 34.6172 20.9534 34.6172 22.3125C34.6172 23.6716 35.719 24.7734 37.0781 24.7734H66.6094C67.9685 24.7734 69.0703 23.6716 69.0703 22.3125C69.0703 20.9534 67.9685 19.8516 66.6094 19.8516ZM37.0781 34.6172H53.4844C54.8435 34.6172 55.9453 33.5153 55.9453 32.1562C55.9453 30.7972 54.8435 29.6953 53.4844 29.6953H37.0781C35.719 29.6953 34.6172 30.7972 34.6172 32.1562C34.6172 33.5153 35.719 34.6172 37.0781 34.6172ZM66.6094 39.5391H37.0781C35.719 39.5391 34.6172 40.6409 34.6172 42C34.6172 43.3591 35.719 44.4609 37.0781 44.4609H66.6094C67.9685 44.4609 69.0703 43.3591 69.0703 42C69.0703 40.6409 67.9685 39.5391 66.6094 39.5391ZM37.0781 54.3047H53.4844C54.8435 54.3047 55.9453 53.2028 55.9453 51.8438C55.9453 50.4847 54.8435 49.3828 53.4844 49.3828H37.0781C35.719 49.3828 34.6172 50.4847 34.6172 51.8438C34.6172 53.2028 35.719 54.3047 37.0781 54.3047ZM66.6094 59.2266H37.0781C35.719 59.2266 34.6172 60.3284 34.6172 61.6875C34.6172 63.0466 35.719 64.1484 37.0781 64.1484H66.6094C67.9685 64.1484 69.0703 63.0466 69.0703 61.6875C69.0703 60.3284 67.9685 59.2266 66.6094 59.2266ZM53.4844 69.0703H37.0781C35.719 69.0703 34.6172 70.1722 34.6172 71.5312C34.6172 72.8903 35.719 73.9922 37.0781 73.9922H53.4844C54.8435 73.9922 55.9453 72.8903 55.9453 71.5312C55.9453 70.1722 54.8435 69.0703 53.4844 69.0703ZM27.2344 19.8516H17.3906C16.0315 19.8516 14.9297 20.9534 14.9297 22.3125V32.1562C14.9297 33.5153 16.0315 34.6172 17.3906 34.6172H27.2344C28.5935 34.6172 29.6953 33.5153 29.6953 32.1562V22.3125C29.6953 20.9534 28.5935 19.8516 27.2344 19.8516ZM24.7734 29.6953H19.8516V24.7734H24.7734V29.6953ZM27.2344 39.5391H17.3906C16.0315 39.5391 14.9297 40.6409 14.9297 42V51.8438C14.9297 53.2028 16.0315 54.3047 17.3906 54.3047H27.2344C28.5935 54.3047 29.6953 53.2028 29.6953 51.8438V42C29.6953 40.6409 28.5935 39.5391 27.2344 39.5391ZM24.7734 49.3828H19.8516V44.4609H24.7734V49.3828ZM27.2344 59.2266H17.3906C16.0315 59.2266 14.9297 60.3284 14.9297 61.6875V71.5312C14.9297 72.8903 16.0315 73.9922 17.3906 73.9922H27.2344C28.5935 73.9922 29.6953 72.8903 29.6953 71.5312V61.6875C29.6953 60.3284 28.5935 59.2266 27.2344 59.2266ZM24.7734 69.0703H19.8516V64.1484H24.7734V69.0703Z" fill="white"/>
</svg>
