<svg width="84" height="84" viewBox="0 0 84 84" fill="none" xmlns="http://www.w3.org/2000/svg">
<path d="M81.5391 84H65.1327C63.7736 84 62.6718 82.8982 62.6718 81.5391C62.6718 80.1799 63.7736 79.0781 65.1327 79.0781H79.0781V65.1327C79.0781 63.7736 80.1799 62.6718 81.5391 62.6718C82.8982 62.6718 84 63.7736 84 65.1327V81.5391C84 82.8982 82.8982 84 81.5391 84ZM21.3281 81.5391C21.3281 80.1799 20.2263 79.0781 18.8671 79.0781H4.92187V65.1327C4.92187 63.7736 3.82011 62.6718 2.46094 62.6718C1.10176 62.6718 0 63.7736 0 65.1327V81.5391C0 82.8982 1.10176 84 2.46094 84H18.8671C20.2263 84 21.3281 82.8982 21.3281 81.5391ZM84 18.8671V2.46094C84 1.10176 82.8982 0 81.5391 0H65.1327C63.7736 0 62.6718 1.10176 62.6718 2.46094C62.6718 3.82011 63.7736 4.92187 65.1327 4.92187H79.0781V18.8671C79.0781 20.2263 80.1799 21.3281 81.5391 21.3281C82.8982 21.3281 84 20.2263 84 18.8671ZM4.92187 18.8671V4.92187H18.8671C20.2263 4.92187 21.3281 3.82011 21.3281 2.46094C21.3281 1.10176 20.2263 0 18.8671 0H2.46094C1.10176 0 0 1.10176 0 2.46094V18.8671C0 20.2263 1.10176 21.3281 2.46094 21.3281C3.82011 21.3281 4.92187 20.2263 4.92187 18.8671ZM73.9921 32.1562V12.4687C73.9921 11.1095 72.8904 10.0078 71.5312 10.0078H51.8437C50.4845 10.0078 49.3827 11.1095 49.3827 12.4687V32.1562C49.3827 33.5154 50.4845 34.6171 51.8437 34.6171H71.5312C72.8904 34.6171 73.9921 33.5154 73.9921 32.1562ZM54.3046 14.9296H69.0702V29.6953H54.3046V14.9296ZM64.1484 22.3124C64.1484 20.9534 63.0465 19.8515 61.6874 19.8515C60.3284 19.8515 59.2265 20.9534 59.2265 22.3124C59.2265 23.6715 60.3284 24.7734 61.6874 24.7734C63.0465 24.7734 64.1484 23.6715 64.1484 22.3124ZM34.6171 71.5312V51.8437C34.6171 50.4845 33.5154 49.3827 32.1562 49.3827H12.4687C11.1095 49.3827 10.0078 50.4845 10.0078 51.8437V71.5312C10.0078 72.8904 11.1095 73.9921 12.4687 73.9921H32.1562C33.5154 73.9921 34.6171 72.8904 34.6171 71.5312ZM14.9296 54.3046H29.6953V69.0702H14.9296V54.3046ZM73.9921 71.5312V61.6874C73.9921 60.3283 72.8904 59.2265 71.5312 59.2265C70.172 59.2265 69.0702 60.3283 69.0702 61.6874V69.0702H61.6874C60.3283 69.0702 59.2265 70.172 59.2265 71.5312C59.2265 72.8904 60.3283 73.9921 61.6874 73.9921H71.5312C72.8904 73.9921 73.9921 72.8904 73.9921 71.5312ZM73.9921 51.8437V41.9999C73.9921 40.6408 72.8904 39.539 71.5312 39.539H51.8437C50.4845 39.539 49.3827 40.6408 49.3827 41.9999C49.3827 43.3591 50.4845 44.4609 51.8437 44.4609H69.0702V51.8437C69.0702 53.2029 70.172 54.3046 71.5312 54.3046C72.8904 54.3046 73.9921 53.2029 73.9921 51.8437ZM54.3046 71.5312C54.3046 70.172 53.2029 69.0702 51.8437 69.0702H44.4609V61.6874C44.4609 60.3283 43.3591 59.2265 41.9999 59.2265C40.6408 59.2265 39.539 60.3283 39.539 61.6874V71.5312C39.539 72.8904 40.6408 73.9921 41.9999 73.9921H51.8437C53.2029 73.9921 54.3046 72.8904 54.3046 71.5312ZM24.7734 61.6874C24.7734 60.3284 23.6715 59.2265 22.3124 59.2265C20.9534 59.2265 19.8515 60.3284 19.8515 61.6874C19.8515 63.0465 20.9534 64.1484 22.3124 64.1484C23.6715 64.1484 24.7734 63.0465 24.7734 61.6874ZM34.6171 32.1562V12.4687C34.6171 11.1095 33.5154 10.0078 32.1562 10.0078H12.4687C11.1095 10.0078 10.0078 11.1095 10.0078 12.4687V32.1562C10.0078 33.5154 11.1095 34.6171 12.4687 34.6171H32.1562C33.5154 34.6171 34.6171 33.5154 34.6171 32.1562ZM14.9296 14.9296H29.6953V29.6953H14.9296V14.9296ZM24.7734 22.3124C24.7734 20.9534 23.6715 19.8515 22.3124 19.8515C20.9534 19.8515 19.8515 20.9534 19.8515 22.3124C19.8515 23.6715 20.9534 24.7734 22.3124 24.7734C23.6715 24.7734 24.7734 23.6715 24.7734 22.3124ZM64.1484 61.6874C64.1484 60.3283 63.0466 59.2265 61.6874 59.2265H51.8437C50.4845 59.2265 49.3827 60.3283 49.3827 61.6874C49.3827 63.0466 50.4845 64.1484 51.8437 64.1484H61.6874C63.0466 64.1484 64.1484 63.0466 64.1484 61.6874ZM64.1484 51.8437C64.1484 50.4845 63.0466 49.3827 61.6874 49.3827H44.4609V41.9999C44.4609 40.6408 43.3591 39.539 41.9999 39.539C40.6408 39.539 39.539 40.6408 39.539 41.9999V51.8437C39.539 53.2029 40.6408 54.3046 41.9999 54.3046H61.6874C63.0466 54.3046 64.1484 53.2029 64.1484 51.8437ZM21.4922 41.9999C21.4922 40.6408 20.3905 39.539 19.0313 39.539H12.4688C11.1097 39.539 10.0079 40.6408 10.0079 41.9999C10.0079 43.3591 11.1097 44.4609 12.4688 44.4609H19.0313C20.3905 44.4609 21.4922 43.359 21.4922 41.9999ZM34.6171 41.9999C34.6171 40.6408 33.5154 39.539 32.1562 39.539H28.8749C27.5157 39.539 26.414 40.6408 26.414 41.9999C26.414 43.3591 27.5157 44.4609 28.8749 44.4609H32.1562C33.5154 44.4609 34.6171 43.359 34.6171 41.9999ZM44.461 32.1562V22.3124C44.461 20.9533 43.3591 19.8515 42.0001 19.8515C40.641 19.8515 39.5391 20.9533 39.5391 22.3124V32.1562C39.5391 33.5154 40.6409 34.6171 42.0001 34.6171C43.3592 34.6171 44.461 33.5154 44.461 32.1562ZM44.4609 12.4687C44.4609 11.1097 43.359 10.0078 41.9999 10.0078C40.6409 10.0078 39.539 11.1097 39.539 12.4687C39.539 13.8278 40.6409 14.9296 41.9999 14.9296C43.359 14.9296 44.4609 13.8278 44.4609 12.4687Z" fill="white"/>
</svg>
