<svg width="84" height="84" viewBox="0 0 84 84" fill="none" xmlns="http://www.w3.org/2000/svg">
<path d="M49.0213 59.3907H36.5526C36.5526 50.3195 35.7734 39.5449 43.1372 24.7091C44.3157 22.3354 44.9129 19.7797 44.9129 17.1132C44.9129 7.51701 37.0345 -0.223605 27.3811 0.00493368C14.9946 0.296964 6.82635 13.5322 12.4897 24.7906C16.771 33.3012 19.0338 42.5366 19.0338 51.4981V59.3907H6.56506C2.94509 59.3907 0 62.3346 0 65.9532V70.0547C0 72.3163 1.84068 74.1563 4.10317 74.1563H4.41172V79.8985C4.41172 82.16 6.2524 84 8.51489 84H47.0715C49.334 84 51.1747 82.16 51.1747 79.8985V74.1563H51.4834C53.7459 74.1563 55.5866 72.3163 55.5866 70.0547V65.9532C55.5864 62.3346 52.6413 59.3907 49.0213 59.3907ZM16.8888 22.5794C12.8569 14.5653 18.6742 5.13352 27.4971 4.92565C36.7368 4.70253 42.7614 14.3927 38.7267 22.5216C30.8906 38.3082 31.6288 49.9122 31.6288 59.3907H23.9576C23.9576 50.3848 24.8173 38.3409 16.8888 22.5794ZM46.2509 79.0781H9.33569V74.1563H46.2509V79.0781ZM50.6626 69.2344H4.9238V65.9532C4.9238 65.0485 5.66007 64.3125 6.56506 64.3125H49.0213C49.9263 64.3125 50.6626 65.0485 50.6626 65.9532V69.2344ZM64.3048 18.2521C53.4449 18.2521 44.6096 27.0839 44.6096 37.9396C44.6096 48.7952 53.4449 57.627 64.3048 57.627C75.1647 57.627 84 48.7952 84 37.9396C84 27.0839 75.1647 18.2521 64.3048 18.2521ZM64.3048 52.7051C56.1599 52.7051 49.5334 46.0813 49.5334 37.9396C49.5334 29.7978 56.1599 23.174 64.3048 23.174C72.4498 23.174 79.0762 29.7978 79.0762 37.9396C79.0762 46.0813 72.4498 52.7051 64.3048 52.7051ZM68.7402 32.3203L61.915 38.0321L60.3305 35.6827C59.5704 34.5558 58.0404 34.258 56.913 35.0178C55.7857 35.7775 55.4878 37.3069 56.2478 38.4339L59.3593 43.0476C60.1729 44.254 61.8582 44.4988 62.981 43.559L71.9009 36.0942C72.9436 35.2217 73.081 33.6697 72.2082 32.6275C71.3353 31.5853 69.7827 31.4478 68.7402 32.3203Z" fill="white"/>
</svg>
