<svg width="82" height="84" viewBox="0 0 82 84" fill="none" xmlns="http://www.w3.org/2000/svg">
<path d="M61.703 48.9151C61.6947 48.8926 61.686 48.8705 61.6769 48.8483C61.2324 47.7611 60.1898 47.059 59.02 47.059H59.0174C57.8465 47.06 56.8039 47.7644 56.3609 48.8532C56.3534 48.8716 56.346 48.8905 56.3389 48.9092L49.347 67.3738C48.8661 68.6442 49.5013 70.0656 50.7661 70.549C51.0528 70.6584 51.3471 70.7102 51.6366 70.7102C52.6243 70.7102 53.5553 70.1058 53.9272 69.1234L55.0679 66.1109H62.9177L64.0454 69.1165C64.5225 70.3883 65.9358 71.0306 67.2022 70.5514C68.4685 70.0722 69.1082 68.6527 68.6309 67.3807L61.7025 48.9153L61.703 48.9151ZM56.932 61.1888L59.011 55.698L61.0712 61.1888H56.9318H56.932ZM66.4747 39.0044L66.4544 2.45947C66.4544 2.41895 66.4504 2.37957 66.4484 2.33954C66.4463 2.2959 66.4461 2.2516 66.4417 2.20845C66.4379 2.1717 66.4306 2.13627 66.4252 2.10001C66.4185 2.05456 66.4136 2.00863 66.4044 1.96416C66.3968 1.92627 66.3853 1.88968 66.3759 1.85227C66.3654 1.81093 66.3566 1.76893 66.344 1.72841C66.3313 1.68706 66.3146 1.64736 66.2998 1.607C66.2868 1.57222 66.2759 1.53645 66.2615 1.50233C66.2408 1.45294 66.2163 1.40586 66.1924 1.35828C66.1807 1.33482 66.1709 1.31037 66.1585 1.2874C66.1295 1.23392 66.097 1.1829 66.0645 1.13204C66.0546 1.11645 66.0461 1.09988 66.0358 1.08462C65.9971 1.02704 65.9551 0.972074 65.9118 0.918097C65.9059 0.910715 65.9009 0.902511 65.8948 0.895293C65.5972 0.533041 65.198 0.258235 64.7414 0.113696C64.7385 0.112711 64.7357 0.111399 64.7328 0.110579C64.6656 0.0895785 64.5969 0.07268 64.5274 0.0575862C64.5175 0.0554533 64.508 0.052008 64.498 0.0500393C64.435 0.0370783 64.3705 0.028547 64.3058 0.0205079C64.2886 0.0183751 64.272 0.0144376 64.2548 0.0126329C64.1725 0.00426564 64.0888 0 64.0044 0H2.4502C1.09704 0 0 1.10185 0 2.46095V63.3815C0 63.394 0.00163347 63.4061 0.00179682 63.4186C0.00261355 63.476 0.0055538 63.5333 0.0104542 63.5904C0.0124144 63.6129 0.0138845 63.6353 0.0163347 63.6576C0.0241753 63.7266 0.0339762 63.7951 0.047534 63.8631C0.0524344 63.8882 0.0592949 63.9126 0.0650121 63.9374C0.0751396 63.9815 0.0860838 64.0253 0.0986615 64.0688C0.107972 64.1008 0.117936 64.1323 0.128391 64.1636C0.140805 64.2007 0.154363 64.2373 0.168574 64.2739C0.180172 64.3037 0.191116 64.3339 0.203857 64.3633C0.229502 64.4223 0.257271 64.4806 0.287491 64.5377C0.300722 64.5626 0.315586 64.5864 0.329634 64.6109C0.351196 64.6483 0.373248 64.6855 0.39677 64.7218C0.413431 64.7474 0.430583 64.7725 0.448224 64.7974C0.472563 64.832 0.498045 64.866 0.52418 64.8994C0.541985 64.9222 0.559463 64.9454 0.578248 64.9675C0.612878 65.0087 0.649304 65.0486 0.686874 65.0876C0.699778 65.1011 0.711703 65.1152 0.724934 65.1281L18.7963 83.2788C18.8533 83.336 18.9135 83.3903 18.9759 83.4419C18.9958 83.4583 19.0169 83.4722 19.0371 83.488C19.0804 83.5214 19.1237 83.5552 19.1693 83.5857C19.1913 83.6005 19.2145 83.613 19.237 83.6271C19.2828 83.6558 19.3285 83.6845 19.3762 83.7101C19.3965 83.7209 19.4175 83.7298 19.4381 83.74C19.4894 83.7657 19.5409 83.7911 19.5941 83.8133C19.6121 83.8207 19.6307 83.8264 19.6488 83.8333C19.7052 83.8551 19.7617 83.8765 19.8199 83.8942C19.8385 83.8998 19.8574 83.9035 19.8762 83.9088C19.934 83.9249 19.9919 83.9404 20.0513 83.9523C20.0788 83.9577 20.1067 83.9605 20.1343 83.9651C20.1851 83.9734 20.2356 83.9826 20.2875 83.9877C20.3628 83.9952 20.4386 83.9987 20.5144 83.9992C20.5195 83.9992 20.5244 84 20.5294 84H59.0055C71.6848 84 82 73.6265 82 60.8755C82 50.7528 75.4985 42.1294 66.4745 39.0042L66.4747 39.0044ZM18.0792 75.5982L8.36549 65.8418H18.0792V75.5982ZM22.9796 79.0784V63.3809C22.9796 62.0218 21.8826 60.9199 20.5294 60.9199H4.90041V4.92189H61.5553L61.5736 37.8963C60.7303 37.8016 59.8737 37.7513 59.0057 37.7513C46.3265 37.7513 36.0111 48.1248 36.0111 60.8758C36.0111 68.2572 39.4681 74.8417 44.8392 79.0784H22.9798H22.9796ZM59.0057 79.0784C49.0286 79.0784 40.9115 70.9128 40.9115 60.8758C40.9115 50.8387 49.0284 42.6731 59.0057 42.6731C68.9829 42.6731 77.0998 50.8387 77.0998 60.8758C77.0998 70.9128 68.9829 79.0784 59.0057 79.0784ZM35.6815 12.3187C35.6815 10.9596 36.7785 9.85773 38.1317 9.85773H54.2034C55.5566 9.85773 56.6536 10.9596 56.6536 12.3187C56.6536 13.6778 55.5566 14.7796 54.2034 14.7796H38.1317C36.7785 14.7796 35.6815 13.6778 35.6815 12.3187ZM9.80082 12.3187C9.80082 10.9596 10.8979 9.85773 12.251 9.85773H28.3227C29.6759 9.85773 30.7729 10.9596 30.7729 12.3187C30.7729 13.6778 29.6759 14.7796 28.3227 14.7796H12.251C10.8979 14.7796 9.80082 13.6778 9.80082 12.3187ZM9.80082 22.1764C9.80082 20.8173 10.8979 19.7155 12.251 19.7155H54.2034C55.5566 19.7155 56.6536 20.8173 56.6536 22.1764C56.6536 23.5355 55.5566 24.6374 54.2034 24.6374H12.251C10.8979 24.6374 9.80082 23.5355 9.80082 22.1764ZM25.8766 32.034C25.8766 33.3931 24.7796 34.4949 23.4264 34.4949H12.251C10.8979 34.4949 9.80082 33.3931 9.80082 32.034C9.80082 30.6749 10.8979 29.573 12.251 29.573H23.4264C24.7796 29.573 25.8766 30.6749 25.8766 32.034ZM25.8766 41.8917C25.8766 43.2508 24.7796 44.3527 23.4264 44.3527H12.251C10.8979 44.3527 9.80082 43.2508 9.80082 41.8917C9.80082 40.5326 10.8979 39.4308 12.251 39.4308H23.4264C24.7796 39.4308 25.8766 40.5326 25.8766 41.8917Z" fill="white"/>
</svg>
