<?xml version="1.0" encoding="UTF-8"?>
<svg id="Capa_2" data-name="Capa 2" xmlns="http://www.w3.org/2000/svg" viewBox="0 0 520 520">
  <defs>
    <style>
      .cls-1 {
        fill: #fff;
        stroke-width: 0px;
      }
    </style>
  </defs>
  <path class="cls-1" d="M504.766,201.331h-60.275l-21.387-58.948c-2.186-6.026-7.911-10.038-14.321-10.038h-30.64l-18.601-48.894c-1.262-3.317-3.642-6.089-6.73-7.838l-59.142-33.504c-6.635-3.76-15.031-2.032-19.643,4.043l-30.208,39.79-75.644,20.963c-6.598,1.828-11.166,7.834-11.166,14.681v18.271h-44.674c-6.191,0-11.766,3.746-14.105,9.478l-21.22,51.996H15.234c-8.413,0-15.234,6.821-15.234,15.234s6.821,15.234,15.234,15.234h8.531l50.253,193.515c2.905,11.194,13.011,19.011,24.577,19.011h31.707c6.486,20.581,25.749,35.547,48.444,35.547s41.957-14.966,48.443-35.547h65.623c6.486,20.581,25.748,35.547,48.444,35.547s41.957-14.966,48.443-35.547h42.338c11.968,0,22.423-8.505,24.86-20.226l27.831-133.964c.009-.041.017-.081.025-.122l12.094-58.214h7.919c8.414,0,15.234-6.821,15.234-15.234s-6.821-15.234-15.234-15.234ZM457.424,271.766H65.623l-10.379-39.966h410.483l-8.303,39.966ZM122.571,170.325h49.672c8.414,0,15.234-6.821,15.234-15.234v-21.919l69.434-19.242c3.215-.891,6.048-2.812,8.065-5.469l25.264-33.278,42.775,24.233,20.383,53.579c2.249,5.911,7.915,9.818,14.239,9.818h30.465l13.975,38.518H109.917l12.654-31.005ZM178.745,449.404c-11.2,0-20.313-9.112-20.313-20.313s9.112-20.312,20.313-20.312,20.312,9.112,20.312,20.312-9.112,20.313-20.312,20.313ZM341.255,449.404c-11.2,0-20.313-9.112-20.313-20.313s9.112-20.312,20.313-20.312,20.312,9.112,20.312,20.312-9.112,20.313-20.312,20.313ZM427.905,413.857h-38.207c-6.486-20.58-25.748-35.546-48.443-35.546s-41.957,14.966-48.444,35.546h-65.623c-6.486-20.58-25.749-35.546-48.443-35.546s-41.957,14.966-48.444,35.546h-27.78l-28.986-111.621h377.559l-23.189,111.621Z"/>
</svg>