<?xml version="1.0" encoding="UTF-8"?>
<svg id="Capa_2" data-name="Capa 2" xmlns="http://www.w3.org/2000/svg" viewBox="0 0 520 520">
  <defs>
    <style>
      .cls-1 {
        fill: #fff;
        stroke-width: 0px;
      }
    </style>
  </defs>
  <path class="cls-1" d="M474.297,428.594h-16.25v-15.234c0-25.201-20.502-45.703-45.703-45.703h-15.234v-108.672c0-48.754-33.083-90.725-79.121-103.033,11.326-13.3,18.184-30.514,18.184-49.311v-30.469c0-42.001-34.171-76.172-76.172-76.172h-91.406c-8.413,0-15.234,6.821-15.234,15.234,0,24.867,11.98,46.986,30.47,60.896,0,.014-.001.027-.001.042v30.469c0,18.796,6.857,36.011,18.184,49.311-45.667,12.209-79.121,53.898-79.121,103.033v108.672h-15.234c-25.201,0-45.703,20.502-45.703,45.703v15.234h-15.234c-25.255,0-46.719,20.41-46.719,45.703s21.426,45.703,46.719,45.703h60.938c25.201,0,45.703-20.502,45.703-45.703s-20.502-45.703-45.703-45.703h-15.234v-15.234c0-8.4,6.834-15.234,15.234-15.234h137.109v30.469h-15.234c-25.201,0-45.703,20.502-45.703,45.703s20.502,45.703,45.703,45.703h60.938c25.201,0,45.703-20.502,45.703-45.703s-20.502-45.703-45.703-45.703h-15.234v-30.469h137.109c8.4,0,15.234,6.834,15.234,15.234v15.234h-15.234c-25.201,0-45.703,20.502-45.703,45.703s20.502,45.703,45.703,45.703h61.953c25.201,0,45.703-20.502,45.703-45.703s-20.502-45.703-45.703-45.703ZM107.656,459.062c8.4,0,15.234,6.834,15.234,15.234s-6.834,15.234-15.234,15.234h-60.938c-8.656,0-16.25-7.119-16.25-15.234s7.594-15.234,16.25-15.234h60.938ZM186.438,30.469h73.562c19.861,0,36.794,12.738,43.083,30.469h-73.552c-19.863,0-36.805-12.735-43.093-30.469ZM305.703,91.406v15.234c0,25.201-20.502,45.703-45.703,45.703s-45.703-20.502-45.703-45.703v-16.767c4.924,1.003,10.018,1.533,15.234,1.533h76.172ZM215.861,327.661l19.67,39.995h-82.171v-108.672c0-31.19,18.851-58.047,45.751-69.814l43.484,43.484-27.532,83.514c-1.249,3.787-.962,7.914.798,11.493ZM290.469,459.062c8.4,0,15.234,6.834,15.234,15.234s-6.834,15.234-15.234,15.234h-60.938c-8.4,0-15.234-6.834-15.234-15.234s6.834-15.234,15.234-15.234h60.938ZM245.948,319.798l14.052-42.625,14.052,42.625-14.052,28.573-14.052-28.573ZM260,206.971l-24.159-24.159h48.317l-24.159,24.159ZM366.641,367.656h-82.171l19.67-39.995c1.76-3.579,2.047-7.705.798-11.493l-27.532-83.514,43.484-43.484c26.9,11.767,45.751,38.624,45.751,69.814v108.672ZM474.297,489.531h-61.953c-8.4,0-15.234-6.834-15.234-15.234s6.834-15.234,15.234-15.234h61.953c8.4,0,15.234,6.834,15.234,15.234s-6.834,15.234-15.234,15.234Z"/>
</svg>