<?xml version="1.0" encoding="UTF-8"?>
<svg id="Capa_2" data-name="Capa 2" xmlns="http://www.w3.org/2000/svg" viewBox="0 0 520 520">
  <defs>
    <style>
      .cls-1 {
        fill: #fff;
        stroke-width: 0px;
      }
    </style>
  </defs>
  <path class="cls-1" d="M473.281,199.063h-17.57c-4.781-30.958-16.827-60.489-35.239-86.127-18.069-25.16-41.557-45.634-68.486-59.832l6.329-14.155c1.663-3.717,1.767-7.946.291-11.741-1.476-3.795-4.41-6.841-8.147-8.459C321.715,6.308,291.28,0,260,0s-61.714,6.308-90.46,18.75c-3.737,1.618-6.671,4.664-8.148,8.459-1.476,3.795-1.371,8.023.291,11.741l6.329,14.155c-26.929,14.198-50.417,34.672-68.486,59.832-18.412,25.638-30.459,55.169-35.239,86.127h-17.57c-8.414,0-15.234,6.821-15.234,15.234v45.703c0,6.802,4.509,12.78,11.049,14.648,1.069.305,8.012,2.267,19.419,5.066v71.692c0,8.414,6.821,15.234,15.234,15.234h21.596c3.548,12.446,8.564,24.447,14.999,35.88l-15.368,15.369c-5.949,5.949-5.949,15.595,0,21.545l43.09,43.09c5.949,5.948,15.595,5.948,21.545,0l15.369-15.369c11.43,6.434,23.433,11.452,35.879,14.999v22.612c0,8.414,6.821,15.234,15.234,15.234h60.937c8.414,0,15.234-6.821,15.234-15.234v-22.612c12.447-3.547,24.449-8.565,35.879-14.999l15.368,15.368c5.951,5.951,15.597,5.95,21.545,0l43.091-43.09c2.857-2.857,4.462-6.732,4.462-10.773s-1.605-7.915-4.462-10.773l-15.369-15.368c6.434-11.432,11.451-23.433,14.999-35.88h21.596c8.414,0,15.234-6.821,15.234-15.234v-71.692c11.407-2.799,18.351-4.761,19.419-5.066,6.54-1.868,11.049-7.846,11.049-14.648v-45.703c0-8.414-6.821-15.234-15.234-15.234ZM180.485,80.995l35.139,78.583c3.434,7.681,12.445,11.123,20.126,7.689,7.681-3.434,11.123-12.445,7.689-20.126l-47.404-106.012c20.585-7.08,42.037-10.66,63.965-10.66s43.38,3.581,63.965,10.66l-47.404,106.012c-3.434,7.681.007,16.692,7.689,20.126,2.02.903,4.131,1.331,6.21,1.331,5.824,0,11.385-3.359,13.916-9.019l35.139-78.583c44.189,24.076,76.03,68.238,85.279,118.067H95.206c9.249-49.829,41.09-93.992,85.279-118.067ZM427.578,336.171h-18.313c-7.241,0-13.48,5.096-14.927,12.19-3.469,17.014-10.222,33.174-20.071,48.034-4.003,6.041-3.198,14.065,1.926,19.189l13.076,13.076-21.547,21.545-13.075-13.076c-5.124-5.124-13.15-5.93-19.19-1.926-14.856,9.848-31.016,16.601-48.032,20.07-7.094,1.447-12.19,7.686-12.19,14.927v19.329h-30.468v-19.329c0-7.241-5.096-13.48-12.191-14.927-17.014-3.469-33.175-10.222-48.032-20.07-6.041-4.004-14.065-3.199-19.19,1.925l-13.076,13.076-21.545-21.545,13.076-13.076c5.124-5.124,5.929-13.148,1.926-19.188-9.849-14.861-16.602-31.021-20.071-48.034-1.446-7.095-7.687-12.191-14.927-12.191h-18.314v-49.54c17.85,3.746,39.528,7.779,63.457,11.168-1.671,7.544-2.52,15.277-2.52,23.138,0,58.802,47.839,106.641,106.641,106.641s106.641-47.839,106.641-106.641c0-7.862-.849-15.594-2.52-23.138,23.929-3.389,45.608-7.421,63.458-11.168v49.54ZM333.694,301.576c1.645,6.274,2.478,12.751,2.478,19.361,0,42.002-34.17,76.172-76.172,76.172s-76.172-34.17-76.172-76.172c0-6.609.833-13.087,2.478-19.361,23.615,2.503,48.598,4.126,73.694,4.126s50.079-1.623,73.694-4.126ZM458.047,248.272c-29.665,7.523-114.429,26.962-198.046,26.962s-168.383-19.44-198.047-26.962v-18.741h15.859c.006,0,.012,0,.018,0,.005,0,.01,0,.016,0h364.308c.005,0,.01,0,.016,0,.006,0,.012,0,.018,0h15.859v18.741Z"/>
</svg>