<svg width="250" height="186" viewBox="0 0 250 186" fill="none" xmlns="http://www.w3.org/2000/svg">
<g filter="url(#filter0_d_1111_2008)">
<path d="M139.9 47.1188C148.206 38.8127 148.206 25.3458 139.9 17.0396C131.594 8.73347 118.127 8.73346 109.821 17.0396C101.515 25.3458 101.515 38.8127 109.821 47.1188C118.127 55.425 131.594 55.425 139.9 47.1188Z" fill="white"/>
<g filter="url(#filter1_d_1111_2008)">
<path d="M124.891 174.419C144.734 151.467 183.433 138.933 239.72 136.102L200.795 71.5479C200.795 71.5479 193.656 73.3803 183.772 78.6256L198.844 76.0622L225.204 129.266C171.527 133.662 135.757 145.177 124.896 166.606L124.865 166.667L124.834 166.606C113.978 145.177 78.2087 133.662 24.5261 129.266L50.8861 76.0622L65.9578 78.6256C56.0747 73.3803 48.9352 71.5479 48.9352 71.5479L10 136.102C66.2821 138.933 104.986 151.467 124.829 174.419L124.86 174.45L124.891 174.419Z" fill="white"/>
</g>
<path d="M26.7194 144.158L23.0596 151.601C23.0596 151.601 72.1147 153.186 113.603 175.639C113.603 175.639 90.0535 150.381 26.7194 144.158Z" fill="white"/>
<path d="M223.119 144.158L226.779 151.601C226.779 151.601 177.724 153.186 136.235 175.639C136.235 175.639 159.785 150.381 223.119 144.158Z" fill="white"/>
<path d="M127.645 76.685C134.512 76.685 141.26 79.1403 146.078 83.0935C162.092 58.8954 188.035 25.2929 188.035 25.2929C188.035 25.2929 143.818 65.2216 126.379 65.3246H123.342C105.902 65.2216 61.6855 25.2929 61.6855 25.2929C61.6855 25.2929 89.9862 61.9633 105.686 86.321C111.152 80.2624 118.277 76.6901 127.64 76.6901L127.645 76.685Z" fill="white"/>
<path d="M87.2481 122.621C80.0108 122.621 74.5545 116.979 74.5545 109.495C74.5545 102.01 79.8924 96.3688 87.2481 96.3688C91.0315 96.3688 94.717 98.6028 96.6216 101.933L103.468 98.6491C100.961 94.2378 96.1892 89.4867 87.2481 89.4867C74.8891 89.4867 66.2568 97.7123 66.2568 109.49C66.2568 121.267 75.0847 129.493 87.2481 129.493C96.0708 129.493 100.884 124.716 103.452 120.274L96.6267 117.046C94.7222 120.376 91.0315 122.616 87.2481 122.616V122.621Z" fill="white"/>
<path d="M164.429 90.6346H148.796V128.355H164.49C176.916 128.355 184.946 120.943 184.946 109.464C184.946 97.9852 176.891 90.6346 164.429 90.6346ZM164.429 121.797H156.677V97.1976H164.485C171.975 97.1976 176.819 102.016 176.819 109.469C176.819 116.923 171.609 121.797 164.429 121.797Z" fill="white"/>
<path d="M127.393 122.621C120.16 122.621 114.704 116.984 114.699 109.505C114.699 101.892 120.037 96.3689 127.393 96.3689C130.996 96.3689 134.496 98.3507 136.524 101.542C136.607 101.671 136.689 101.805 136.761 101.933L143.612 98.6492C142.608 96.8888 141.378 95.3394 139.958 94.0371C136.658 91.0207 132.432 89.4919 127.393 89.4919C120.042 89.4919 113.675 92.5444 109.922 97.8617C107.621 101.125 106.401 105.15 106.401 109.495C106.401 121.087 115.229 129.498 127.393 129.498C136.215 129.498 141.028 124.721 143.597 120.279L136.771 117.051C134.867 120.382 131.181 122.621 127.393 122.621Z" fill="white"/>
</g>
<defs>
<filter id="filter0_d_1111_2008" x="0" y="0.809998" width="249.72" height="184.829" filterUnits="userSpaceOnUse" color-interpolation-filters="sRGB">
<feFlood flood-opacity="0" result="BackgroundImageFix"/>
<feColorMatrix in="SourceAlpha" type="matrix" values="0 0 0 0 0 0 0 0 0 0 0 0 0 0 0 0 0 0 127 0" result="hardAlpha"/>
<feOffset/>
<feGaussianBlur stdDeviation="5"/>
<feComposite in2="hardAlpha" operator="out"/>
<feColorMatrix type="matrix" values="0 0 0 0 1 0 0 0 0 1 0 0 0 0 1 0 0 0 0.5 0"/>
<feBlend mode="normal" in2="BackgroundImageFix" result="effect1_dropShadow_1111_2008"/>
<feBlend mode="normal" in="SourceGraphic" in2="effect1_dropShadow_1111_2008" result="shape"/>
</filter>
<filter id="filter1_d_1111_2008" x="0" y="61.5479" width="249.72" height="122.902" filterUnits="userSpaceOnUse" color-interpolation-filters="sRGB">
<feFlood flood-opacity="0" result="BackgroundImageFix"/>
<feColorMatrix in="SourceAlpha" type="matrix" values="0 0 0 0 0 0 0 0 0 0 0 0 0 0 0 0 0 0 127 0" result="hardAlpha"/>
<feOffset/>
<feGaussianBlur stdDeviation="5"/>
<feComposite in2="hardAlpha" operator="out"/>
<feColorMatrix type="matrix" values="0 0 0 0 1 0 0 0 0 1 0 0 0 0 1 0 0 0 0.25 0"/>
<feBlend mode="normal" in2="BackgroundImageFix" result="effect1_dropShadow_1111_2008"/>
<feBlend mode="normal" in="SourceGraphic" in2="effect1_dropShadow_1111_2008" result="shape"/>
</filter>
</defs>
</svg>
