<?xml version="1.0" encoding="UTF-8"?>
<svg version="1.1" viewBox="0 0 2048 2048" width="1280" height="1280" xmlns="http://www.w3.org/2000/svg">
<path transform="translate(0)" d="m0 0h2048v2048h-2048z" fill="#00BB57"/>
<path transform="translate(586,436)" d="m0 0h234l786 2 4 1v224l-1 378-1 436-5 23-6 16-8 17-12 18-11 13-8 8-17 13-18 11-20 8-15 4-18 3-11 1h-180l-809-2-33-1-1-1v-261l1-344 1-407 2-29 5-21 7-19 8-15 9-13 11-13 12-12 12-9 15-10 17-8 24-7 18-3z" fill="#0338A6"/>
<path transform="translate(1331,653)" d="m0 0h6l1 1v237l-1 337-1 57-5 2-35 6-49 9-145 26-280 50-62 11-43 8h-7l-1-1-1-49v-316l1-230 1-35 9-3 44-8 224-40 57-10 49-9 196-35z" fill="#00BB57"/>
</svg>
