<?xml version="1.0" encoding="UTF-8"?>
<svg version="1.1" viewBox="0 0 900 900" width="1280" height="1280" xmlns="http://www.w3.org/2000/svg">
<path transform="translate(0)" d="m0 0h900v900h-900z" fill="#5ABFBE"/>
<path transform="translate(78,240)" d="m0 0h3l-2 9-2 4-2 12-1 7 3 3 4 6 6 2h5l1 3 6-4 15 2 5 2h9l3 4h7l7 1 6-1 2 4 7 1 13 3h11l4-2 7 1 5 2v2l-2 1v5l6 1 2-1 7 1 3-3 3 1 1 4-1 2 6-1 10 3 2 4 13 4 1 3 6-1 3 6 9 2 13 5 15 4 7 6 7 3 16 8 7 3 8 9h3l4 3 8 1 5 4v4h3l1 4 4-1 4-19 4-18 3-9 2 3 2 139 1 52 6 10 9 6 7 2 11-1 9-4 6-7 5-12 1-98h2l2 3 2-2h4l2 7 3 9 3 8 5 1 3-8 2-16h3l1-9 2-2 2 23 1 84 3 9 4 6 6 5 10 4h9l10-4 6-5 4-7 3-8 1-14 2-1v21l3 7-1 5v8l3 6 3 2 5 1-2 5-2 2-1 4 7 1 2 9 7 8 1 1v7h-2l2 9 1 4 3 1v2l3 1v2l4-1 2 10 2 8 1 6 2 4v5h2l4 8 6 10 6 7 3 7 3 5 1 9 2 13 2 4 2 8-1 8-2 3 1 10 3 5v7l2 12 1 5-1 3 6 10-1 9-1 2h3l2 7 3 1v6l9 1-1 2 7 1 10-1 8-3 6-1v3l-25 13-27 12-18 7-26 8-28 7-27 5-27 3-30 2h-14l-32-2-31-4-33-7-46-12-27-5-20-2h-39l-25 3-24 5-27 8-11 2h-20l-14-3-16-7-14-9-6-5-9-11-8-13-5-14-2-9v-23l6-23 7-26 4-23 2-24-1-30-4-28-7-28-9-30-5-24-5-33-2-26v-38l2-24 5-34 6-27 8-26 14-36 8-16 11-21h5z" fill="#30B6DC"/>
<path transform="translate(0)" d="m0 0h900v900h-900zm425 27-23 2-29 4-25 5-27 7-39 14-27 12-19 10-28 17-16 11-17 13-13 11-12 11-25 25-7 8-13 16-20 28-9 15-10 18-11 22-12 29-10 30-6 25-4 21-4 31-1 15v38l2 26 5 33 5 24 12 41 5 22 3 23 1 30-2 24-4 23-8 30-5 19v23l4 16 8 16 8 10 6 7 14 10 17 8 12 3 5 1h20l14-3 24-7 24-5 25-3h39l26 3 29 6 42 11 29 6 31 4 32 2h14l30-2 27-3 27-5 28-7 20-6 29-11 34-16 23-13 11-7 16-11 11-8 18-14 16-15 8-7 11-11 7-8 12-14 8-10 14-19 12-19 12-21 8-15 11-25 10-28 8-29 6-30 4-32v-66l-3-29-5-28-8-31-11-32-11-25-10-20-13-22-16-24-9-12-11-13-9-11-13-13-5-6-8-7-7-7-11-9-16-13-20-14-21-13-22-12-16-8-26-11-25-9-25-7-32-7-39-5-17-1z" fill="#FDFDFD"/>
<path transform="translate(24,504)" d="m0 0 4 2 5 5 1-4 8 2h3l2-2h10v2l5 2v2l4 1 7 3 8 3 9 1 5 1 2-1 5 1 13-3 1-1h5l4 2h5l4 8v2h6l1 2v-6h4l5 15 1 21 1 46 4 13 5 5 7 4 5 1h13l9-3 8-7 3-9 1-51 3-8 7-6 7-2 3 2h-6v2h-2v2l-5 3-2 5v18l1 6 2-2 2-5h2l2-5 8 1 4 2 2 7 6 4 1 3 4 2 8 7 5 10 10 5 4 6 14 14 5 7v2l3 1 7 8 5 4 5 7 1 5 5 2 3 3 2 7 3 5 4 4 7 14 12 17 5 9v2h2l4 12 5 10 4 20 4 11 1 5 1 9 4 8 2 7 3 5 3 8-1 7-3 8 5-4v9l2 1-1 4-11 1h-10l-8-1-2 2-2-1v2l16 2 5 3-1 3h-8l-27-6-42-11-27-5-20-2h-39l-25 3-24 5-27 8-11 2h-20l-14-3-16-7-14-9-6-5-9-11-8-13-5-14-2-9v-23l6-23 7-26 4-23 2-24-1-30-4-28-7-28-9-30-5-24-2-11v-7z" fill="#4295D1"/>
<path transform="translate(251,352)" d="m0 0h22l20 4 12 5 14 8 12 11 9 14 6 14 4 19 2 19v18l-2 16-4 15-6 14-9 13-11 11-16 9-13 5-21 4h-19l-27-5-9 3-5 6-2 6-1 51-3 9-7 7-6 3-5 1h-13l-9-3-7-5-4-8-1-6v-233l2-8 7-8 7-3 11-1 23 4h12l31-8z" fill="#FDFDFD"/>
<path transform="translate(677,352)" d="m0 0h16l18 4 12 6 9 8 6 9 4 13 1 8v133l-4 9-4 5-7 4-4 1h-16l-8-3-8-7-3-7-1-7v-101l-1-19-6-12-7-6-10-4-10-1-8 2-8 4-7 8-4 10-1 9-1 116-5 10-9 6-6 2h-16l-12-6-5-6-2-9v-148l2-12 6-7 10-5 6-2h11l17 3h19l14-3z" fill="#FDFDFD"/>
<path transform="translate(405,284)" d="m0 0h14l8 4 7 6 5 10v225l-4 10-8 9-13 4-11-1-10-6-6-8-2-4-1-52v-174l3-9 8-9z" fill="#FDFDFD"/>
<path transform="translate(244,385)" d="m0 0h13l12 4 9 7 8 9 7 14 5 19 1 5v20l-4 19-5 12-6 9-7 8-10 6-9 3h-15l-11-4-8-6-5-5-6-8-5-11-4-14-2-14v-9l2-17 5-17 6-11 9-10 10-6z" fill="#30B6DC"/>
<path transform="translate(502,357)" d="m0 0 12 2 8 4 7 8 3 8v150l-4 10-7 8-8 4-4 1h-9l-10-4-8-7-4-8-1-5v-150l5-10 8-7 7-3z" fill="#FDFDFD"/>
<path transform="translate(499,289)" d="m0 0h11l10 5 7 6 4 7 1 5v11l-4 8-10 9-11 4h-7l-12-6-9-11-2-5v-9l3-10 7-8z" fill="#B880B9"/>
<path transform="translate(55,276)" d="m0 0 3 1-12 28h-2l3-10 6-15z" fill="#46A1CD"/>
<path transform="translate(104,195)" d="m0 0h2l1 4-2 1-2 4-6 4-4 4 2-5z" fill="#3DB9D3"/>
<path transform="translate(42,308)" d="m0 0 2 4-5 15h-2l1-8z" fill="#47A0CD"/>
<path transform="translate(115,183)" d="m0 0 2 3-6 7-4 1 3-7 2-2h3z" fill="#39B8D6"/>
<path transform="translate(223,545)" d="m0 0 4 2h-6v2h-2v2l-8 2 4-5z" fill="#45A3CF"/>
</svg>
