<?xml version="1.0" encoding="UTF-8"?>
<svg version="1.1" viewBox="0 0 900 900" width="1280" height="1280" xmlns="http://www.w3.org/2000/svg">
<path transform="translate(0)" d="m0 0h900v900h-900z" fill="#ED1F0E"/>
<path transform="translate(437,326)" d="m0 0h26l17 3 16 5 16 8 11 7 10 8 9 8 11 14 8 14 6 13 5 16 2 11v35l-5 21-7 16-7 13-9 12-10 11-10 8-15 10-15 7-16 5-18 3h-23l-17-3-16-5-17-8-11-7-10-8-12-12-9-12-8-14-6-14-4-14-3-18v-16l3-19 4-15 8-18 8-13 11-13 12-12 15-10 16-8 13-5z" fill="#fff"/>
<path transform="translate(424,204)" d="m0 0h247l-2 5-13 14-7 8-14 15-9 11-9 9-7 8-9 10-11 12-147 1-14 1-18 4-16 5-19 9-17 11-13 11-9 9-9 11-10 15-11 23-5 17-4 18-3-1-9-21-6-23-2-13v-28l3-18 5-19 8-19 8-14 8-11 12-14 9-9 15-11 17-10 19-8 18-5z" fill="#fff"/>
<path transform="translate(603,468)" d="m0 0h2l5 10 6 16 4 15 3 19v27l-3 20-6 20-8 18-7 12-10 14-12 13-12 11-18 12-16 8-19 7-20 4-7 1h-255l2-4 7-7 7-8 9-10 7-8 9-10 12-13 7-8 9-10 7-8 4-5 4-1 150-1 21-3 17-5 15-6 18-10 12-9 13-12 7-7 9-12 8-13 8-16 7-21z" fill="#fff"/>
<path transform="translate(508,690)" d="m0 0 4 1-17 4-21 2-62 1h-131l-30-1h-14l-8-1-1-2 2-3 2 1-2 3 255-1 18-3z" fill="#EF4436"/>
<path transform="translate(595,290)" d="m0 0v3l-5 5-45 1h-104l-21 2-12 3-4-1 14-4 11-2 14-1 147-1z" fill="#EF4436"/>
<path transform="translate(355,329)" d="m0 0 2 1-27 27v-3l15-16z" fill="#EE382A"/>
</svg>
