<?xml version="1.0" encoding="UTF-8"?>
<svg version="1.1" viewBox="0 0 1200 1200" width="1280" height="1280" xmlns="http://www.w3.org/2000/svg">
<path transform="translate(0)" d="m0 0h1200v1200h-1200z" fill="#881294"/>
<path transform="translate(755,519)" d="m0 0h13l10 3 6 4 6 7 5 11 4 16 2 22-1 23-4 25-5 21-7 23-9 21-9 15-10 13-5 6-10 7-12 5-6 1h-9l-12-3-14-7-8-7-3-1-1 15-6 40 14-1 89-11 54-6 26-2h19l10 2 7 4 6 10v13l-3 6-6 4-17 4-26 4-72 9-73 9-36 5-3 12-4 10-4 6-7 6-3 1h-9l-6-4-3-5-1-15 1-6-31 5-50 9-65 13-54 12-6 3-4 8-11 33-11 27-13 27-13 22-10 14-9 11-9 10-13 13-13 9-14 7-15 4h-18l-13-4-10-6-7-6-7-10-5-13-2-13 1-15 5-21 7-19 8-16 10-16 11-14 9-10 9-9 11-9 20-15 19-12 21-11 24-10 4-5 14-43 11-33-8 7-13 12-14 8-8 3-6 1h-9l-10-3-8-6-6-7-4-8-3-11v-18l5-29 6-22 10-30 11-31 2-15v-10l3-6 5-4h11l8 3 6 4 6 9 1 3v8l-4 16-12 41-9 36v16l3 5 5 3 8-1 11-7 9-10 8-13 8-18 16-44 17-51 6-11 8-9 11-7 13-4h7l7 2 3 3v8l-6 26-9 32-7 26-13 46-16 56-7 25-11 39-1 3 35-6 116-19 44-7 3-3 8-40-17 9-10 3h-12l-7-3-6-5-4-7-2-7-4 4-7 11-9 10-10 6-9 3h-18l-10-4-9-6-8-11-5-14-3-15v-33l3-20 5-20 7-21 9-21 8-15 10-14 9-10 10-10 14-8 7-2h17l12 5 10 5 1-6 5-8 5-3h10l10 3 6 5 2 4v11l-13 59-10 48-2 20v13l2 3h6l11-6 5-6 4-15 12-63 14-72 4-8 3-3h11l12 3 6 4 1 7-1 6 5-5 14-15 10-6z" fill="#FEFEFE"/>
<path transform="translate(633,138)" d="m0 0h11l19 2 22 5 16 6 16 8 12 7 12 9 13 12 9 11 8 11 6 11 10 21 6 19 3 14 1 9v27l-4 23-5 17-7 16-6 11-8 12-9 11-12 13-14 11-10 7-14 8-18 8-18 5-15 3-11 1h-30l-15-2-22-6h-6l-14 8-18 12-18 11-8 1-3-3-1-3 1-19 4-28v-16l-5-10-8-10-10-15-8-16-6-16-4-16-2-13v-34l3-18 5-17 7-17 10-17 9-12 9-10 12-12 13-10 18-11 21-9 21-6 16-3z" fill="#04DFC6"/>
<path transform="translate(893,499)" d="m0 0h23l11 4 9 6 6 8 4 9 1 4v15l-4 17-7 16-8 14-11 13-11 10-14 9-18 8-21 5-4 8-2 10v14l3 8 4 5 5 2h10l12-4 11-7 14-12 15-15 3-2h5l7 10 4 10v11l-5 9-17 17-14 11-14 9-11 5-15 5-5 1h-17l-13-4-9-7-7-8-6-14-3-16-1-8v-31l3-18 7-25 8-21 12-25 10-15 8-10 9-10 12-11 14-8z" fill="#FEFEFE"/>
<path transform="translate(587,240)" d="m0 0h19l14 4 10 5 7 7 5 10 2 9-1 8-4 5-2 1h-7l-5-5-5-16-5-6-11-5-10-1-10 3-8 6-3 6v6l4 6 7 6 21 9 20 9 9 6 8 8 4 10 1 5v9l-5 12-9 10-12 6-14 3h-11l-16-3-11-6-8-7-5-7-5-13-1-4v-8l3-5 4-2h7l5 5 4 15 5 9 7 5 8 2h15l10-3 5-5 2-4v-9l-6-10-11-7-27-12-14-8-8-8-4-8-1-3v-13l4-11 9-9 11-5z" fill="#960CA9"/>
<path transform="translate(745,564)" d="m0 0 5 1 5 5 3 6 2 10v17l-3 19-5 19-10 28-7 13-8 10-8 6-8 3h-11l-7-3-4-4 5-25 10-40 9-27 8-17 10-13 10-7z" fill="#881194"/>
<path transform="translate(587,581)" d="m0 0h9l5 4 2 5v8l-7 26-16 50-6 17-6 11-6 7-7 4h-8l-6-4-5-8-4-12v-21l4-22 7-19 8-16 8-11 9-9 11-7z" fill="#881194"/>
<path transform="translate(358,891)" d="m0 0h2l-1 5-8 22-12 26-12 22-11 16-11 14-11 11-11 7-5 2h-6l-6-4-2-3v-14l5-17 9-17 12-17 12-14 10-10 17-13 20-12z" fill="#881194"/>
<path transform="translate(725,239)" d="m0 0h6l5 4 1 6-5 12-13 23-10 18-6 11-17 32-11 20-6 8-5 1-7-3-2-3 1-7 5-12 11-19 6-12 12-21 9-17 13-23 6-11 5-6z" fill="#950CA8"/>
<path transform="translate(1199,1124)" d="m0 0h1v76h-77l2-2 15-4 17-8 12-9 10-10 9-14 7-16z"/>
<path transform="translate(0,1123)" d="m0 0 2 4 5 16 7 14 8 11 11 11 15 10 15 6 14 4v1h-77z"/>
<path transform="translate(1125)" d="m0 0h75v77l-2-4-5-16-8-16-11-14-12-10-16-9-21-7z"/>
<path transform="translate(0)" d="m0 0h75l-3 2-16 5-14 7-14 11-9 10-8 13-4 8-6 19h-1z"/>
<path transform="translate(899,538)" d="m0 0 6 1 4 4 1 3v7l-4 11-6 10-5 6-14 10-10 5-11 3 1-7 8-19 7-13 10-13 8-6z" fill="#881194"/>
<path transform="translate(661,134)" d="m0 0 16 2 8 2 7 1 2 1v2h6l6 3 5 2 8 4v2l5 1 2 1v2l6 1 2 4 5 1-1 3 5 1 6 5v2l4 1 2 4 4 3v2h2v2h2l6 8 2 1v3l2 1v3l3 1 12 24 3 12 1 7 2 5v7l-1-2h-2l-5-15-12-25-9-14-8-10-11-12-14-11-13-8-16-8-13-5-13-4v-2l-7-1-16-3 4-3z" fill="#950CA8"/>
<path transform="translate(476,340)" d="m0 0 4 4 7 18 7 14 8 12 12 16 2 4v14l-2-4v-2h-2l-5-8-4-5v-3l-3-1-6-9v-2h-2l-1-4h-2l-7-14 1-3h-2v-2h-2l-1-9-3-8z" fill="#950CA8"/>
<path transform="translate(807,578)" d="m0 0 4 2v16l-2 3v8l1 2-2 4-5 2h-4v-10l2-13 4-10z" fill="#970CAB"/>
<path transform="translate(531,166)" d="m0 0h4v4h-2l-2 4-6 5h-2l-1 3-8 7-3 4h-2l-2 4-5 6-3 1-1-2 6-11 12-13h2v-2l5-4h2v-2l4-1v-2z" fill="#980CAC"/>
<path transform="translate(848,659)" d="m0 0h2l3 11 5 3 1 4h9l3 3-1 3-2 1h-12l-6-5-2-3-1-13z" fill="#960CA9"/>
<path transform="translate(919,493)" d="m0 0 9 1 9 7 5 6v2h2l-1 5-3-1-3-4v-2l-4-1-17-6v-5z" fill="#960CA9"/>
<path transform="translate(625,334)" d="m0 0 3 3v7l-2 5-1 7-4 4-9 2h-14l-7-2-6-3 3-1 5 1h15l10-3 5-5 2-4z" fill="#881294"/>
<path transform="translate(807,612)" d="m0 0h3l-2 10-1 4h-2l-1 6-4 2h-4v-9l2-12 4 2z" fill="#881194"/>
<path transform="translate(872,579)" d="m0 0 4 3v2h2v3h-2l-1 6-10 4-5 1 1-7 2-5 4-1 2-4h3z" fill="#950DA7"/>
<path transform="translate(933,687)" d="m0 0 1 4-2 4-8 7h-2v2l-4 4-5 3-5 2-3-1v-2l10-8 8-7 5-3z" fill="#950CA8"/>
<path transform="translate(642,353)" d="m0 0 1 2-6 8-7 6-13 5-10 2h-11l-16-3-8-4 3-1 11 4 7 1h14v-2l18-2 9-6z" fill="#881294"/>
<path transform="translate(473,261)" d="m0 0h2v7l-3 16-1 30-2-4-1-15-1-1-1-9 4-8 1-12z" fill="#980CAC"/>
<path transform="translate(921,600)" d="m0 0h5l-2 4-11 12-8 4-1-3 5-6 8-7z" fill="#960CA9"/>
<path transform="translate(899,538)" d="m0 0 6 1 4 4v9l-2 1-3-3v-2h-2l-6-6z" fill="#960CA9"/>
<path transform="translate(693,688)" d="m0 0 5 1v2l5 1v2l3 1h-2v4l-3 1-10-5-1-4z" fill="#980CAC"/>
<path transform="translate(799,621)" d="m0 0h5l1 2v7l-3 3-6 1v-9l4-1z" fill="#970CAA"/>
<path transform="translate(769,387)" d="m0 0 2 1 3-1-2 6-6 7h-2v2h-2l-1-7 6-7z" fill="#950DA7"/>
<path transform="translate(626,689)" d="m0 0 8 3v5l-8 1-1-1v-7z" fill="#970CAB"/>
<path transform="translate(1161,19)" d="m0 0h5l11 10 2 5-6-4-4-4-4-2-1-3h-3z" fill="#A125B2"/>
<path transform="translate(750,413)" d="m0 0 2 1-2 5h-3v3l-5 1v2l-4-1 2-4 3 1 1-6 1 2h2v-2h3z" fill="#980CAC"/>
<path transform="translate(782,520)" d="m0 0 4 1 2 2 4 5-1 2-5-1-5-6z" fill="#950DA8"/>
<path transform="translate(497,207)" d="m0 0v3l-5 10-2 3h-2l1-8 2-3h2l2-4z" fill="#970CAB"/>
<path transform="translate(677,724)" d="m0 0 4 1 4 3 1 4-3 1-5-1-1-2z" fill="#910EA1"/>
<path transform="translate(667,339)" d="m0 0 1 2-1 9-3 3-3-1 1-5z" fill="#881194"/>
</svg>
