<svg width="50" height="37" viewBox="0 0 50 37" fill="none" xmlns="http://www.w3.org/2000/svg">
<path d="M0.0770149 29.5057H2.50423V0H47.4782V24.9893H46.0086V1.49174H4.05687V29.5029H22.7439V30.9782H27.2551V29.555H49.9718C50.0521 30.4627 49.9718 31.3566 49.7006 32.2314C48.8288 35.0366 46.2411 36.9835 43.2603 36.9863C31.0911 37.0027 18.9218 37.0082 6.74977 36.9863C2.80036 36.9781 -0.249565 33.6409 0.0161271 29.7223C0.0188947 29.6757 0.0410357 29.6291 0.0742473 29.5084L0.0770149 29.5057ZM1.59921 31.0385C2.02543 33.7039 4.21185 35.4946 7.00439 35.4946C19.0076 35.4973 31.0108 35.4973 43.014 35.4891C43.5288 35.4891 44.0547 35.4287 44.5556 35.3081C46.5787 34.82 48.2781 32.9169 48.3888 31.055H28.758V32.4672H21.23V31.0358H1.59921V31.0385Z" fill="white"/>
<path d="M26.4283 13.5434C27.4939 12.1751 28.3823 12.0051 29.9266 12.8058C31.1499 11.5032 31.8805 11.3524 33.3695 12.123C33.4443 12.027 33.519 11.9255 33.5992 11.8268C34.4323 10.7793 35.9185 10.6312 36.8789 11.5581C38.7387 13.3542 40.5681 15.1832 42.4003 17.0068C42.5332 17.1384 42.6217 17.3358 42.6798 17.5195C43.2776 19.4363 43.8589 21.3586 44.465 23.2726C44.5618 23.5797 44.5286 23.7826 44.2878 24.0157C43.0092 25.2607 41.7527 26.5303 40.4713 27.7725C40.3274 27.9123 40.0672 28.022 39.8679 28.0083C37.4435 27.8657 35.019 27.7094 32.5974 27.5312C32.2376 27.5038 31.8833 27.3667 31.5346 27.257C29.5391 26.6372 27.5437 26.023 25.5565 25.3786C24.5104 25.0386 23.9181 24.1199 24.0094 23.0834C24.0952 22.088 24.8674 21.2571 25.908 21.12C26.2595 21.0734 26.6387 21.1557 26.9929 21.2297C27.397 21.312 27.7872 21.4518 28.1858 21.567C28.2273 21.5176 28.2688 21.4683 28.3103 21.4189C28.1553 21.3202 27.9754 21.2434 27.8453 21.1145C25.825 19.1237 23.8129 17.1247 21.7981 15.1284C21.1532 14.4867 20.9124 13.7217 21.2003 12.8496C21.4715 12.027 22.0638 11.517 22.9245 11.3524C23.6884 11.2071 24.3498 11.4484 24.8978 11.9831C25.4098 12.4849 25.9025 13.006 26.4311 13.5462L26.4283 13.5434ZM31.4128 20.7197C31.2966 20.5414 31.2191 20.3632 31.0918 20.2343C28.7614 17.9172 26.4256 15.6028 24.0897 13.2911C23.9707 13.1732 23.8572 13.0471 23.7216 12.9511C23.4005 12.729 23.0823 12.7729 22.8138 13.0416C22.5564 13.2966 22.5315 13.6037 22.7363 13.9026C22.8387 14.0507 22.9771 14.1769 23.1072 14.3057C25.6672 16.8422 28.2273 19.3815 30.7873 21.918C31.5401 22.6638 31.5291 22.6584 31.0004 23.566C30.8455 23.8348 30.7015 23.8896 30.4026 23.7964C29.207 23.4234 28.0003 23.0779 26.7964 22.7242C26.7494 22.7105 26.7023 22.6885 26.6553 22.6748C26.063 22.5048 25.6783 22.6501 25.5427 23.0916C25.4154 23.5029 25.6561 23.8402 26.2152 24.0185C27.7457 24.5038 29.2762 24.9837 30.8067 25.4636C31.4599 25.6665 32.1075 25.9709 32.7745 26.0312C34.9415 26.2314 37.1197 26.3438 39.295 26.4727C39.4832 26.4837 39.7268 26.3987 39.8624 26.2725C40.7896 25.3841 41.689 24.4654 42.6134 23.5715C42.8238 23.3658 42.8597 23.1849 42.7739 22.9134C42.2813 21.3641 41.8053 19.8093 41.3182 18.2572C41.2711 18.1036 41.1992 17.9391 41.0885 17.8294C39.3642 16.1101 37.6345 14.3935 35.8964 12.6851C35.5809 12.3753 35.1325 12.3807 34.8668 12.6741C34.5735 12.9977 34.5984 13.335 34.8834 13.6558C34.9941 13.7792 35.1187 13.8917 35.2349 14.0096C35.7884 14.5608 36.342 15.1092 36.9259 15.6933C36.5495 16.0415 36.1981 16.3624 35.8189 16.7106C35.0855 15.9785 34.3797 15.2682 33.6712 14.5635C33.2699 14.1631 32.8741 13.7546 32.4562 13.3707C32.1407 13.08 31.7864 13.0827 31.4626 13.3652C31.172 13.6175 31.172 14.0178 31.4488 14.3441C31.5567 14.4703 31.6813 14.5827 31.8003 14.7006C32.7828 15.6741 33.7653 16.6475 34.781 17.6539C34.4129 17.9939 34.0642 18.3175 33.674 18.6822C33.2035 18.2106 32.7607 17.7636 32.3123 17.3194C31.2219 16.239 30.1369 15.1531 29.0354 14.0809C28.6784 13.7326 28.2688 13.7381 27.9699 14.0507C27.6931 14.3441 27.7153 14.7225 28.0391 15.0735C28.1166 15.1585 28.2051 15.2381 28.2882 15.3203C29.6028 16.6229 30.9202 17.9281 32.2348 19.2334C32.3593 19.3568 32.4756 19.4857 32.614 19.6283C32.2265 19.982 31.8861 20.2946 31.4211 20.7169L31.4128 20.7197Z" fill="#00EADF"/>
<path d="M5.56055 27.992V2.97803H7.02462V26.5167H26.2652V27.992H5.56055Z" fill="white"/>
<path d="M44.4641 2.98877V15.8632H42.9779V4.45857H11.5957V2.98877H44.4641Z" fill="white"/>
<path d="M24.0689 10.1761H22.627V6.86084H24.0689V10.1761Z" fill="#00EADF"/>
<path d="M16.584 14.2536V12.8276H19.9328V14.2536H16.584Z" fill="#00EADF"/>
<path d="M18.0781 9.29336C18.3992 8.97801 18.7257 8.65444 19.0191 8.36377C19.8051 9.14529 20.5911 9.92406 21.3882 10.7165C21.1031 10.9962 20.7627 11.3335 20.4444 11.6489C19.6584 10.8674 18.8835 10.0941 18.0781 9.29336Z" fill="#00EADF"/>
<path d="M26.22 11.6185C25.9183 11.325 25.5723 10.9932 25.2402 10.6724C26.0345 9.88541 26.815 9.11212 27.6204 8.31689C27.9304 8.64595 28.2542 8.99421 28.5476 9.30407C27.7865 10.0609 27.0004 10.8397 26.22 11.6185Z" fill="#00EADF"/>
<path d="M18.1777 17.6979C18.8724 17.0097 19.6473 16.2419 20.4278 15.4658C20.735 15.7867 21.0616 16.1294 21.3633 16.4448C20.6243 17.1797 19.8466 17.9475 19.0385 18.7509C18.7811 18.4356 18.4794 18.0681 18.1777 17.6979Z" fill="#00EADF"/>
<path d="M46.0312 27.9973V26.5659H47.4649V27.9973H46.0312Z" fill="white"/>
</svg>
