<svg width="50" height="50" viewBox="0 0 50 50" fill="none" xmlns="http://www.w3.org/2000/svg">
<path d="M28.6519 0C28.8473 0.161708 29.0616 0.307244 29.2381 0.488357C32.3366 3.66106 35.4319 6.84023 38.5335 10.0097C38.8644 10.3461 39.0031 10.7083 39 11.1805C38.9873 13.1824 38.9968 15.1843 38.9905 17.1863C38.9905 17.3803 38.981 17.5809 38.9275 17.7652C38.8108 18.1565 38.5145 18.3506 38.1331 18.3279C37.7549 18.3053 37.4744 18.0886 37.3987 17.6811C37.364 17.4903 37.3672 17.293 37.3672 17.099C37.3672 15.2587 37.3767 13.4217 37.3546 11.5815C37.3546 11.3519 37.2411 11.0673 37.0835 10.9056C34.1994 7.92367 31.3059 4.95472 28.3997 1.99871C28.2232 1.81759 27.9174 1.67853 27.6716 1.67529C20.9767 1.65912 14.2818 1.66235 7.58691 1.66235C6.76739 1.66235 6.49316 1.93726 6.49001 2.7652C6.48686 3.47995 6.49001 4.1947 6.49001 4.9903H7.06368C12.4253 4.9903 17.7869 4.99677 23.1484 4.98059C23.6654 4.98059 24.0468 5.1423 24.4092 5.51746C27.473 8.68047 30.5462 11.8338 33.6289 14.9806C33.9725 15.3299 34.1332 15.6953 34.1143 16.1869C34.0891 16.9502 34.1143 17.7167 34.1049 18.4832C34.0986 19.0912 33.8117 19.4308 33.3232 19.4437C32.8157 19.4567 32.4973 19.0977 32.4847 18.4799C32.4721 17.8978 32.4847 17.3157 32.4847 16.6721C32.2672 16.6721 32.1002 16.6721 31.93 16.6721C29.774 16.6721 27.6149 16.6721 25.4589 16.6721C23.7316 16.6721 22.7513 15.6565 22.7481 13.881C22.7481 11.6688 22.7481 9.45343 22.7481 7.24127C22.7481 7.06662 22.7481 6.88875 22.7481 6.65589C22.5338 6.65589 22.3667 6.65589 22.1965 6.65589C15.7254 6.65589 9.25118 6.65589 2.78008 6.65589C1.8723 6.65589 1.62329 6.91138 1.62329 7.84605C1.62329 20.9476 1.62329 34.0524 1.62329 47.1539C1.62329 48.0854 1.86915 48.3376 2.78323 48.3376C10.304 48.3376 17.8215 48.3376 25.3422 48.3376C26.1523 48.3376 26.5526 48.6158 26.5495 49.1721C26.5463 49.7251 26.1429 50 25.3328 50C17.8121 50 10.2945 50 2.77378 50C0.96767 50 0.00315202 49.0168 0.00315202 47.1798C0 34.0686 0 20.9476 0 7.82988C0 5.98965 0.970822 4.99677 2.76117 4.99353C3.44201 4.99353 4.11969 4.99353 4.86672 4.99353C4.86672 4.33376 4.86672 3.7031 4.86672 3.07568C4.86672 1.29366 5.26703 0.675938 6.85249 0C14.1179 0 21.3833 0 28.6519 0ZM24.3683 8.00776V8.39909C24.3683 10.2232 24.3683 12.044 24.3683 13.868C24.3683 14.738 24.6267 15.0065 25.4746 15.0065C27.2681 15.0065 29.0585 15.0065 30.852 15.0065C30.9718 15.0065 31.0915 14.9935 31.1892 14.9871C28.9135 12.6585 26.6503 10.3428 24.3683 8.00776Z" fill="white"/>
<path d="M49.9969 47.1625C49.8716 47.5086 49.7839 47.8773 49.6179 48.2007C49.0353 49.3229 48.1081 49.9729 46.8772 49.9794C41.9627 50.0085 37.0452 50.0052 32.1307 49.9794C30.4362 49.9729 29.033 48.5241 29.0204 46.7551C28.9891 42.8193 28.9985 38.8802 29.0173 34.9444C29.0236 33.8772 29.4715 32.9878 30.3109 32.354C30.5646 32.1632 30.6179 31.9627 30.6273 31.6651C30.668 30.2519 30.5959 28.8192 30.8152 27.435C31.4886 23.1629 35.2222 20.013 39.4726 20C43.7293 19.9871 47.4817 23.1015 48.1833 27.3704C48.412 28.7675 48.3399 30.2195 48.3806 31.6457C48.39 31.9627 48.4496 32.1761 48.7252 32.3702C49.4331 32.8714 49.7651 33.6411 50 34.4658V47.1625H49.9969ZM39.5447 48.33C41.8782 48.33 44.2085 48.33 46.542 48.33C47.7417 48.33 48.3838 47.667 48.3838 46.4317C48.3838 42.7061 48.3838 38.9772 48.3838 35.2517C48.3838 33.9807 47.7511 33.3177 46.5264 33.3177C41.8468 33.3177 37.1642 33.3177 32.4847 33.3177C31.2568 33.3177 30.6179 33.9775 30.6179 35.242C30.6179 38.9675 30.6179 42.6964 30.6179 46.422C30.6179 47.6573 31.2631 48.3268 32.4533 48.3268C34.8182 48.3268 37.183 48.33 39.5447 48.33ZM35.5542 31.6134H43.4913C43.4913 30.5882 43.5758 29.5889 43.4725 28.6122C43.2595 26.5877 41.6119 25.0677 39.6825 24.9966C37.6967 24.9222 35.8988 26.2837 35.5824 28.2921C35.4133 29.3625 35.5542 30.488 35.5542 31.6134ZM33.8472 31.636C33.8472 30.7661 33.8315 29.9414 33.8472 29.1135C33.9098 26.1479 35.9301 23.8097 38.7961 23.3667C41.3739 22.9689 43.983 24.6667 44.8569 27.2992C45.2296 28.4214 45.1513 29.5792 45.1576 30.7305C45.1576 31.0313 45.1576 31.332 45.1576 31.6166H46.7644C46.7644 30.6755 46.7926 29.7668 46.7582 28.8612C46.6203 24.9319 43.4725 21.7302 39.7107 21.6688C35.8017 21.6041 32.6789 24.4371 32.2873 28.4764C32.1871 29.5145 32.2717 30.572 32.2717 31.636H33.8472Z" fill="#00EADF"/>
<path d="M11.9442 27.9989C6.92346 27.9196 2.93418 23.8383 3.00082 18.8493C3.06747 13.9048 7.17736 9.91874 12.1283 10.0013C17.1077 10.0838 21.0843 14.1682 20.9986 19.1032C20.9098 24.0509 16.8158 28.0751 11.9474 27.9989H11.9442ZM8.84988 20.7821C7.28526 18.697 7.89778 16.3898 9.23389 15.1775C10.735 13.816 12.9661 13.7303 14.5466 14.9839C16.3016 16.3771 16.5333 18.4368 15.2956 20.5917C15.7399 21.1185 16.1842 21.5818 16.546 22.1023C16.9173 22.6323 17.2061 23.2194 17.5235 23.7748C19.6689 21.6295 20.329 17.1261 17.3648 13.9524C14.5275 10.9121 9.64012 10.8613 6.74257 13.8445C3.7149 16.9579 4.24807 21.5057 6.53628 23.8415C6.9679 22.5625 7.72957 21.5469 8.84988 20.7821ZM11.9125 26.3518C13.3374 26.3518 14.5783 26.0059 15.7399 25.3394C15.9874 25.1966 16.0731 25.0379 16.0096 24.7618C15.7399 23.5844 15.1179 22.6545 14.0642 22.0452C13.9023 21.9532 13.6326 21.9373 13.4549 22.0008C12.4805 22.3499 11.5284 22.3499 10.551 22.0039C10.3605 21.9373 10.0749 21.9627 9.90036 22.0642C8.88479 22.6609 8.27862 23.5654 7.99934 24.7047C7.92317 25.0221 8.0152 25.1966 8.29766 25.3553C9.44652 26.0059 10.6747 26.3486 11.9093 26.3486L11.9125 26.3518ZM12.014 15.7392C10.6652 15.7328 9.57347 16.7992 9.54808 18.148C9.52269 19.4936 10.6398 20.6329 11.9918 20.6393C13.3406 20.6456 14.4641 19.519 14.4577 18.1702C14.4482 16.8277 13.3628 15.7455 12.014 15.7392Z" fill="#00EADF"/>
<path d="M13.5219 31.9955C10.436 31.9955 7.35331 31.9955 4.2674 31.9955C4.08799 31.9955 3.90531 32.0013 3.7259 31.9878C3.29204 31.9548 3.04413 31.7901 3.00498 31.544C2.96584 31.3076 3.1583 31.1216 3.54649 31.046C3.75852 31.0053 3.99665 31.0015 4.22499 31.0015C10.4131 30.9995 16.598 31.0015 22.7861 31.0015C22.9329 31.0015 23.083 30.9956 23.2297 31.0073C23.7093 31.0441 24.0126 31.2495 23.9996 31.5188C23.9865 31.7921 23.6701 31.9839 23.1776 31.9936C22.5708 32.0052 21.9641 31.9975 21.3573 31.9975C18.7477 31.9975 16.138 31.9975 13.5284 31.9975L13.5219 31.9955Z" fill="white"/>
<path d="M13.5511 35.0017C16.6931 35.0017 19.8351 34.994 22.977 35.0133C23.2517 35.0133 23.6146 35.0942 23.7781 35.31C23.9514 35.5373 24.0462 35.9996 23.9775 36.2963C23.9154 36.566 23.6048 36.7857 23.3628 36.9475C23.2255 37.04 23.0097 36.9822 22.8299 36.9822C16.6277 36.9822 10.4288 36.9822 4.22655 36.9822C4.14481 36.9822 4.06307 36.9822 3.98133 36.9822C3.37975 36.9629 2.98414 36.5506 3.00049 35.9573C3.01684 35.3793 3.39283 35.0017 3.9846 35.0017C7.17562 34.9979 10.3666 35.0017 13.5577 35.0017H13.5511Z" fill="white"/>
<path d="M13.5343 40.0006C16.5878 40.0006 19.6381 40.0006 22.6916 40.0006C22.871 40.0006 23.0537 39.9967 23.2331 40.0084C23.6964 40.0374 23.9932 40.2253 23.9998 40.4867C24.0095 40.7482 23.729 40.9438 23.269 40.9864C23.1091 41.0019 22.9428 40.9999 22.7797 40.9999C16.5943 40.9999 10.4057 40.9999 4.22043 40.9999C4.13887 40.9999 4.05731 40.9999 3.97575 40.9999C3.38528 40.9844 3.01338 40.7985 3.00033 40.51C2.98728 40.2098 3.3657 40.0045 3.98554 40.0026C7.16955 39.9987 10.3536 40.0026 13.5376 40.0026L13.5343 40.0006Z" fill="white"/>
<path d="M8.49038 43.9983C7.00538 43.9983 5.52038 43.9983 4.03538 43.9983C3.39473 43.9983 3.01691 43.8179 3.00048 43.5193C2.98406 43.2128 3.38816 43.0015 4.0321 43.0015C7.01853 42.9995 10.005 42.9995 12.9947 43.0015C13.6189 43.0015 14 43.1993 14 43.5037C14 43.8121 13.6353 43.9983 12.998 43.9983C11.4965 44.0022 9.9951 43.9983 8.49367 43.9983H8.49038Z" fill="white"/>
<path d="M41.9995 39.993C42.0112 40.6312 41.8041 41.1965 41.4656 41.7298C41.3577 41.9017 41.2847 42.1261 41.2731 42.3301C41.2351 42.9274 41.2847 43.5365 41.206 44.128C41.0543 45.2645 40.0711 46.0338 38.9099 45.9989C37.81 45.9639 36.8881 45.1334 36.7801 44.0319C36.7276 43.5073 36.7772 42.977 36.7334 42.4525C36.713 42.1902 36.643 41.9046 36.503 41.689C35.8027 40.6079 35.829 39.2062 36.6109 38.1892C37.3899 37.1722 38.7232 36.7526 39.9164 37.146C41.1768 37.5627 41.9995 38.6817 41.9995 39.993ZM38.2535 42.7031C38.2535 43.012 38.2476 43.3179 38.2535 43.6268C38.268 44.1776 38.5248 44.4836 38.977 44.4952C39.4467 44.5098 39.7443 44.1892 39.756 43.6326C39.7676 43.0469 39.7268 42.4583 39.7735 41.8755C39.7968 41.5928 39.9106 41.2752 40.0856 41.0566C40.6371 40.3631 40.6429 39.4918 40.039 38.9177C39.4584 38.367 38.554 38.364 37.9675 38.9177C37.3578 39.4918 37.3607 40.366 37.915 41.0537C38.093 41.2752 38.1834 41.587 38.2418 41.8726C38.2972 42.1407 38.2535 42.4262 38.2535 42.706V42.7031Z" fill="#00EADF"/>
</svg>
