<svg width="50" height="50" viewBox="0 0 50 50" fill="none" xmlns="http://www.w3.org/2000/svg">
<path d="M9.85672 49.9943C9.28242 49.7264 8.96213 49.2515 8.68603 48.6964C5.91391 43.1238 3.12522 37.5568 0.342054 31.9869C-0.290232 30.725 -0.0693462 30.0705 1.20075 29.4354C2.07325 28.9991 2.94851 28.571 3.81549 28.1264C5.12148 27.4526 6.44403 27.3588 7.81629 27.9331C7.95434 27.9911 8.2194 27.9138 8.34917 27.8089C9.62203 26.7706 10.8038 25.6025 12.1512 24.6802C15.6495 22.2832 20.6166 22.54 23.9327 25.1717C25.0942 26.0922 26.414 26.5524 27.8921 26.5524C29.7641 26.5524 31.6361 26.5607 33.5081 26.5524C35.6535 26.5414 37.1886 27.4554 38.0114 29.474C38.0225 29.5016 38.0556 29.5182 38.2047 29.6728C38.2958 29.5237 38.3621 29.3553 38.478 29.2283C39.7371 27.8641 40.9906 26.4972 42.2718 25.1524C43.9781 23.3574 46.2891 23.1255 48.2605 24.5421C49.1109 25.1551 49.6328 26.0001 49.8785 27.0191C49.9117 27.1572 49.9586 27.2925 50 27.4306V28.5048C49.804 29.532 49.318 30.4074 48.6885 31.2386C46.5542 34.0497 44.442 36.8774 42.3325 39.7079C40.1264 42.6709 37.1859 44.14 33.4971 44.1373C28.0633 44.1317 22.6295 44.1373 17.1957 44.1373H16.6241C16.5993 44.2256 16.5799 44.2698 16.5772 44.3168C16.4861 46.2663 15.4976 47.5946 13.7581 48.423C12.7062 48.9228 11.679 49.4724 10.6381 49.9998H9.85672V49.9943ZM10.0666 30.1865C10.1135 30.3052 10.1384 30.3853 10.1742 30.4571C11.911 33.931 13.6532 37.4049 15.3761 40.8843C15.5252 41.1853 15.7157 41.2074 15.9918 41.2074C20.7271 41.2019 25.4651 41.2046 30.2003 41.2046C31.4704 41.2046 32.7405 41.2322 34.0079 41.1936C36.2029 41.1245 38.0777 40.2933 39.461 38.5785C40.8498 36.8581 42.142 35.0604 43.4728 33.2931C44.5607 31.8516 45.6513 30.4129 46.7198 28.9549C47.4129 28.0105 46.9766 26.8148 45.8777 26.5856C45.2537 26.4558 44.7816 26.7347 44.3702 27.182C42.3463 29.3663 40.3086 31.5396 38.2848 33.7239C37.3819 34.7014 36.294 35.3145 34.9549 35.3283C32.0917 35.3586 29.2257 35.3476 26.3624 35.3338C25.6805 35.331 25.1338 34.8561 24.9847 34.2265C24.7582 33.2572 25.4375 32.4205 26.4839 32.415C28.8916 32.4039 31.302 32.4067 33.7097 32.415C34.3696 32.415 34.8886 32.1858 35.1896 31.5782C35.6811 30.5896 34.9632 29.4961 33.8035 29.4851C31.7852 29.4713 29.7613 29.3774 27.7513 29.5099C25.5755 29.6535 23.8416 28.9493 22.1822 27.5659C20.0258 25.7709 17.5049 25.4975 14.8846 26.5193C12.9298 27.2814 11.668 28.9604 10.0666 30.1865ZM3.42065 31.5948C5.92495 36.6041 8.4044 41.5636 10.9032 46.5563C11.4443 46.2857 11.9386 46.0427 12.43 45.7969C13.7084 45.159 13.9265 44.5128 13.297 43.2508C12.3334 41.3178 11.367 39.3848 10.4034 37.4546C9.40114 35.4498 8.4044 33.4422 7.3966 31.4402C6.99349 30.6366 6.30598 30.2804 5.56601 30.5703C4.84537 30.852 4.16614 31.2331 3.42341 31.5948H3.42065Z" fill="white"/>
<path d="M22.2414 10.006C19.5825 7.05124 20.5047 3.38129 22.6473 1.4897C24.8617 -0.465396 28.1391 -0.506818 30.3645 1.42895C32.4408 3.23493 33.4735 6.90212 30.8449 9.98389C31.2481 10.2766 31.6705 10.5472 32.0515 10.8648C34.2245 12.668 35.282 15.007 35.3483 17.8153C35.3565 18.2378 35.3538 18.6631 35.3483 19.0856C35.3372 20.099 34.7519 20.69 33.733 20.6928C30.2651 20.6983 26.8 20.6928 23.3321 20.6928C21.9985 20.6928 20.6621 20.6955 19.3285 20.6928C18.2489 20.69 17.6829 20.1129 17.6719 19.0304C17.6553 17.5944 17.6939 16.1695 18.2075 14.7971C18.9143 12.9055 20.1044 11.406 21.7997 10.3097C21.9488 10.2131 22.0951 10.1109 22.2442 10.0087L22.2414 10.006ZM32.4298 17.738C32.3111 15.4792 31.3889 13.7146 29.4451 12.599C27.3853 11.4143 25.2897 11.5165 23.3155 12.8144C21.5788 13.9576 20.6842 15.6172 20.5986 17.738H32.4298ZM26.5653 8.86827C28.1584 8.86827 29.481 7.54002 29.4865 5.94391C29.4893 4.31742 28.1115 2.90356 26.5377 2.91737C24.9583 2.93117 23.5529 4.34227 23.5364 5.92458C23.5226 7.4986 24.9335 8.87103 26.5653 8.86827Z" fill="#00EADF"/>
</svg>
