<svg width="51" height="45" viewBox="0 0 51 45" fill="none" xmlns="http://www.w3.org/2000/svg">
<path d="M13.8661 25.7039C13.8713 25.7069 13.8765 25.7099 13.8809 25.7136C13.872 25.7076 13.8624 25.7017 13.8535 25.6973C13.858 25.6987 13.8617 25.7017 13.8661 25.7039Z" fill="white"/>
<path d="M13.8809 25.7136C13.872 25.7076 13.8624 25.7017 13.8535 25.6973C13.858 25.6987 13.8617 25.7017 13.8661 25.7039C13.8713 25.7069 13.8765 25.7099 13.8809 25.7136Z" fill="white"/>
<path d="M49.0293 2.31885H25.3065C24.63 2.31885 24.0801 2.8695 24.0801 3.54603V4.91602C24.0801 5.59255 24.63 6.14246 25.3065 6.14246H25.5517V21.4413C25.5517 22.1179 26.1023 22.6678 26.7788 22.6678H36.5352V23.7337C35.6209 24.0422 34.9613 24.9072 34.9613 25.9231C34.9613 27.1966 35.9978 28.2332 37.2713 28.2332C38.5449 28.2332 39.5807 27.1966 39.5807 25.9231C39.5807 24.9072 38.9211 24.0422 38.0075 23.7337V22.6678H47.557C48.2335 22.6678 48.7841 22.1179 48.7841 21.4413V6.14246H49.0293C49.7058 6.14246 50.2557 5.59255 50.2557 4.91602V3.54603C50.2557 2.8695 49.7058 2.31885 49.0293 2.31885ZM25.5524 3.79117H48.7834V4.67014H25.5524V3.79117ZM38.1083 25.9231C38.1083 26.3847 37.7329 26.7608 37.2713 26.7608C36.8098 26.7608 36.4336 26.3847 36.4336 25.9231C36.4336 25.4615 36.8098 25.0861 37.2713 25.0861C37.7329 25.0861 38.1083 25.4615 38.1083 25.9231ZM47.3118 21.1955H27.024V6.14246H47.3118V21.1955Z" fill="#00EADF"/>
<path d="M31.317 18.27C30.9923 18.0256 30.5308 18.0904 30.2864 18.415L24.537 26.0483C23.9569 25.7619 23.3032 25.6007 22.6134 25.6007H16.9339V22.4853C18.6565 21.5032 19.8756 19.735 20.0994 17.6723H21.3435C22.7974 17.6723 23.9797 16.49 23.9797 15.0361C23.9797 14.2116 23.5991 13.4739 23.005 12.991V5.76119C23.005 2.58466 20.4203 0 17.2423 0H12.0914C10.5889 0 9.2263 0.804623 8.49676 2.08775H7.80771C5.69125 2.08775 3.96938 3.80963 3.96938 5.92609V7.25559C3.96938 7.66195 4.29844 7.99175 4.70554 7.99175C5.11263 7.99175 5.4417 7.66195 5.4417 7.25559V5.92609C5.4417 4.62161 6.50324 3.56007 7.80771 3.56007H8.95318C9.24985 3.56007 9.51781 3.38192 9.63192 3.10807C10.0486 2.11425 11.0144 1.47232 12.0914 1.47232H17.2423C19.6084 1.47232 21.5327 3.39664 21.5327 5.76119V12.4065C21.4701 12.4021 21.4075 12.3999 21.3435 12.3999H20.1362V8.92447C20.1362 8.52105 19.9676 8.13015 19.6739 7.85409C19.3787 7.57582 18.9767 7.43006 18.5711 7.45436C16.0991 7.60233 13.5446 7.04432 11.3774 5.88486C10.9747 5.66991 10.5256 5.5558 10.0773 5.5558H9.11366C7.85851 5.5558 6.83746 6.57759 6.83746 7.83274V12.3999H5.62942C5.56611 12.3999 5.50353 12.4021 5.4417 12.4065V10.6905C5.4417 10.2842 5.1119 9.95436 4.70554 9.95436C4.29918 9.95436 3.96938 10.2842 3.96938 10.6905V12.9903C3.37456 13.4732 2.99323 14.2108 2.99323 15.0361C2.99323 16.49 4.17624 17.6723 5.62942 17.6723H6.87426C7.09732 19.735 8.3164 21.5032 10.039 22.4853V25.6007H4.35954C4.34703 25.6007 4.33451 25.6007 4.322 25.6014C1.93684 25.6213 0.00220848 27.567 0 29.9573V41.3405C0 43.3584 1.64164 45 3.65945 45H4.03784C4.67977 45 5.31213 44.8307 5.86793 44.5097L6.75648 43.9966H26.2375C26.6438 43.9966 26.9736 43.6668 26.9736 43.2605V29.9602C26.9736 28.7758 26.4988 27.7002 25.7281 26.914L31.462 19.3014C31.7072 18.9767 31.6416 18.5152 31.317 18.27ZM20.1362 13.8722H21.3435C21.9854 13.8722 22.5074 14.3941 22.5074 15.0361C22.5074 15.678 21.9854 16.1999 21.3435 16.1999H20.1362V13.8722ZM6.83746 16.1999H5.62942C4.98822 16.1999 4.46555 15.678 4.46555 15.0361C4.46555 14.3941 4.98822 13.8722 5.62942 13.8722H6.83746V16.1999ZM17.6745 27.073L15.7759 28.7426L14.7814 27.073H17.6745ZM13.4636 25.6007H11.5113V23.0926C12.037 23.2354 12.5905 23.3112 13.1611 23.3112H13.8111C14.3816 23.3112 14.9352 23.2354 15.4616 23.0926V25.6007H13.4636ZM8.30978 16.9876V7.83274C8.30978 7.38958 8.6705 7.02812 9.11366 7.02812H10.0773C10.2842 7.02812 10.4932 7.08186 10.6832 7.18345C13.0867 8.46952 15.9187 9.08716 18.6639 8.923V16.9869C18.6639 19.6621 16.487 21.8389 13.8111 21.8389H13.1611C10.4859 21.8389 8.30978 19.6628 8.30978 16.9876ZM12.1915 27.073L11.1977 28.7426L9.29844 27.073H12.1915ZM25.5013 42.5243H22.4507V38.4173C22.4507 38.0109 22.1216 37.6811 21.7145 37.6811C21.3074 37.6811 20.9784 38.0109 20.9784 38.4173V42.5243H9.30727L12.4492 40.7104C12.8011 40.5072 12.9218 40.0567 12.7186 39.7048C12.5155 39.3522 12.0649 39.2314 11.713 39.4354L6.21246 42.6104L6.17418 42.6332L5.13177 43.2347C4.79976 43.4268 4.42138 43.5277 4.03784 43.5277H3.65945C2.45362 43.5277 1.47232 42.5464 1.47232 41.3405V29.958C1.47379 28.3672 2.7687 27.073 4.35954 27.073H7.06787L10.4476 30.0434C10.6736 30.2415 10.96 30.3489 11.2559 30.3489C11.3199 30.3489 11.384 30.3438 11.4488 30.3335C11.8095 30.2768 12.1246 30.0633 12.3115 29.749L13.4865 27.7753L14.6621 29.749C14.8491 30.0633 15.1634 30.2768 15.5249 30.3335C15.5889 30.3438 15.6537 30.3489 15.717 30.3489C16.013 30.3489 16.3001 30.2415 16.5261 30.0434L19.9058 27.073H22.6134C22.9697 27.073 23.3113 27.1378 23.6271 27.2563L21.1212 30.583C20.215 30.0331 19.0437 29.9801 18.0632 30.547L14.7644 32.4514L5.99455 37.5147V35.3467C5.99455 34.9396 5.66475 34.6106 5.25839 34.6106C4.85203 34.6106 4.52223 34.9396 4.52223 35.3467V38.7897C4.52223 39.0526 4.66284 39.2955 4.89031 39.4273C5.00442 39.4928 5.13104 39.5259 5.25839 39.5259C5.38575 39.5259 5.51237 39.4928 5.62647 39.4273L14.8631 34.0945L16.3884 36.7359L14.7644 37.673C14.4125 37.8769 14.2918 38.3267 14.495 38.6786C14.6982 39.0312 15.1487 39.1519 15.5006 38.948L17.7621 37.6428L21.0608 35.7384C22.4897 34.9139 22.9829 33.0808 22.1614 31.6497L24.8277 28.1095C25.2481 28.6109 25.5013 29.2572 25.5013 29.9602V42.5243ZM20.3246 34.4633L17.6634 35.9997L16.1381 33.3584L18.7993 31.822C19.4251 31.4605 20.2039 31.5953 20.678 32.1025C20.6876 32.1135 20.6979 32.1246 20.7075 32.1356C20.773 32.2092 20.8311 32.2909 20.8827 32.38C21.303 33.1081 21.0527 34.043 20.3246 34.4633ZM13.3709 19.5944C12.6686 19.5944 12.0016 19.3227 11.4922 18.8295C11.1999 18.5468 11.1926 18.0808 11.4753 17.7886C11.758 17.4971 12.2239 17.489 12.5162 17.7716C12.7496 17.9976 13.0529 18.1221 13.3709 18.1221H13.602C13.9201 18.1221 14.2234 17.9976 14.4567 17.7716C14.749 17.489 15.215 17.4963 15.4976 17.7886C15.7803 18.0808 15.773 18.5468 15.4807 18.8295C14.9713 19.3227 14.3043 19.5944 13.602 19.5944H13.3709Z" fill="white"/>
</svg>
