<svg width="50" height="50" viewBox="0 0 50 50" fill="none" xmlns="http://www.w3.org/2000/svg">
<path d="M50.0029 20.2157V48.1465C49.7134 49.0937 49.0936 49.7106 48.1491 50H8.7924C7.83041 49.6287 7.42105 48.9329 7.50292 47.9068C7.54094 47.4712 7.53216 47.0268 7.50292 46.5883C7.45029 45.7259 7.82456 45.1441 8.5731 44.7319C10.0526 43.9133 11.5146 43.0626 12.9766 42.2177C13.117 42.1359 13.3099 41.9839 13.3187 41.8582C13.3538 41.2618 13.3333 40.6595 13.3333 40.0105H12.7076C9.6959 40.0105 6.68713 40.0105 3.67544 40.0105C1.3655 40.0105 0 38.6453 0 36.3416V3.67772C0.00292398 1.36233 1.35965 0 3.66082 0H44.6696C46.9766 0 48.3363 1.36233 48.3392 3.66895V18.4266C49.2398 18.7131 49.7281 19.365 50.0029 20.2157ZM46.6754 18.3447V3.6631C46.6754 2.292 46.0497 1.66345 44.6784 1.66345H3.66959C2.28947 1.66345 1.66667 2.2803 1.66667 3.65433V31.626H29.9971V31.0179C29.9971 27.6647 30.0292 24.3115 29.9825 20.9612C29.9591 19.4527 30.9766 18.3097 32.617 18.3243C37.0906 18.3798 41.5672 18.3447 46.0409 18.3447H46.6754ZM31.6871 44.1209H48.3187V24.2063H31.6871V44.1209ZM29.9766 33.3684H1.66667V36.3357C1.66667 37.7127 2.28655 38.3383 3.66082 38.3383H29.9795L29.9766 33.3684ZM48.3392 45.8604H31.7281C31.7018 45.9218 31.6754 45.9481 31.6754 45.9773C31.6696 46.4334 31.6637 46.8894 31.6637 47.3426C31.6637 48.1641 31.8392 48.3365 32.6725 48.3365H47.3158C47.4298 48.3365 47.5439 48.3424 47.6579 48.3365C48.0789 48.3132 48.3275 48.0881 48.3392 47.6642C48.3538 47.0795 48.3392 46.4918 48.3392 45.8604ZM48.3392 22.4639V21.0109C48.3392 20.1661 48.1842 20.0082 47.3538 20.0082H32.3363C31.9474 20.014 31.7018 20.2274 31.6784 20.5929C31.6433 21.2039 31.6696 21.8178 31.6696 22.461L48.3392 22.4639ZM9.19591 48.3102H30.0468C30.0205 47.7519 29.9912 47.2256 29.9678 46.7053H9.19591V48.3102ZM29.9708 43.3696C29.8655 43.3579 29.8012 43.3433 29.7368 43.3433C24.7076 43.3433 19.6813 43.3433 14.652 43.3433C14.5556 43.3433 14.4415 43.3257 14.3655 43.3696C13.4532 43.8783 12.5439 44.3957 11.6345 44.9073C11.6491 44.9307 11.6608 44.9541 11.6725 44.9804H29.9708V43.3696ZM15.0497 41.6477H29.962V40.0368H15.0497V41.6477Z" fill="white"/>
<path d="M14.9941 29.9774C14.7339 29.9774 14.4707 29.9832 14.2134 29.9774C13.5087 29.954 12.9503 29.647 12.7631 28.9571C12.5146 28.0304 11.9737 27.5158 11.0585 27.2059C10.5204 27.0218 10.0994 26.9341 9.60816 27.2176C9.41225 27.3317 9.19296 27.4018 8.97951 27.4807C8.4298 27.6883 7.90933 27.6298 7.47366 27.2352C6.9912 26.8025 6.52921 26.3406 6.09646 25.8582C5.70173 25.4226 5.58769 24.8584 5.87424 24.3585C6.39763 23.4493 6.39763 22.619 5.88886 21.6923C5.66079 21.2772 5.47073 20.9673 5.01167 20.8357C4.76313 20.7656 4.52336 20.6545 4.28945 20.5492C3.7719 20.3212 3.4298 19.9353 3.40348 19.3652C3.36547 18.684 3.36255 18.0029 3.39763 17.3217C3.42687 16.7312 3.76313 16.2663 4.32161 16.1231C5.31284 15.8717 5.85377 15.2841 6.16372 14.3135C6.31576 13.8311 6.41518 13.4452 6.15494 13.0038C6.03798 12.8079 5.96489 12.5916 5.88009 12.3781C5.64617 11.8022 5.69296 11.2497 6.11693 10.7848C6.54383 10.3171 6.99705 9.86688 7.46489 9.44006C7.91518 9.0337 8.4912 8.90799 9.00582 9.2091C9.89763 9.7324 10.7076 9.70902 11.6257 9.22957C12.0614 8.99861 12.3742 8.79397 12.5087 8.32329C12.5877 8.06018 12.6988 7.79999 12.8216 7.55442C13.0614 7.06913 13.4473 6.75339 14 6.73001C14.6491 6.70369 15.3011 6.70369 15.9503 6.72416C16.5614 6.74755 17.0526 7.06328 17.2047 7.6392C17.4678 8.6478 18.0643 9.20033 19.0497 9.51022C19.5204 9.65932 19.8859 9.7441 20.3128 9.49268C20.538 9.36697 20.7865 9.28219 21.0292 9.18864C21.5614 8.98107 22.0731 9.03662 22.497 9.41082C22.9941 9.85227 23.4678 10.3259 23.9093 10.8229C24.3158 11.276 24.4064 11.8548 24.1111 12.3694C23.614 13.2347 23.6286 14.0124 24.0848 14.904C24.3333 15.3981 24.5906 15.6904 25.0965 15.8804C26.4737 16.3921 26.652 16.6844 26.6637 18.152V18.3478C26.6637 20.0171 26.5292 20.2452 24.9854 20.8299C24.5175 21.0082 24.3245 21.3181 24.0994 21.7391C23.6111 22.6366 23.6082 23.4347 24.1169 24.3205C24.421 24.8526 24.2982 25.4343 23.8713 25.9021C23.5 26.3084 23.1052 26.6973 22.7105 27.0861C22.1462 27.6474 21.497 27.738 20.7894 27.3814C20.1403 27.0539 19.5701 26.9136 18.7924 27.2556C18.0087 27.6035 17.5204 28.0187 17.2924 28.8314C17.0731 29.6236 16.4883 29.9774 15.6783 29.9774H14.9941ZM21.5087 25.8816C21.5789 25.8348 21.6549 25.7851 21.731 25.7267C22.614 25.0104 22.652 24.99 22.1608 23.9843C21.8099 23.2651 21.6959 22.622 22.2163 21.9466C22.3509 21.7712 22.4561 21.5432 22.4883 21.3269C22.6696 20.1049 23.4356 19.4851 24.576 19.2132C24.7105 19.181 24.9327 19.0904 24.9415 19.0056C24.9883 18.5905 25.0204 18.1578 24.9561 17.7515C24.9356 17.6082 24.6316 17.4913 24.4386 17.3977C24.1316 17.2516 23.8128 17.1229 23.4912 17.0148C23.1111 16.889 22.9123 16.6318 22.8011 16.2605C22.6871 15.8717 22.6169 15.4361 22.3889 15.1233C21.6608 14.1234 21.8158 13.1675 22.3889 12.191C22.462 12.0683 22.5643 11.8548 22.5146 11.7934C22.2544 11.466 21.9737 11.1357 21.6374 10.8901C21.5234 10.8082 21.2251 10.9369 21.0234 11.007C20.7017 11.121 20.4064 11.3286 20.0789 11.39C19.7514 11.4485 19.383 11.4339 19.0672 11.3403C18.6666 11.2234 18.3158 10.8959 17.9152 10.8287C16.7397 10.6328 16.1666 9.90489 15.9006 8.82613C15.8625 8.67703 15.7719 8.43146 15.6783 8.41977C15.2661 8.36422 14.8333 8.33499 14.424 8.39053C14.2836 8.41392 14.1608 8.71211 14.0672 8.90214C13.921 9.2091 13.8509 9.56284 13.6666 9.84057C13.4883 10.1037 13.2427 10.3726 12.962 10.51C12.2953 10.8375 11.5994 11.1181 10.9006 11.3637C10.6169 11.4602 10.2661 11.4777 9.97951 11.4075C9.56138 11.2994 9.17249 11.0655 8.76313 10.9135C8.63155 10.8638 8.4298 10.8404 8.32746 10.9076C7.50874 11.428 7.38301 11.7642 7.82161 12.6325C8.19296 13.378 8.31869 14.0562 7.76606 14.7608C7.65202 14.9099 7.58184 15.1057 7.52337 15.2899C6.95319 17.0995 7.27775 16.6873 5.345 17.4971C5.22512 17.5468 5.04676 17.6579 5.03798 17.7515C5.00582 18.152 4.94734 18.5876 5.06722 18.953C5.13155 19.146 5.52629 19.2746 5.79529 19.3506C6.66956 19.5903 7.26898 20.0581 7.39179 21.014C7.41225 21.169 7.47073 21.3415 7.5643 21.4643C8.35377 22.5021 8.20173 23.5282 7.576 24.569C7.51459 24.6655 7.46196 24.8613 7.51167 24.9198C7.78652 25.2385 8.06138 25.5834 8.40641 25.8027C8.54383 25.8875 8.87424 25.6945 9.11108 25.6039C9.39763 25.4986 9.66956 25.3145 9.96781 25.2618C10.2631 25.2063 10.6082 25.2034 10.8889 25.3028C11.6082 25.5483 12.3099 25.8465 12.997 26.174C13.2544 26.2938 13.4883 26.5277 13.652 26.7645C13.8216 27.0101 13.9327 27.32 13.997 27.6182C14.1286 28.2321 14.4912 28.3666 15.076 28.3461C15.5468 28.3315 15.8333 28.2408 15.9532 27.7497C16.0292 27.4398 16.1959 27.1504 16.307 26.8464C16.4444 26.4575 16.7076 26.2529 17.0965 26.1272C17.6549 25.9489 18.228 25.7764 18.7193 25.4753C19.3216 25.1069 19.8567 25.0981 20.4532 25.4226C20.7807 25.601 21.1403 25.7237 21.5087 25.8816Z" fill="#00EADE"/>
<path d="M38.9442 6.58932C38.874 6.78519 38.8331 6.9606 38.7571 7.11847C38.5085 7.64177 38.6664 8.02767 39.2366 8.20892C39.6576 8.3434 39.9062 8.62113 39.9237 9.0538C39.953 9.66773 39.95 10.2846 39.9325 10.9014C39.9179 11.378 39.6547 11.6703 39.1927 11.8106C38.6957 11.9568 38.5027 12.4041 38.7454 12.8485C38.9764 13.2694 38.9734 13.667 38.6459 14.0178C38.2249 14.4651 37.7863 14.9007 37.336 15.3217C36.9997 15.6345 36.6138 15.6374 36.2103 15.424C35.7278 15.1697 35.3068 15.348 35.143 15.8772C35.0056 16.3157 34.7249 16.5788 34.2629 16.5934C33.6489 16.6139 33.0348 16.6168 32.4179 16.5934C31.9647 16.5788 31.6781 16.3303 31.5407 15.8801C31.3828 15.3509 30.95 15.1668 30.4734 15.4182C30.0728 15.6345 29.6869 15.6433 29.3477 15.3246C28.8886 14.8949 28.4413 14.4447 28.0085 13.9828C27.7103 13.667 27.6898 13.3016 27.9003 12.9069C28.1781 12.3865 28.0056 11.986 27.4471 11.7989C27.0378 11.6645 26.7688 11.4072 26.7571 10.9599C26.7424 10.3284 26.7424 9.69696 26.7571 9.06842C26.7688 8.60066 27.0348 8.33463 27.4764 8.20015C28.0144 8.03936 28.1898 7.6213 27.9208 7.12724C27.6957 6.72088 27.7044 6.34375 28.0231 6.01048C28.4559 5.55149 28.9062 5.10713 29.3652 4.67153C29.684 4.37041 30.0465 4.35872 30.4413 4.56629C30.9676 4.84401 31.3711 4.67153 31.5495 4.11022C31.681 3.69217 31.9442 3.43198 32.3857 3.42029C33.0173 3.40275 33.6489 3.40567 34.2775 3.42029C34.7483 3.42906 35.0085 3.70679 35.1459 4.13946C35.3126 4.65984 35.7424 4.84109 36.2278 4.57506C36.6196 4.36164 36.9851 4.36164 37.3068 4.65984C37.7921 5.11297 38.2571 5.58657 38.7074 6.07187C38.8302 6.20635 38.8711 6.41391 38.9471 6.58932M29.4881 13.3981C29.8009 13.4945 30.0787 13.6846 30.2395 13.6144C30.6606 13.4273 31.0114 13.4565 31.3974 13.6729C31.6372 13.8044 31.9003 13.9009 32.1606 13.9828C32.5436 14.0997 32.8126 14.3014 32.9471 14.7049C32.991 14.8335 33.2044 14.9709 33.3536 14.9826C33.4676 14.9914 33.6723 14.8423 33.7132 14.7195C33.8536 14.3043 34.1372 14.0909 34.5407 13.9711C34.8185 13.8892 35.0933 13.7752 35.3477 13.6349C35.6898 13.4507 36.0085 13.4331 36.3711 13.5881C36.5056 13.6466 36.7629 13.6144 36.8565 13.5179C36.95 13.4244 36.9296 13.1963 36.9354 13.0268C36.95 12.7023 36.9003 12.369 36.9676 12.0562C37.0407 11.7288 37.1752 11.3984 37.3565 11.1178C37.529 10.8517 37.798 10.6471 38.0202 10.4074C38.1343 10.2846 38.2834 10.1618 38.3272 10.0069C38.4033 9.76128 38.2395 9.65019 38.0027 9.57125C37.4325 9.37538 36.6606 7.69147 36.8623 7.13016C36.8682 7.11554 36.874 7.10093 36.8857 7.08631C37.1723 6.70334 36.9793 6.47238 36.605 6.26189C36.1109 6.67703 35.6079 6.53962 35.0933 6.23266C34.8886 6.1128 34.6138 6.10403 34.415 5.97247C34.1752 5.81168 33.9413 5.60411 33.7863 5.36731C33.6606 5.17437 33.6343 4.96972 33.3243 4.97849C33.0378 4.98726 33.0231 5.18314 32.9033 5.3527C32.7278 5.59827 32.4851 5.80876 32.2337 5.98709C32.0699 6.1011 31.8243 6.1011 31.6459 6.20635C31.1109 6.51916 30.5845 6.71211 30.0582 6.24728C29.8652 6.41099 29.719 6.5367 29.5436 6.6858C30.029 7.21787 29.9033 7.70901 29.6021 8.20892C29.4968 8.38725 29.4296 8.59774 29.374 8.79654C29.26 9.19997 29.0436 9.48355 28.6196 9.61511C28.4997 9.65311 28.3506 9.85483 28.3594 9.97469C28.3682 10.1179 28.4997 10.3314 28.6284 10.3781C29.0144 10.5243 29.2483 10.767 29.3506 11.1616C29.4091 11.3809 29.4793 11.6031 29.5962 11.7931C29.9091 12.2959 29.9968 12.7871 29.491 13.3951" fill="#00EADE"/>
<path d="M36.6001 39.7797C36.4393 39.7124 36.2551 39.689 36.1469 39.5867C35.6176 39.0839 35.0913 38.581 34.603 38.0431C34.334 37.7479 34.4042 37.3824 34.5855 37.0375C34.834 36.558 34.6586 36.1195 34.1293 35.9645C33.679 35.833 33.4305 35.5465 33.4129 35.0904C33.3896 34.4765 33.3925 33.8596 33.4129 33.2457C33.4276 32.7897 33.679 32.5061 34.1293 32.3687C34.6849 32.1962 34.8399 31.7957 34.5679 31.2607C34.3779 30.8894 34.3632 30.5298 34.6527 30.2199C35.0796 29.758 35.527 29.3078 35.9831 28.8693C36.3311 28.536 36.7229 28.5243 37.1498 28.7553C37.6001 28.9979 38.0475 28.8138 38.1937 28.3197C38.3223 27.8782 38.5942 27.5976 39.0504 27.583C39.6995 27.5596 40.3486 27.5625 40.9977 27.5917C41.41 27.6093 41.6703 27.8666 41.796 28.27C41.9744 28.8254 42.3896 29.0009 42.8954 28.7377C43.2872 28.536 43.6586 28.536 43.9802 28.8342C44.4422 29.264 44.8896 29.7142 45.3223 30.1732C45.6381 30.5094 45.6498 30.8894 45.4246 31.2987C45.1586 31.784 45.3369 32.202 45.872 32.3687C46.3106 32.5061 46.5796 32.7721 46.5884 33.2428C46.603 33.8713 46.603 34.5028 46.5884 35.1343C46.5738 35.5523 46.3369 35.8154 45.9363 35.9499C45.3369 36.1546 45.1673 36.5375 45.448 37.0813C45.641 37.4614 45.641 37.8122 45.3574 38.1221C44.9188 38.5986 44.4627 39.0576 43.989 39.5019C43.6732 39.8001 43.3048 39.8177 42.91 39.6072C42.3925 39.3324 41.986 39.5078 41.8018 40.0662C41.6761 40.4608 41.4363 40.7298 41.0094 40.7415C40.3457 40.7619 39.682 40.759 39.0182 40.7415C38.5913 40.7298 38.3486 40.4638 38.217 40.0691C38.0241 39.5019 37.6469 39.347 37.1118 39.5955C36.951 39.6715 36.7814 39.7153 36.6059 39.7797M43.7726 37.4643C43.3749 36.9644 43.413 36.5083 43.7141 36.0259C43.8486 35.8096 43.9276 35.5523 43.9977 35.3038C44.1059 34.9296 44.3252 34.6958 44.6966 34.5584C44.8311 34.5087 44.986 34.304 44.986 34.1637C44.986 34.0321 44.8252 33.8333 44.6907 33.7778C44.3252 33.6345 44.0972 33.4036 43.9919 33.0294C43.9334 32.8277 43.872 32.6201 43.7668 32.4418C43.4539 31.9155 43.3165 31.401 43.7375 30.8982C43.5211 30.5561 43.3369 30.3749 42.9305 30.6029C42.4685 30.8573 40.7112 30.1527 40.4802 29.6762C40.451 29.6177 40.451 29.5358 40.41 29.4949C40.2872 29.3838 40.1615 29.2406 40.0094 29.1909C39.758 29.1119 39.6527 29.2815 39.5738 29.5095C39.3779 30.065 37.6878 30.8397 37.1322 30.6497C37.0855 30.6321 37.0416 30.6117 37.0007 30.5824C36.7989 30.4392 36.641 30.4538 36.448 30.6409C36.2434 30.8397 36.3662 30.9888 36.4042 31.1964C36.4597 31.4946 36.4451 31.8249 36.3749 32.1202C36.2989 32.4476 36.1673 32.778 35.9831 33.0586C35.8106 33.3247 35.5416 33.5293 35.3194 33.769C35.2053 33.8918 35.0504 34.0117 35.0036 34.1637C34.9246 34.4122 35.1264 34.4853 35.3282 34.6051C35.5825 34.7572 35.7901 35.0173 35.9656 35.2688C36.0913 35.45 36.1059 35.7014 36.217 35.8973C36.5094 36.4206 36.6966 36.9381 36.258 37.4438C36.6176 37.8911 36.6147 37.8853 37.1001 37.7128C37.2317 37.6631 37.4246 37.5929 37.5182 37.6485C38.2872 38.0957 39.4568 37.9613 39.6878 39.1336C40.1089 39.2301 40.3486 39.154 40.4714 38.7126C40.527 38.508 40.8048 38.3384 41.0182 38.2156C41.2404 38.0841 41.5211 38.0636 41.7404 37.935C42.2551 37.6309 42.758 37.4964 43.3048 37.9583C43.4597 37.7917 43.5913 37.6514 43.758 37.4701" fill="#00EADE"/>
<path d="M24.1407 36.6632C23.6203 36.6632 23.0969 36.6749 22.5793 36.6632C22.0179 36.6456 21.6846 36.327 21.6817 35.8446C21.6787 35.3622 22.015 35.0144 22.5647 35.0056C23.6378 34.9851 24.7138 34.9851 25.7869 35.0056C26.3366 35.0173 26.6729 35.3769 26.6641 35.8534C26.6553 36.3358 26.3162 36.6369 25.7548 36.6661C25.7226 36.6661 25.6875 36.6661 25.6583 36.6661H24.1436L24.1407 36.6632Z" fill="white"/>
<path d="M14.9445 11.6677C18.6287 11.6413 21.6462 14.6145 21.6725 18.2893C21.6959 21.9641 18.7135 24.9753 15.0351 24.9986C11.386 25.022 8.36845 22.0518 8.33044 18.4033C8.29243 14.7344 11.2778 11.694 14.9445 11.6677ZM15.041 13.3428C12.2515 13.334 10.0176 15.5529 10 18.3507C9.98541 21.0549 12.2515 23.3293 14.9679 23.3381C17.7281 23.3469 19.9854 21.1221 20.0088 18.3712C20.0322 15.6202 17.7895 13.3516 15.041 13.3428Z" fill="#00EADE"/>
<path d="M30.8479 9.96625C30.8713 8.56591 31.9854 7.49008 33.3976 7.51054C34.7544 7.53393 35.8567 8.677 35.8333 10.0364C35.8129 11.4163 34.6608 12.5214 33.2748 12.498C31.9123 12.4746 30.8275 11.3432 30.8479 9.96625ZM33.3333 9.17692C32.8626 9.17692 32.5088 9.5482 32.5146 10.0189C32.5234 10.4632 32.8801 10.8228 33.3187 10.8345C33.7661 10.8462 34.1667 10.4574 34.1725 10.0101C34.1784 9.55989 33.7895 9.17399 33.3333 9.17692Z" fill="#00EADE"/>
<path d="M42.4912 34.1637C42.4854 35.5669 41.3772 36.6632 39.9795 36.6515C38.6053 36.6369 37.5029 35.5319 37.5059 34.1637C37.5059 32.7867 38.6491 31.6553 40.0263 31.6641C41.3831 31.67 42.4971 32.8043 42.4912 34.1637ZM40.0673 33.3363C39.6257 33.2954 39.2018 33.6579 39.1725 34.1111C39.1404 34.5496 39.4708 34.9413 39.9094 34.9852C40.386 35.0319 40.7836 34.7104 40.8217 34.2485C40.8655 33.7895 40.5234 33.3802 40.0673 33.3393" fill="#00EADE"/>
</svg>
