<svg width="50" height="42" viewBox="0 0 50 42" fill="none" xmlns="http://www.w3.org/2000/svg">
<path d="M33.8728 41.9965C29.8427 41.9965 25.8127 41.9965 21.7853 41.9965C20.7969 41.9965 20.7073 41.9178 20.5702 40.9527C20.4305 39.9561 19.5238 39.1903 18.4959 39.193C17.4627 39.1956 16.5691 39.9692 16.4373 40.9684C16.3161 41.8916 16.2001 41.9965 15.2539 41.9965C12.2307 41.9965 9.21014 42.0044 6.18694 41.9965C4.0968 41.9886 2.55225 40.8504 2.10154 38.9674C1.99875 38.5347 1.9803 38.0731 1.97766 37.6273C1.96975 33.3341 1.93022 29.0409 1.99084 24.7503C2.0172 22.8437 1.8037 21.0027 1.29237 19.1695C0.844291 17.5644 0.459473 15.9384 0.0983757 14.3098C-0.365515 12.2248 0.849563 10.2107 2.93444 9.67568C6.04988 8.87317 9.18115 8.13097 12.3071 7.37304C12.9055 7.2288 13.1585 7.38353 13.3773 7.97099C13.7884 9.07248 14.7795 9.63109 15.8812 9.37933C16.9012 9.14592 17.5417 8.20178 17.4468 7.0662C17.3783 6.25057 17.4732 6.09584 18.2007 5.9175C26.0815 3.98465 33.9571 2.0518 41.838 0.134689C44.1601 -0.429169 46.2002 0.816562 46.78 3.13756C47.8238 7.31272 48.8596 11.4905 49.8849 15.6683C49.9719 16.0197 49.9956 16.3948 49.9956 16.7593C50.0009 23.7747 50.0009 30.7902 49.9983 37.8056C49.9983 40.3207 48.3457 41.9834 45.8101 41.9913C41.8301 42.0044 37.8528 41.9939 33.8728 41.9939V41.9965ZM22.0067 40.5383C22.1464 40.5462 22.2782 40.5567 22.4099 40.5567C30.2355 40.5567 38.0583 40.5593 45.8839 40.5567C47.5128 40.5567 48.5697 39.5103 48.5697 37.8948C48.575 30.8793 48.575 23.8639 48.5697 16.8485C48.5697 15.1989 47.5259 14.1656 45.8575 14.1656C38.0663 14.1629 30.275 14.1656 22.4837 14.1577C22.1306 14.1577 21.9698 14.2442 21.8485 14.6009C21.3636 16.0276 19.993 16.9744 18.5038 16.9691C17.0119 16.9639 15.644 16.0171 15.1669 14.5904C15.043 14.218 14.8612 14.1603 14.5212 14.1603C11.751 14.1708 8.98083 14.1656 6.21066 14.1682C4.43681 14.1682 3.44313 15.1674 3.44313 16.9376C3.44313 23.8875 3.44313 30.8347 3.44313 37.7846C3.44313 39.547 4.44999 40.5593 6.21066 40.5619C8.98083 40.5646 11.751 40.5541 14.5212 40.5724C14.9086 40.5751 15.0536 40.457 15.1801 40.0951C15.6598 38.6947 17.0146 37.7636 18.4906 37.7558C19.9903 37.7479 21.3425 38.692 21.8564 40.103C21.9065 40.2446 21.9513 40.3862 22.004 40.5436L22.0067 40.5383ZM47.6762 12.9041C47.6709 12.8648 47.6656 12.752 47.6366 12.6445C46.8907 9.63372 46.1501 6.62036 45.3963 3.61225C44.9666 1.89707 43.7463 1.16012 42.0383 1.57711C34.5844 3.39982 27.1306 5.23563 19.674 7.04522C19.1759 7.16586 18.9334 7.3101 18.8649 7.87396C18.6856 9.3767 17.5892 10.4887 16.1 10.8139C14.6819 11.126 13.2086 10.5097 12.3888 9.26918C12.3071 9.14592 12.2254 9.02528 12.1358 8.89415C9.18642 9.61798 6.25547 10.3261 3.3298 11.063C2.26496 11.3332 1.55067 12.0675 1.5085 13.1427C1.4716 14.0344 1.74835 14.9366 1.90122 15.9332C2.04619 15.7916 2.08045 15.7706 2.08836 15.7444C2.84218 13.5965 4.11261 12.6917 6.37672 12.6917C9.3472 12.6917 12.3203 12.6917 15.2908 12.6917C16.1738 12.6917 16.3293 12.8307 16.4373 13.704C16.5612 14.7111 17.4416 15.4847 18.4774 15.4952C19.5423 15.5057 20.4463 14.7399 20.5755 13.7145C20.6888 12.8149 20.8338 12.689 21.7642 12.689C29.6213 12.689 37.4785 12.6838 45.3356 12.6969C46.0974 12.6969 46.8591 12.8254 47.6735 12.9015L47.6762 12.9041Z" fill="white"/>
<path d="M28.5199 28C26.8077 27.992 25.6463 27.0812 25.1864 25.3771C24.937 24.4557 24.937 23.5315 25.1916 22.6101C25.6827 20.8179 26.9454 19.9178 28.8369 20.0059C30.4295 20.0807 31.7078 21.2425 31.9365 22.976C32.0378 23.7479 32.0222 24.5812 31.8585 25.3397C31.4818 27.0785 30.2425 28.0053 28.5225 28H28.5199ZM26.696 23.9696C26.8025 24.4396 26.8519 24.8483 26.9922 25.2222C27.2754 25.9754 27.821 26.3387 28.5511 26.3253C29.2941 26.312 29.806 25.9273 30.071 25.2302C30.4036 24.3542 30.401 23.4701 29.9878 22.6154C29.6969 22.0144 29.2188 21.7126 28.5563 21.7046C27.8755 21.6966 27.3507 21.977 27.0779 22.6101C26.8882 23.0508 26.8103 23.5395 26.6934 23.9669L26.696 23.9696Z" fill="#00EADE"/>
<path d="M40.9974 32.0413C40.9638 32.3474 40.9509 32.7067 40.8836 33.0527C40.4981 34.9825 39.1426 36.0924 37.3137 35.994C35.4745 35.8928 34.1733 34.6152 34.0232 32.6668C33.9715 32.0013 34.0026 31.3013 34.1526 30.6545C34.5639 28.8791 35.9737 27.8809 37.7431 28.0114C39.4815 28.1365 40.7025 29.3556 40.925 31.1815C40.9586 31.4504 40.9715 31.7218 41 32.0386L40.9974 32.0413ZM39.3263 32.0333C39.197 31.5435 39.1219 31.0884 38.9538 30.6758C38.6977 30.0423 38.2062 29.7202 37.5233 29.7042C36.8196 29.6883 36.3023 29.9944 36.01 30.6332C35.5805 31.5755 35.5676 32.5443 36.0669 33.4626C36.6955 34.6152 38.2812 34.6152 38.8891 33.452C39.1142 33.0181 39.1866 32.5017 39.3263 32.0306V32.0333Z" fill="#00EADE"/>
<path d="M37.9975 20.8877C37.9416 21.0207 37.8756 21.2541 37.7613 21.4522C35.0517 26.0987 32.3396 30.7451 29.6223 35.3862C29.2567 36.0131 28.7691 36.1651 28.3348 35.8177C27.9438 35.5056 27.8904 35.0686 28.2003 34.534C29.3709 32.5256 30.5467 30.5199 31.7199 28.5115C33.2614 25.8761 34.8079 23.2408 36.3417 20.6C36.5881 20.1766 36.8877 19.9161 37.3728 20.0246C37.7486 20.1088 37.9594 20.3639 38 20.885L37.9975 20.8877Z" fill="#00EADE"/>
<path d="M10.0462 22.0032C10.7585 22.0032 11.4708 21.996 12.1831 22.0032C12.6985 22.0104 13.0048 22.4002 12.9999 23.0138C12.9951 23.6129 12.7106 23.9883 12.2099 23.9919C10.7391 24.0027 9.26829 24.0027 7.79751 23.9919C7.30401 23.9883 7.00742 23.6021 7.00013 23.0174C6.99283 22.4038 7.30401 22.0104 7.81696 22.0032C8.56086 21.996 9.30232 22.0032 10.0462 22.0032Z" fill="#00EADE"/>
<path d="M10.0036 31.0083C10.7308 31.0083 11.4603 31.0012 12.1875 31.0083C12.7055 31.0154 13.0095 31.4074 12.9998 32.0166C12.9925 32.6045 12.7055 32.9822 12.207 32.9893C10.7356 33.0036 9.26428 33.0036 7.79294 32.9893C7.30412 32.9857 7.00499 32.5867 7.00012 32.0095C6.99283 31.4074 7.30655 31.0154 7.82213 31.0048C8.54928 30.9941 9.27887 31.0048 10.006 31.0048L10.0036 31.0083Z" fill="#00EADE"/>
<path d="M10.0084 36.9984C9.28124 36.9984 8.55164 37.002 7.82446 36.9984C7.30888 36.9948 6.99758 36.7975 7.00001 36.4961C7.00488 36.1947 7.31618 36.0045 7.83663 36.0027C9.27637 35.9991 10.7186 35.9991 12.1583 36.0027C12.6909 36.0027 12.99 36.1839 12.9998 36.4889C13.0095 36.8082 12.7006 36.9966 12.1437 36.9984C11.4311 37.002 10.721 36.9984 10.0084 36.9984Z" fill="#00EADE"/>
<path d="M10.0036 27.0042C10.7308 27.0042 11.4604 27.0006 12.1876 27.0042C12.7056 27.0077 13.0072 27.2023 12.9999 27.5092C12.9926 27.8037 12.708 27.9911 12.207 27.9946C10.7357 28.0018 9.26427 28.0018 7.7929 27.9946C7.30406 27.9929 7.00492 27.7948 7.00006 27.5057C6.99519 27.204 7.30649 27.0077 7.82208 27.0024C8.54926 26.997 9.27887 27.0024 10.006 27.0024L10.0036 27.0042Z" fill="#00EADE"/>
<path d="M10.0072 19.9951C9.26272 19.9951 8.52066 20.0024 7.77618 19.9951C7.28715 19.9879 6.99519 19.5943 7.00006 18.993C7.00493 18.3917 7.29932 18.0055 7.78834 18.0055C9.26029 17.9982 10.7322 17.9982 12.2017 18.0055C12.6956 18.0055 12.99 18.3808 12.9998 18.9784C13.0095 19.6198 12.7273 19.9879 12.1896 19.9951C11.4621 20.0061 10.7371 19.9951 10.0072 19.9951Z" fill="#00EADE"/>
<path d="M18.0055 29.5015C18.0055 29.2045 17.991 28.9076 18.0091 28.6159C18.0327 28.2311 18.2053 28.022 18.4669 28.0014C18.7484 27.9807 18.9555 28.1976 18.9755 28.5875C19.0082 29.1916 19.0082 29.8035 18.9755 30.4077C18.9537 30.795 18.7521 31.017 18.4687 30.999C18.2035 30.9809 18.0364 30.764 18.011 30.3871C17.991 30.0953 18.0055 29.7958 18.0055 29.5015Z" fill="white"/>
<path d="M18.9951 34.5006C18.9951 34.7781 19.0079 35.0581 18.9915 35.3356C18.9697 35.7312 18.7476 36.0241 18.4873 35.9984C18.2107 35.9702 18.0232 35.7544 18.0123 35.3536C17.9959 34.7832 17.9959 34.2077 18.0123 33.6373C18.025 33.2314 18.2198 33.0079 18.4928 33.0002C18.7676 32.9925 18.9569 33.2237 18.9879 33.6194C19.0115 33.9097 18.9933 34.2077 18.9933 34.5032L18.9951 34.5006Z" fill="white"/>
<path d="M18.9929 25.4623C18.9929 25.7574 19.0111 26.0576 18.9893 26.3501C18.9584 26.7693 18.7805 27.01 18.481 26.9997C18.1979 26.9893 18.0236 26.7538 18.0127 26.3501C17.9964 25.7755 17.9946 25.1983 18.0145 24.6237C18.029 24.22 18.2142 24.0026 18.4974 24C18.7823 24 18.953 24.2329 18.9875 24.6237C19.0111 24.8981 18.9929 25.1828 18.9929 25.4623Z" fill="white"/>
<path d="M18.9937 20.9941C18.9937 21.1804 19.0064 21.3685 18.9919 21.5531C18.9665 21.8343 18.7976 22.0017 18.4963 22C18.1968 22 18.0188 21.8343 18.0098 21.5496C17.9971 21.177 17.9952 20.8025 18.0134 20.4298C18.0261 20.1624 18.2004 20.0054 18.4836 20.0002C18.7849 19.9933 18.9592 20.1555 18.9901 20.435C19.01 20.6196 18.9937 20.8077 18.9937 20.9941Z" fill="white"/>
</svg>
