<svg width="50" height="44" viewBox="0 0 50 44" fill="none" xmlns="http://www.w3.org/2000/svg">
<path d="M0 4.821C0.0276121 4.74554 0.066269 4.67007 0.0828363 4.59182C0.618511 2.08476 2.46852 0.522398 4.99779 0.511218C9.32461 0.491653 13.6514 0.505628 17.9782 0.508423C18.6216 0.508423 19.0275 0.796301 19.1269 1.28541C19.2235 1.76335 18.9806 2.26084 18.536 2.40059C18.2958 2.47605 18.0224 2.47605 17.7656 2.47605C13.6652 2.48164 9.56759 2.47885 5.4672 2.47885C5.32085 2.47885 5.17451 2.47885 5.02816 2.47885C3.17539 2.504 1.95218 3.75054 1.95218 5.63153C1.95218 12.5965 1.95218 19.5643 1.95218 26.5292C1.95218 26.9093 1.94389 27.2866 1.95494 27.6668C2.00188 29.2068 3.18644 30.4393 4.70786 30.5288C4.90391 30.5399 5.09719 30.5427 5.29324 30.5427C12.7761 30.5427 20.259 30.5399 27.7419 30.5539C28.1864 30.5539 28.3742 30.4533 28.4846 29.9838C30.0889 23.1222 37.3868 19.5475 43.7127 22.5101C43.8259 22.5632 43.9447 22.6051 44.1159 22.675V22.1468C44.1159 16.6799 44.1159 11.2102 44.1159 5.74333C44.1159 3.70023 42.9203 2.48164 40.9046 2.48164C36.4645 2.48164 32.0218 2.48164 27.5817 2.48164C27.4354 2.48164 27.289 2.48164 27.1427 2.48164C26.4275 2.46767 25.983 2.08756 25.9885 1.49224C25.9913 0.899713 26.4386 0.508423 27.1537 0.508423C30.0503 0.502833 32.944 0.508423 35.8405 0.508423C37.5166 0.508423 39.1926 0.508423 40.8659 0.508423C43.9971 0.511218 46.068 2.60462 46.068 5.76289C46.068 11.6742 46.0708 17.5882 46.0625 23.4995C46.0625 23.8712 46.1674 24.1172 46.4408 24.3855C49.6466 27.5494 50.7787 31.3617 49.4643 35.6994C48.1638 39.9868 45.1872 42.6112 40.8079 43.3463C34.8492 44.3497 29.4152 40.3585 28.3411 34.3299C28.2417 33.7653 28.2168 33.1867 28.1533 32.5495C27.9738 32.5411 27.7695 32.5215 27.5679 32.5215C20.1016 32.5215 12.6353 32.5132 5.16899 32.5243C3.17539 32.5271 1.63188 31.7334 0.63784 29.981C0.336868 29.4527 0.209852 28.8211 0.00276121 28.2369C0 20.4335 0 12.6272 0 4.821ZM39.0822 41.5436C44.0027 41.5352 48.0175 37.4714 48.0202 32.4936C48.023 27.5102 44.0192 23.4408 39.0987 23.4268C34.1562 23.4129 30.1414 27.4823 30.1441 32.4992C30.1469 37.4853 34.1645 41.5492 39.0822 41.5436Z" fill="white"/>
<path d="M13.0798 25.797C8.01022 25.797 3.90154 21.6354 3.9043 16.5039C3.90706 11.3864 8.05716 7.19957 13.1019 7.22472C18.1494 7.24708 22.2498 11.4059 22.2525 16.5039C22.2553 21.6354 18.1494 25.797 13.0798 25.797ZM19.0689 20.5118C20.7946 18.1389 20.9272 13.9521 18.0086 11.1851C15.2197 8.54113 10.9261 8.54113 8.14276 11.1851C5.21311 13.9689 5.36774 18.1613 7.08797 20.5174C7.70096 19.1814 8.69224 18.2591 10.0231 17.7141C9.3715 16.2691 9.44881 15.6598 9.54821 14.4245C9.68627 12.7363 11.0614 11.3696 12.6849 11.2299C14.4659 11.0761 16.0564 12.1075 16.4789 13.7984C16.8074 15.112 16.7826 16.4396 16.1033 17.7085C17.4674 18.2479 18.4448 19.187 19.0689 20.5118ZM13.0743 23.8182C14.5653 23.8266 15.9156 23.3794 17.1553 22.5521C17.4646 22.3481 17.5585 22.1301 17.4453 21.7779C17.0394 20.5146 16.2359 19.6119 14.9271 19.4609C13.7121 19.3212 12.4558 19.3212 11.2381 19.4609C9.92926 19.6091 9.12022 20.5062 8.71157 21.7695C8.60112 22.1133 8.67843 22.3369 8.99321 22.5465C10.233 23.3766 11.586 23.821 13.0743 23.8182ZM11.4424 15.2378C11.459 15.5061 11.459 15.7716 11.4976 16.0288C11.6219 16.8169 12.2735 17.3731 13.0605 17.3787C13.8695 17.3843 14.5598 16.8253 14.6509 16.012C14.7089 15.5117 14.7062 14.989 14.6399 14.4887C14.5377 13.7229 13.8667 13.1919 13.0936 13.1863C12.3011 13.1779 11.6384 13.7201 11.5031 14.5027C11.4617 14.7431 11.4617 14.9946 11.4424 15.2378Z" fill="#00EADF"/>
<path d="M33.1873 14.8243C30.6663 14.8243 28.1453 14.8243 25.6215 14.8243C24.6496 14.8243 24.3403 14.5085 24.3403 13.5191C24.3403 12.3816 24.3348 11.2468 24.3403 10.1093C24.3459 9.268 24.7048 8.89907 25.5332 8.89907C30.658 8.89627 35.7828 8.89627 40.9049 8.89907C41.7498 8.89907 42.0977 9.24844 42.1032 10.0953C42.1115 11.2803 42.1115 12.4682 42.1032 13.6532C42.0977 14.4861 41.7636 14.8243 40.9435 14.8243C38.3563 14.8299 35.7718 14.8243 33.1845 14.8243H33.1873ZM40.1289 10.9142H26.3284V12.8176H40.1289V10.9142Z" fill="white"/>
<path d="M33.1972 19.4778C30.7094 19.4778 28.2188 19.4778 25.7309 19.4778C25.5349 19.4778 25.3388 19.4806 25.1483 19.4526C24.6927 19.3827 24.3669 18.9942 24.3503 18.5275C24.3337 18.0803 24.6099 17.6806 25.0379 17.566C25.2229 17.5157 25.4244 17.5045 25.6177 17.5045C30.6928 17.5017 35.7679 17.5017 40.843 17.5045C41.0363 17.5045 41.2379 17.5157 41.4229 17.566C41.8702 17.689 42.1298 18.1027 42.0939 18.5834C42.058 19.0334 41.7432 19.3855 41.2986 19.4526C41.1053 19.4806 40.9093 19.4778 40.7132 19.4778C38.2088 19.4778 35.7044 19.4778 33.1972 19.4778Z" fill="white"/>
<path d="M26.9625 24.1255C26.4268 24.1255 25.8884 24.1423 25.3555 24.1199C24.7453 24.0948 24.3477 23.6895 24.3477 23.1389C24.3477 22.5883 24.748 22.1718 25.3583 22.1607C26.4296 22.1411 27.5037 22.1411 28.5751 22.1607C29.1825 22.1718 29.5802 22.5883 29.5774 23.1417C29.5774 23.6979 29.1881 24.092 28.5723 24.1171C28.0366 24.1395 27.501 24.1227 26.9653 24.1227L26.9625 24.1255Z" fill="white"/>
<path d="M23.5329 1.47567C23.544 2.02627 23.1436 2.4539 22.6024 2.47066C22.0474 2.48743 21.589 2.04584 21.5918 1.49523C21.5918 0.966993 22.0336 0.522599 22.5582 0.514214C23.0856 0.508624 23.5247 0.939043 23.5329 1.47567Z" fill="white"/>
<path d="M39.0928 36.3145C38.4329 36.7981 37.8061 37.2648 37.171 37.7232C36.4586 38.2375 35.7214 38.2598 35.0946 37.7931C34.5009 37.3515 34.3021 36.6276 34.5589 35.7975C34.7577 35.1546 34.9538 34.509 35.1802 33.8774C35.2768 33.6118 35.2299 33.4581 35.0035 33.2988C34.454 32.9159 33.9156 32.5162 33.3799 32.1193C32.6647 31.5883 32.4107 30.8868 32.6592 30.1433C32.9022 29.4139 33.4903 29.017 34.3574 29.0086C35.009 29.003 35.6579 28.9918 36.3095 29.0142C36.6188 29.0254 36.7762 28.9359 36.8645 28.6201C37.0468 27.9549 37.2649 27.3009 37.4858 26.6469C37.7481 25.8671 38.3307 25.4367 39.0818 25.4395C39.8163 25.4423 40.3906 25.8587 40.6529 26.6161C40.8849 27.2841 41.0975 27.9577 41.2963 28.6341C41.3791 28.9136 41.5089 29.0254 41.8071 29.0142C42.4891 28.9918 43.1739 29.0002 43.8559 29.0086C44.6815 29.017 45.2614 29.4222 45.5016 30.1433C45.7391 30.856 45.5154 31.552 44.861 32.0579C44.3447 32.4575 43.8283 32.8628 43.2788 33.2094C42.9254 33.433 42.9005 33.6566 43.0358 34.0171C43.265 34.632 43.4555 35.2608 43.6433 35.8897C43.8697 36.6471 43.6433 37.3543 43.069 37.7819C42.4808 38.2179 41.7684 38.2235 41.1113 37.7819C40.7744 37.5527 40.4513 37.3012 40.1228 37.0608C39.7942 36.8204 39.4656 36.5773 39.0984 36.3062L39.0928 36.3145ZM42.8646 31.088C42.8564 31.0545 42.8453 31.0209 42.837 30.9874C42.1964 30.9874 41.5531 30.993 40.9125 30.9874C40.2277 30.9818 39.9378 30.7666 39.7251 30.1182C39.5181 29.4893 39.3165 28.8577 39.0735 28.103C38.8333 28.8633 38.6345 29.5033 38.4246 30.1377C38.2203 30.7582 37.9221 30.9762 37.2704 30.9874C36.9115 30.993 36.5553 30.9874 36.1963 30.9874C35.9064 30.9874 35.6137 30.9874 35.3238 30.9874C35.7904 31.4486 36.2654 31.7951 36.7375 32.1417C37.4389 32.6532 37.53 32.9439 37.2621 33.7795C37.0771 34.3581 36.8921 34.9394 36.663 35.6521C37.298 35.1854 37.8116 34.8109 38.3225 34.4363C38.9299 33.992 39.2392 33.9892 39.8604 34.4363C40.3713 34.8053 40.8793 35.1798 41.4978 35.6354C41.2576 34.8835 41.0588 34.2659 40.8655 33.6454C40.6529 32.969 40.7523 32.6504 41.3046 32.2367C41.8209 31.851 42.3428 31.4709 42.8619 31.088H42.8646Z" fill="#00EADF"/>
</svg>
