<svg width="50" height="42" viewBox="0 0 50 42" fill="none" xmlns="http://www.w3.org/2000/svg">
<path fill-rule="evenodd" clip-rule="evenodd" d="M24.9701 11.4974C24.5372 11.4974 24.1855 11.1457 24.1855 10.7128V4.62585C24.1855 4.193 24.5372 3.84131 24.9701 3.84131C25.4029 3.84131 25.7546 4.193 25.7546 4.62585V10.7128C25.7411 11.1457 25.4029 11.4974 24.9701 11.4974Z" fill="#00EADF"/>
<path fill-rule="evenodd" clip-rule="evenodd" d="M9.95447 13.9322C9.52161 13.9322 9.16992 13.5805 9.16992 13.1476V7.26357C9.16992 4.32829 11.5641 1.93408 14.4994 1.93408H22.9941C23.427 1.93408 23.7787 2.28577 23.7787 2.71863C23.7787 3.15148 23.427 3.50317 22.9941 3.50317H14.4994C12.4163 3.50317 10.739 5.194 10.739 7.26357V13.1476C10.7255 13.5805 10.3738 13.9322 9.95447 13.9322Z" fill="#00EADF"/>
<path fill-rule="evenodd" clip-rule="evenodd" d="M39.9701 13.9322C39.5373 13.9322 39.1856 13.5805 39.1856 13.1476V7.26357C39.1856 5.18047 37.4947 3.50317 35.4252 3.50317H26.8763C26.4435 3.50317 26.0918 3.15148 26.0918 2.71863C26.0918 2.28577 26.4435 1.93408 26.8763 1.93408H35.4252C38.3604 1.93408 40.7547 4.32829 40.7547 7.26357V13.1476C40.7547 13.5805 40.403 13.9322 39.9701 13.9322Z" fill="#00EADF"/>
<path fill-rule="evenodd" clip-rule="evenodd" d="M24.9415 5.4377C23.4401 5.4377 22.2227 4.2203 22.2227 2.71885C22.2227 1.2174 23.4401 0 24.9415 0C26.443 0 27.6604 1.2174 27.6604 2.71885C27.6604 4.2203 26.4294 5.4377 24.9415 5.4377ZM24.9415 1.55556C24.3058 1.55556 23.7782 2.0831 23.7782 2.71885C23.7782 3.3546 24.3058 3.88214 24.9415 3.88214C25.5773 3.88214 26.1048 3.3546 26.1048 2.71885C26.1048 2.0831 25.5773 1.55556 24.9415 1.55556Z" fill="#00EADF"/>
<path fill-rule="evenodd" clip-rule="evenodd" d="M36.2639 41.9995H13.6068C13.174 41.9995 12.8223 41.6478 12.8223 41.2285C12.8223 39.4294 12.8899 34.9521 13.7015 32.0574C13.9179 31.2729 14.1885 30.6371 14.5401 30.042C14.8377 29.5415 15.7034 28.2835 17.2455 27.4178C18.6658 26.6197 20.032 26.498 20.9247 26.5386C21.0735 26.5521 21.2223 26.5927 21.344 26.6873L24.8339 29.2304L28.5267 26.6738C28.6484 26.5927 28.7837 26.5386 28.9325 26.5386C29.8252 26.498 31.1914 26.6197 32.6117 27.4178C34.1537 28.2835 35.0194 29.5415 35.317 30.042C35.6687 30.6371 35.9393 31.2729 36.1557 32.0574C36.9673 34.9521 37.0484 39.4294 37.0349 41.2285C37.0484 41.6478 36.6968 41.9995 36.2639 41.9995ZM24.9015 40.4304H35.4794C35.4523 38.5637 35.3306 34.8439 34.6542 32.4632C34.4649 31.8139 34.262 31.2999 33.9779 30.8265C33.7479 30.4342 33.0716 29.4468 31.8542 28.7569C30.8668 28.2023 29.9199 28.0671 29.2436 28.0671C29.2301 28.0671 29.2301 28.0671 29.2165 28.0671L25.2668 30.813C24.9962 31.0023 24.631 31.0023 24.3605 30.7994L20.6136 28.0671C19.9237 28.0671 18.9769 28.2023 17.9894 28.7569C16.772 29.4468 16.0957 30.4342 15.8658 30.8265C15.5817 31.2999 15.3788 31.8004 15.1894 32.4632C14.5266 34.8439 14.3914 38.5637 14.3643 40.4304H24.9015Z" fill="white"/>
<path fill-rule="evenodd" clip-rule="evenodd" d="M18.3822 41.9858C17.9493 41.9858 17.5977 41.6477 17.5977 41.2148V34.8573C17.5977 34.4244 17.9493 34.0728 18.3822 34.0728C18.8151 34.0728 19.1667 34.4244 19.1667 34.8573V41.2148C19.1532 41.6477 18.8151 41.9858 18.3822 41.9858Z" fill="white"/>
<path fill-rule="evenodd" clip-rule="evenodd" d="M31.5031 41.9452C31.0703 41.9452 30.7051 41.6477 30.7051 41.2148V34.8573C30.7051 34.4244 31.0568 34.0728 31.4896 34.0728C31.9225 34.0728 32.2742 34.4244 32.2742 34.8573V41.2148C32.2742 41.6477 31.936 41.9452 31.5031 41.9452Z" fill="white"/>
<path fill-rule="evenodd" clip-rule="evenodd" d="M24.9708 26.8498C23.3611 26.8498 21.8462 26.16 20.7099 24.902C19.6007 23.6711 18.9785 22.0343 18.9785 20.3029V17.8681C18.9785 17.53 19.1949 17.2459 19.5061 17.1377C19.7901 17.043 20.6423 16.6643 21.1022 16.1638C21.3863 15.8527 21.8462 15.8121 22.1573 16.0691C22.1979 16.0962 22.8201 16.5425 23.8752 16.7725C25.336 17.0836 26.9186 16.8536 28.5689 16.0691C28.88 15.9203 29.2317 15.9879 29.4616 16.245C29.4616 16.245 30.0703 16.8807 30.6114 17.2189C30.8414 17.3541 30.9766 17.6111 30.9766 17.8817V20.3165C30.9766 22.0479 30.3679 23.6846 29.2452 24.9155C28.0955 26.16 26.5805 26.8498 24.9708 26.8498ZM20.5341 18.3822V20.3029C20.5341 23.0624 22.5225 25.2943 24.9708 25.2943C27.4191 25.2943 29.4075 23.0488 29.4075 20.3029V18.2739C29.1505 18.0846 28.9071 17.8681 28.7177 17.6923C26.4452 18.6392 24.6056 18.5309 23.4423 18.2604C22.7119 18.0981 22.1437 17.8411 21.765 17.6382C21.3321 17.9764 20.8722 18.2198 20.5341 18.3822Z" fill="white"/>
<path fill-rule="evenodd" clip-rule="evenodd" d="M19.7469 18.6393C19.4494 18.6393 19.1653 18.4634 19.03 18.1659C18.746 17.4895 18.6919 16.7861 18.6513 16.1504C18.6242 15.6364 18.5836 15.0006 18.7324 14.3784C18.8677 13.8238 19.1923 13.2422 19.7199 12.5929C19.801 12.4982 19.8957 12.39 19.9769 12.2953C21.3972 10.7668 23.7373 10.1716 24.1972 10.0634C25.09 9.86052 25.9421 9.79288 26.7267 9.84699C27.2813 9.88757 27.7547 9.96873 28.174 10.0905C28.7557 10.2528 29.2156 10.5774 29.4996 11.0103C29.6349 11.2267 29.7296 11.4431 29.7972 11.646C29.8513 11.8084 29.919 11.9436 29.9731 12.0248C30.0678 12.1465 30.203 12.2547 30.3653 12.3765C30.5412 12.5253 30.7576 12.6876 30.947 12.8905C31.3934 13.4045 31.9074 14.2567 31.9885 15.1224C32.0562 15.934 31.7451 16.6238 31.461 17.1514C31.4475 17.1649 31.4339 17.1919 31.4204 17.2461C30.9335 18.1794 30.8388 18.3147 30.7035 18.4499C30.3924 18.734 29.8919 18.7205 29.6078 18.3958C29.3373 18.0982 29.3373 17.6519 29.5943 17.3543C29.6349 17.2866 29.7431 17.0973 30.0407 16.5291C30.0678 16.4615 30.0948 16.4209 30.1083 16.4074C30.3653 15.9204 30.4735 15.5823 30.4465 15.2712C30.4059 14.8789 30.1354 14.3243 29.7972 13.932C29.7025 13.8238 29.5673 13.7156 29.4185 13.6074C29.2291 13.4586 28.9991 13.2828 28.7962 13.0393C28.5663 12.7687 28.4446 12.4576 28.3499 12.2141C28.2958 12.0789 28.2552 11.9571 28.2011 11.876C28.1064 11.7272 27.9035 11.646 27.7547 11.6055C27.4436 11.5108 27.0648 11.4567 26.6049 11.4161C25.9692 11.362 25.2793 11.4296 24.5354 11.5919C23.4938 11.8354 21.9788 12.4441 21.1131 13.3639C21.0455 13.4315 20.9779 13.5127 20.9238 13.5803C20.4639 14.1485 20.3015 14.5272 20.2474 14.7436C20.1527 15.1494 20.1798 15.6364 20.2068 16.0557C20.2339 16.5832 20.2745 17.1243 20.4503 17.5436C20.6262 17.9359 20.4368 18.3958 20.0445 18.5717C19.9634 18.6258 19.8552 18.6393 19.7469 18.6393Z" fill="white"/>
<path fill-rule="evenodd" clip-rule="evenodd" d="M21.8323 28.7712C21.7241 28.7712 21.6024 28.7442 21.5077 28.7036C21.1425 28.4601 20.9531 28.0543 21.1289 27.662C21.2777 27.3509 21.5212 26.7422 21.5347 26.0794C21.5347 25.8224 21.5077 25.7277 21.4536 25.5113C21.44 25.4572 21.4265 25.4166 21.413 25.3625C21.3048 24.9432 21.5483 24.5509 21.9676 24.4427C22.3869 24.3345 22.8062 24.5509 22.9144 24.9702C22.928 25.0108 22.9415 25.0514 22.955 25.092C23.0227 25.349 23.1038 25.633 23.0903 26.12C23.0632 27.0668 22.7386 27.9055 22.5357 28.3248C22.4004 28.6089 22.1299 28.7712 21.8323 28.7712Z" fill="white"/>
<path fill-rule="evenodd" clip-rule="evenodd" d="M27.9879 28.7842C27.7038 28.7842 27.4333 28.6354 27.298 28.3649C26.9058 27.5939 26.6758 26.7823 26.6623 26.0248C26.6487 25.646 26.7029 25.389 26.7434 25.1861C26.8246 24.8344 27.1222 24.6045 27.5009 24.6045C27.9338 24.6045 28.2855 24.9291 28.2855 25.362C28.2855 25.4296 28.2719 25.4972 28.2584 25.5514C28.2314 25.6596 28.2043 25.7678 28.2178 25.9842C28.2314 26.647 28.4748 27.2557 28.6777 27.648C28.8806 28.0267 28.7048 28.4731 28.326 28.676C28.2043 28.7301 28.1096 28.7842 27.9879 28.7842Z" fill="white"/>
<path fill-rule="evenodd" clip-rule="evenodd" d="M13.7025 38.5232H0.784544C0.351692 38.5232 0 38.1715 0 37.7522C0 36.3048 0.0541064 32.6662 0.716911 30.3125C0.892757 29.6633 1.12271 29.1357 1.40677 28.6488C1.71788 28.1347 2.40774 27.1744 3.63866 26.4845C4.81548 25.8217 5.95171 25.727 6.69568 25.7541C6.84447 25.7541 6.99326 25.8082 7.115 25.9029L9.84738 27.8913L12.7421 25.8893C12.8638 25.8082 12.9991 25.7541 13.1479 25.7541C13.8918 25.7135 15.0145 25.8217 16.2049 26.4845C16.8136 26.8227 17.3547 27.2826 17.8281 27.8236C18.1121 28.1483 18.0716 28.6352 17.7469 28.9193C17.4223 29.2034 16.9353 29.1628 16.6513 28.8381C16.2996 28.4323 15.8938 28.0942 15.4339 27.8372C14.6764 27.4178 13.9595 27.3096 13.4319 27.2961L10.2802 29.4739C10.0097 29.6633 9.64448 29.6633 9.37395 29.4604L6.39809 27.2826C5.87055 27.2826 5.15364 27.4043 4.40968 27.8236C3.46281 28.3512 2.93528 29.1222 2.7459 29.4333C2.52948 29.7985 2.36716 30.2043 2.21837 30.7183C1.70435 32.558 1.58261 35.4121 1.56909 36.9541H13.7025C14.1353 36.9541 14.4735 37.3058 14.4735 37.7251C14.4735 38.1715 14.1218 38.5232 13.7025 38.5232Z" fill="white"/>
<path fill-rule="evenodd" clip-rule="evenodd" d="M4.64001 38.5099C4.20716 38.5099 3.85547 38.1718 3.85547 37.7524V32.6259C3.85547 32.193 4.20716 31.8413 4.64001 31.8413C5.07286 31.8413 5.42456 32.193 5.42456 32.6259V37.7524C5.41103 38.1718 5.07286 38.5099 4.64001 38.5099Z" fill="white"/>
<path fill-rule="evenodd" clip-rule="evenodd" d="M9.95617 26.3087C8.6035 26.3087 7.34553 25.7271 6.39867 24.6855C5.47886 23.6575 4.96484 22.3049 4.96484 20.871V18.9097C4.96484 18.5715 5.18127 18.2875 5.49238 18.1792C5.70881 18.0981 6.37161 17.814 6.70978 17.4353C6.99384 17.1242 7.44022 17.0836 7.76485 17.3406C7.80543 17.3676 8.27887 17.7058 9.10399 17.8817C10.2402 18.1251 11.4847 17.9358 12.7697 17.3271C13.0808 17.1783 13.4325 17.2459 13.6625 17.5029C13.7977 17.6382 14.2171 18.044 14.5552 18.2604C14.7852 18.3957 14.9204 18.6527 14.9204 18.9232V20.8846C14.9204 22.3184 14.4064 23.6711 13.4866 24.6991C12.5668 25.7406 11.2953 26.3087 9.95617 26.3087ZM6.52041 19.4237V20.871C6.52041 23.0082 8.06244 24.7532 9.94264 24.7532C11.8228 24.7532 13.3649 23.0082 13.3649 20.871V19.3155C13.2026 19.1937 13.0538 19.0585 12.932 18.9503C10.2538 20.0324 8.29239 19.3831 7.37258 18.9097C7.08852 19.1261 6.77741 19.302 6.52041 19.4237Z" fill="white"/>
<path fill-rule="evenodd" clip-rule="evenodd" d="M5.75031 19.6939C5.45273 19.6939 5.16867 19.5181 5.0334 19.2205C4.78992 18.6524 4.74934 18.0437 4.72229 17.5432C4.69524 17.1239 4.66818 16.5963 4.78992 16.0688C4.89814 15.5954 5.16867 15.1084 5.61505 14.5673C5.68268 14.4862 5.75031 14.405 5.83147 14.3238C6.98123 13.0929 8.78027 12.606 9.30781 12.4842C10.0382 12.3219 10.7416 12.2543 11.3909 12.3084C11.8508 12.349 12.2431 12.4031 12.5813 12.4978C13.0953 12.6465 13.4875 12.9171 13.7445 13.3094C13.8663 13.4987 13.9474 13.6881 14.0015 13.8504C14.0421 13.9586 14.0827 14.0668 14.1233 14.1074C14.1909 14.1886 14.2991 14.2697 14.4209 14.3644C14.5697 14.4862 14.7455 14.6214 14.9078 14.7973C15.2866 15.2301 15.7194 15.947 15.7871 16.6775C15.8547 17.3809 15.5706 17.9896 15.3407 18.3954C15.3407 18.4089 15.3272 18.4359 15.3001 18.463C14.9214 19.207 14.8267 19.3558 14.6914 19.464C14.3803 19.748 13.8798 19.7345 13.5958 19.4099C13.3252 19.1123 13.3252 18.6794 13.5687 18.3818C13.6093 18.3277 13.6904 18.1654 13.9204 17.7326C13.9474 17.6785 13.961 17.6514 13.9745 17.6379C14.1774 17.2727 14.245 17.0156 14.2315 16.8127C14.2044 16.5287 14.0015 16.1094 13.7445 15.8253C13.6769 15.7441 13.5687 15.663 13.4605 15.5818C13.2982 15.4601 13.1088 15.3113 12.9465 15.1084C12.7436 14.8649 12.6489 14.6079 12.5677 14.405C12.5271 14.3103 12.4866 14.2156 12.4595 14.148C12.4189 14.0939 12.3242 14.0263 12.189 13.9992C11.9455 13.9316 11.6479 13.8775 11.2962 13.8504C10.7957 13.8098 10.2547 13.8639 9.67303 13.9992C8.84791 14.1886 7.65757 14.662 6.98123 15.3789C6.92713 15.433 6.88655 15.4871 6.83244 15.5412C6.48075 15.9741 6.35901 16.2582 6.31843 16.4205C6.2508 16.7181 6.26432 17.0833 6.29138 17.435C6.31843 17.8408 6.34548 18.2736 6.48075 18.5847C6.6566 18.977 6.46722 19.4369 6.07495 19.6128C5.95321 19.6669 5.845 19.6939 5.75031 19.6939Z" fill="white"/>
<path fill-rule="evenodd" clip-rule="evenodd" d="M7.43938 27.8238C7.33117 27.8238 7.20943 27.7968 7.11474 27.7562C6.72247 27.5668 6.5331 27.1475 6.72247 26.7552C6.83068 26.5253 7.02006 26.0518 7.03358 25.5378C7.03358 25.362 7.02006 25.2944 6.97948 25.1185C6.96595 25.0779 6.95242 25.0374 6.95242 24.9968C6.84421 24.5774 7.08769 24.1852 7.50702 24.077C7.92634 23.9687 8.34567 24.1852 8.45388 24.6045C8.46741 24.6451 8.46741 24.6721 8.48093 24.6992C8.53504 24.9156 8.60267 25.1591 8.60267 25.5649C8.58914 26.3089 8.34567 26.9717 8.14277 27.4045C7.99397 27.7021 7.73697 27.8238 7.43938 27.8238Z" fill="white"/>
<path fill-rule="evenodd" clip-rule="evenodd" d="M12.3763 27.8506C12.0922 27.8506 11.8217 27.7018 11.6864 27.4448C11.3482 26.7955 11.1724 26.1327 11.1589 25.4969C11.1453 25.1723 11.1859 24.9559 11.24 24.78C11.3212 24.4283 11.6323 24.2119 11.9975 24.2119C12.4304 24.2119 12.7821 24.523 12.7821 24.9559C12.7821 25.0235 12.7685 25.0911 12.755 25.1452C12.7415 25.2264 12.7144 25.294 12.728 25.4564C12.7415 25.9568 12.9309 26.4303 13.0932 26.7414C13.2961 27.1201 13.1338 27.58 12.755 27.7829C12.6197 27.8235 12.498 27.8506 12.3763 27.8506Z" fill="white"/>
<path fill-rule="evenodd" clip-rule="evenodd" d="M49.0877 38.5229H36.1697C35.7369 38.5229 35.4393 38.1577 35.4393 37.7248C35.4393 37.292 35.7369 36.9538 36.1697 36.9538H48.3031C48.2761 35.4118 48.1679 32.5577 47.6538 30.718C47.505 30.204 47.3427 29.8118 47.1263 29.433C46.9369 29.1219 46.4094 28.3509 45.4625 27.8233C44.705 27.404 43.9881 27.2958 43.4606 27.2823L40.3089 29.4601C40.0383 29.6494 39.6731 29.6494 39.4026 29.4465L36.4267 27.2688C35.8992 27.2688 35.1823 27.377 34.4383 27.8098C33.992 28.0668 33.5726 28.405 33.2209 28.8108C32.9369 29.1354 32.477 29.1219 32.1523 28.8378C31.8277 28.5538 31.7601 28.1209 32.0441 27.7963C32.5175 27.2552 33.0586 26.8089 33.6673 26.4572C34.8441 25.7944 35.9804 25.6997 36.7243 25.7267C36.8731 25.7267 37.0219 25.7808 37.1437 25.8755L39.876 27.8639L42.7707 25.862C42.8925 25.7808 43.0277 25.7267 43.1765 25.7267C43.9205 25.6861 45.0432 25.7944 46.2335 26.4572C47.4645 27.147 48.1543 28.1074 48.4654 28.6214C48.763 29.1084 48.9794 29.6359 49.1553 30.2852C49.8181 32.6388 49.8722 36.2775 49.8722 37.7248C49.8722 38.1847 49.5205 38.5229 49.0877 38.5229Z" fill="white"/>
<path fill-rule="evenodd" clip-rule="evenodd" d="M45.2318 38.5099C44.799 38.5099 44.4473 38.1718 44.4473 37.7524V32.6259C44.4473 32.193 44.799 31.8413 45.2318 31.8413C45.6647 31.8413 46.0164 32.193 46.0164 32.6259V37.7524C46.0164 38.1718 45.6647 38.5099 45.2318 38.5099Z" fill="white"/>
<path fill-rule="evenodd" clip-rule="evenodd" d="M39.9698 26.3087C38.6172 26.3087 37.3592 25.7271 36.4123 24.6855C35.4925 23.6575 34.9785 22.3049 34.9785 20.871V18.9097C34.9785 18.5715 35.1949 18.2875 35.5061 18.1792C35.7225 18.0981 36.3853 17.814 36.7234 17.4353C37.0075 17.1242 37.4539 17.0836 37.7785 17.3406C37.8191 17.3676 38.3061 17.7058 39.1177 17.8817C40.2539 18.1251 41.4983 17.9358 42.7834 17.3271C43.0945 17.1783 43.4462 17.2459 43.6761 17.5029C43.8114 17.6382 44.2307 18.044 44.5689 18.2604C44.7988 18.3957 44.9341 18.6527 44.9341 18.9232V20.8846C44.9341 22.3184 44.4201 23.6711 43.5003 24.6991C42.5805 25.7406 41.3225 26.3087 39.9698 26.3087ZM36.5476 19.4237V20.871C36.5476 23.0082 38.0896 24.7532 39.9698 24.7532C41.85 24.7532 43.3921 23.0082 43.3921 20.871V19.3155C43.2298 19.1937 43.081 19.0585 42.9592 18.9503C41.8906 19.3831 40.9302 19.5454 40.1051 19.5454C38.8742 19.5454 37.9544 19.1937 37.3998 18.9232C37.1022 19.1261 36.7911 19.302 36.5476 19.4237Z" fill="white"/>
<path fill-rule="evenodd" clip-rule="evenodd" d="M35.7659 19.6939C35.4683 19.6939 35.1843 19.5181 35.049 19.2205C34.8055 18.6524 34.765 18.0437 34.7379 17.5432C34.7109 17.1239 34.6838 16.5963 34.8055 16.0688C34.9138 15.5954 35.1843 15.1084 35.6307 14.5673C35.6983 14.4862 35.7659 14.405 35.8471 14.3238C36.9969 13.0929 38.7959 12.606 39.3234 12.4842C40.0539 12.3219 40.7573 12.2543 41.4065 12.3084C41.8664 12.349 42.2587 12.4031 42.5969 12.4978C43.1109 12.6465 43.5032 12.9171 43.7602 13.3094C43.8819 13.4987 43.9631 13.6881 44.0172 13.8504C44.0578 13.9586 44.0983 14.0668 44.1389 14.1074C44.2065 14.1886 44.3148 14.2697 44.4365 14.3644C44.5853 14.4862 44.7611 14.6214 44.9235 14.7973C45.3022 15.2301 45.7351 15.947 45.8027 16.6775C45.8703 17.3809 45.5863 17.9896 45.3563 18.3954C45.3563 18.4089 45.3428 18.4359 45.3157 18.463C44.937 19.207 44.8423 19.3422 44.707 19.464C44.3959 19.748 43.8954 19.7345 43.6114 19.4099C43.3408 19.1123 43.3408 18.6794 43.5843 18.3818C43.6249 18.3277 43.7061 18.1654 43.936 17.7326C43.9631 17.6785 43.9766 17.6379 43.9901 17.6243C44.193 17.2591 44.2607 17.0021 44.2471 16.7992C44.2201 16.5152 44.0172 16.0958 43.7602 15.8118C43.6925 15.7306 43.5843 15.6495 43.4761 15.5683C43.3138 15.4466 43.1244 15.2978 42.9621 15.0949C42.7592 14.8514 42.6645 14.5944 42.5834 14.3915C42.5428 14.2968 42.5022 14.2021 42.4751 14.1345C42.4346 14.0804 42.3399 14.0127 42.2046 13.9857C41.9611 13.918 41.6635 13.8639 41.3118 13.8369C40.8114 13.7963 40.2703 13.8504 39.6887 13.9857C38.8771 14.1751 37.6732 14.6485 36.9969 15.3654C36.9428 15.4195 36.9022 15.4736 36.8481 15.5277C36.4964 15.9606 36.3746 16.2446 36.3341 16.4069C36.2664 16.7045 36.2799 17.0698 36.307 17.4214C36.3341 17.8272 36.3611 18.2601 36.4964 18.5712C36.6722 18.9635 36.4828 19.4234 36.0906 19.5992C35.9824 19.6669 35.8741 19.6939 35.7659 19.6939Z" fill="white"/>
<path fill-rule="evenodd" clip-rule="evenodd" d="M37.442 27.8651C37.3338 27.8651 37.212 27.811 37.1173 27.7569C36.7251 27.5675 36.5627 27.1481 36.7386 26.7559C36.8468 26.5259 37.0362 26.0525 37.0497 25.5385C37.0497 25.3626 37.0362 25.295 36.9956 25.1192C36.9821 25.0786 36.9685 25.038 36.9685 24.9974C36.8603 24.5781 37.1038 24.1588 37.5231 24.0506C37.9424 23.9423 38.3618 24.1858 38.47 24.6051C38.4835 24.6457 38.4835 24.6728 38.497 24.6998C38.5511 24.9163 38.6188 25.1597 38.6188 25.5655C38.6053 26.3095 38.3618 26.9723 38.1589 27.4052C38.0236 27.7027 37.7396 27.8651 37.442 27.8651Z" fill="white"/>
<path fill-rule="evenodd" clip-rule="evenodd" d="M42.4056 27.8642C42.1215 27.8642 41.851 27.7154 41.7157 27.4448C41.3776 26.7956 41.2017 26.1327 41.1882 25.497C41.1747 25.1724 41.2153 24.9559 41.2558 24.7801C41.337 24.4284 41.6481 24.212 42.0133 24.1714C42.4462 24.1714 42.7979 24.5231 42.7979 24.9559C42.7979 25.0236 42.7843 25.0912 42.7708 25.1453C42.7573 25.2265 42.7302 25.2941 42.7438 25.4564C42.7573 25.9569 42.9467 26.4303 43.109 26.7414C43.3119 27.1202 43.1496 27.5936 42.7708 27.783C42.6491 27.8371 42.5273 27.8642 42.4056 27.8642Z" fill="white"/>
</svg>
