<svg width="24" height="23" viewBox="0 0 24 23" fill="none" xmlns="http://www.w3.org/2000/svg">
<path opacity="0.2" d="M17.5377 17.7856C16.6722 17.7856 15.9882 17.5483 15.4857 17.0457C14.9832 16.5572 14.7319 15.8871 14.7459 15.0496H14.704C14.2852 15.8452 13.6989 16.4455 12.9731 16.8643C12.2332 17.283 11.3957 17.4924 10.4465 17.4924C9.02263 17.4924 7.83611 16.9899 6.91481 15.9848C5.99351 14.9798 5.53286 13.6676 5.53286 12.0344C5.53286 11.49 5.5887 10.9316 5.72829 10.3454C5.86788 9.75908 6.09122 9.18675 6.39832 8.60047C6.70542 8.02815 7.06836 7.51166 7.50109 7.06497C7.93382 6.61828 8.47823 6.24138 9.13431 5.9622C9.77643 5.68302 10.4883 5.54343 11.27 5.54343C13.0708 5.54343 14.355 6.36701 15.1228 7.98627H15.1786L15.4019 5.71094H17.761L17.0072 13.4303C16.9793 13.7374 16.9654 14.0166 16.9654 14.2399C16.9654 14.91 17.0631 15.3427 17.2585 15.5661C17.4539 15.7894 17.775 15.9011 18.1938 15.9011C18.6265 15.9011 19.0313 15.7894 19.4082 15.5381C19.7711 15.2869 20.0922 14.9798 20.3435 14.5889C20.5947 14.1981 20.8041 13.7653 20.9856 13.2907C21.1671 12.8161 21.3066 12.3415 21.3904 11.8809C21.4742 11.4202 21.516 10.9875 21.516 10.5687C21.516 9.35426 21.2927 8.20962 20.8739 7.14872C20.4551 6.08783 19.8689 5.18049 19.1151 4.41274C18.3613 3.65895 17.4539 3.05871 16.3791 2.62598C15.2903 2.19324 14.1177 1.9699 12.8474 1.9699C11.9122 1.9699 11.0327 2.06761 10.1952 2.23512C9.35765 2.40263 8.61782 2.65389 7.96174 2.96099C7.30566 3.28205 6.69146 3.64499 6.1331 4.06376C5.57474 4.48254 5.08617 4.95714 4.68135 5.47363C4.26258 5.99012 3.89964 6.52056 3.59254 7.07893C3.27148 7.63729 3.02022 8.22357 2.82479 8.80986C2.62937 9.4101 2.48978 9.99638 2.39206 10.5827C2.29435 11.1689 2.25247 11.7413 2.25247 12.2996C2.25247 13.542 2.47582 14.7146 2.93647 15.8313C3.38316 16.948 3.99736 17.8972 4.76511 18.6789C5.53286 19.4746 6.4402 20.1028 7.50109 20.5634C8.56198 21.0241 9.66475 21.2474 10.8234 21.2474C12.9731 21.2474 14.9971 20.7588 16.8816 19.7538L17.7192 21.0939C15.6951 22.3781 13.3918 23.0063 10.8234 23.0063C9.35765 23.0063 7.9757 22.741 6.69146 22.2106C5.40723 21.6801 4.30446 20.9403 3.38316 19.9911C2.46186 19.0558 1.72202 17.9251 1.19158 16.5851C0.661133 15.245 0.39591 13.8212 0.39591 12.2857C0.39591 11.5877 0.451746 10.8618 0.591337 10.122C0.730928 9.38218 0.940315 8.61443 1.24742 7.81876C1.55452 7.02309 1.93141 6.2693 2.3781 5.54343C2.82479 4.81755 3.39712 4.13356 4.08111 3.47748C4.75115 2.83536 5.50494 2.26304 6.34249 1.78843C7.16607 1.31382 8.14321 0.936924 9.25994 0.657742C10.3767 0.37856 11.5632 0.238969 12.8474 0.238969C14.3969 0.238969 15.8347 0.504192 17.1468 1.00672C18.459 1.52321 19.5757 2.23512 20.497 3.1285C21.4044 4.03584 22.1163 5.12465 22.6188 6.39493C23.1213 7.67917 23.3865 9.06112 23.3865 10.5547C23.3865 10.9037 23.3586 11.2667 23.3168 11.6296C23.2609 11.9925 23.1911 12.3834 23.1074 12.8022C23.0097 13.2209 22.884 13.6118 22.7305 14.0026C22.563 14.3935 22.3815 14.7844 22.1581 15.1612C21.9348 15.5381 21.6835 15.8871 21.3764 16.1942C21.0693 16.5153 20.7204 16.7945 20.3574 17.0318C19.9945 17.2691 19.5618 17.4505 19.0871 17.5901C18.5986 17.7297 18.0821 17.7856 17.5377 17.7856ZM11.1165 15.3706C11.7307 15.3706 12.2891 15.245 12.8056 14.9798C13.3081 14.7285 13.7269 14.3795 14.034 13.9608C14.3411 13.542 14.5923 13.0953 14.7598 12.5928C14.9273 12.1042 15.025 11.6156 15.025 11.1131C15.025 10.122 14.7319 9.29843 14.1456 8.65631C13.5593 8.01419 12.8195 7.67917 11.9122 7.67917C11.4096 7.67917 10.949 7.76292 10.5163 7.91647C10.0835 8.07002 9.70663 8.27941 9.39953 8.53067C9.09243 8.7959 8.82721 9.103 8.60386 9.45198C8.38052 9.81491 8.21301 10.1918 8.10133 10.5827C7.98966 10.9875 7.93382 11.3923 7.93382 11.8111C7.93382 12.858 8.22697 13.7095 8.82721 14.3795C9.42745 15.0496 10.1952 15.3706 11.1165 15.3706Z" fill="white"/>
</svg>
