<svg width="14" height="24" viewBox="0 0 14 24" fill="none" xmlns="http://www.w3.org/2000/svg">
<g clip-path="url(#clip0_1860_2464)">
<path d="M6.82403 24C3.06101 24 0 20.6358 0 16.5V6C0 5.44688 0.407736 5.00016 0.909729 5.00016C1.41172 5.00016 1.81988 5.44734 1.81988 6V16.5C1.81988 19.5319 4.06457 21.9998 6.82403 21.9998C9.5835 21.9998 11.8282 19.5319 11.8282 16.5V5.49984C11.8282 3.57 10.3998 2.00016 8.64392 2.00016C6.88801 2.00016 5.45923 3.57 5.45923 5.49984V15.5002C5.45923 16.327 6.07168 17.0002 6.82403 17.0002C7.57638 17.0002 8.18884 16.327 8.18884 15.5002V6C8.18884 5.44688 8.59658 5.00016 9.09857 5.00016C9.60056 5.00016 10.0087 5.44734 10.0087 6V15.5002C10.0087 17.43 8.57994 18.9998 6.82403 18.9998C5.06813 18.9998 3.63934 17.43 3.63934 15.5002V5.49984C3.63934 2.46797 5.88402 0 8.64392 0C11.4038 0 13.6481 2.46797 13.6481 5.49984V16.5C13.6481 20.6358 10.5871 24 6.82403 24Z" fill="white"/>
</g>
<defs>
<clipPath id="clip0_1860_2464">
<rect width="13.6481" height="24" fill="white"/>
</clipPath>
</defs>
</svg>
