<svg width="221" height="221" viewBox="0 0 221 221" fill="none" xmlns="http://www.w3.org/2000/svg">
<g filter="url(#filter0_d_1548_98)">
<path d="M102.513 28.3503C97.1104 17.4702 85.8573 10 72.923 10H10V106.283H28.3367V76.133H72.923C85.8573 76.133 97.0431 68.7076 102.445 57.8275C104.71 53.3633 105.965 48.3383 105.965 43.0665C105.965 37.7947 104.71 32.8145 102.513 28.3503ZM100.45 56.8405C95.2274 67.3392 84.6692 73.8897 72.923 73.8897H26.095V104.04H12.2416V12.2433H72.923C84.6916 12.2433 95.2722 18.7938 100.495 29.3374C102.647 33.6894 103.723 38.3107 103.723 43.0665C103.723 47.8223 102.625 52.5333 100.45 56.8405ZM72.923 26.107H26.095V60.0709H72.923C82.2707 60.0709 89.8699 52.4436 89.8699 43.0665C89.8699 33.6894 82.2707 26.107 72.923 26.107ZM72.923 57.8275H28.3367V28.3503H72.923C81.0378 28.3503 87.6282 34.9457 87.6282 43.0665C87.6282 51.1873 81.0378 57.8275 72.923 57.8275ZM72.923 26.107H26.095V60.0709H72.923C82.2707 60.0709 89.8699 52.4436 89.8699 43.0665C89.8699 33.6894 82.2707 26.107 72.923 26.107ZM72.923 57.8275H28.3367V28.3503H72.923C81.0378 28.3503 87.6282 34.9457 87.6282 43.0665C87.6282 51.1873 81.0378 57.8275 72.923 57.8275ZM72.923 26.107H26.095V60.0709H72.923C82.2707 60.0709 89.8699 52.4436 89.8699 43.0665C89.8699 33.6894 82.2707 26.107 72.923 26.107ZM72.923 57.8275H28.3367V28.3503H72.923C81.0378 28.3503 87.6282 34.9457 87.6282 43.0665C87.6282 51.1873 81.0378 57.8275 72.923 57.8275Z" fill="white"/>
<path d="M100.495 29.3376C95.2718 18.794 84.6912 12.2435 72.9226 12.2435H12.2412V104.04H26.0946V73.8899H72.9226C84.6688 73.8899 95.2269 67.3394 100.45 56.8407C102.624 52.5335 103.723 47.8898 103.723 43.0667C103.723 38.2436 102.647 33.6896 100.495 29.3376ZM72.9226 60.071H26.0946V26.1072H72.9226C82.2702 26.1072 89.8694 33.7121 89.8694 43.0667C89.8694 52.4213 82.2702 60.071 72.9226 60.071Z" fill="white"/>
<path d="M116.03 12.2882C140.284 13.4547 159.652 33.5773 159.652 58.1416C159.652 82.7059 140.284 102.806 116.03 103.995V12.2882ZM113.788 10V106.283C140.352 106.283 161.894 84.7249 161.894 58.1416C161.894 31.5583 140.352 10 113.788 10Z" fill="white"/>
<path d="M207.759 12.2882V103.995C183.504 102.828 164.136 82.7059 164.136 58.1416C164.136 33.5773 183.504 13.4771 207.759 12.2882ZM210 10C183.437 10 161.895 31.5583 161.895 58.1416C161.895 84.7249 183.437 106.283 210 106.283V10Z" fill="white"/>
<path d="M103.97 116.086V135.962C90.5872 137.106 80.0514 148.345 80.0514 161.984C80.0514 175.624 90.5872 186.93 103.97 188.074V207.883H12.2416V188.074C25.6243 186.93 36.16 175.669 36.16 161.984C36.16 148.3 25.6243 137.084 12.2416 135.962V116.086H103.97ZM106.211 113.843H10V138.093C23.1809 138.093 33.9184 148.771 33.9184 161.984C33.9184 175.198 23.1809 185.943 10 185.943V210.148H106.211V185.943C93.0306 185.943 82.2931 175.198 82.2931 161.984C82.2931 148.771 93.0306 138.093 106.211 138.093V113.843Z" fill="white"/>
<path d="M113.766 127.797V155.816L167.969 210.127H195.967L113.766 127.797ZM116.007 154.896V133.203L190.564 207.883H168.888L116.007 154.896Z" fill="white"/>
<path d="M190.565 209.383H194.182L191.627 206.823L117.069 132.143L114.508 129.578V133.203V154.896V155.516L114.946 155.956L167.827 208.943L168.266 209.383H168.888H190.565Z" fill="white" stroke="white" stroke-width="3"/>
<path d="M113.766 183.857V210.126H140.015L113.766 183.857ZM116.007 189.263L134.591 207.883H116.007V189.263Z" fill="white"/>
<path d="M134.591 209.383H138.207L135.653 206.824L117.07 188.204L114.508 185.637V189.264V207.883V209.383H116.008H134.591Z" fill="white" stroke="white" stroke-width="3"/>
<path d="M155.774 113.843H127.754L209.977 196.105V168.086L155.774 113.843ZM207.736 190.699L133.179 116.086H154.855L207.736 169.006V190.699Z" fill="white"/>
<path d="M209.236 169.006V168.385L208.797 167.946L155.916 115.026L155.477 114.586H154.855H133.179H129.559L132.118 117.147L206.675 191.759L209.236 194.322V190.699V169.006Z" fill="white" stroke="white" stroke-width="3"/>
<path d="M183.795 113.843L209.977 140.045V113.843H183.795ZM207.736 134.638L189.197 116.086H207.736V134.638Z" fill="white"/>
<path d="M209.236 116.086V114.586H207.736H189.197H185.578L188.136 117.147L206.675 135.699L209.236 138.262V134.639V116.086Z" fill="white" stroke="white" stroke-width="3"/>
</g>
<defs>
<filter id="filter0_d_1548_98" x="0" y="0" width="220.736" height="220.883" filterUnits="userSpaceOnUse" color-interpolation-filters="sRGB">
<feFlood flood-opacity="0" result="BackgroundImageFix"/>
<feColorMatrix in="SourceAlpha" type="matrix" values="0 0 0 0 0 0 0 0 0 0 0 0 0 0 0 0 0 0 127 0" result="hardAlpha"/>
<feOffset/>
<feGaussianBlur stdDeviation="5"/>
<feComposite in2="hardAlpha" operator="out"/>
<feColorMatrix type="matrix" values="0 0 0 0 1 0 0 0 0 1 0 0 0 0 1 0 0 0 0.5 0"/>
<feBlend mode="normal" in2="BackgroundImageFix" result="effect1_dropShadow_1548_98"/>
<feBlend mode="normal" in="SourceGraphic" in2="effect1_dropShadow_1548_98" result="shape"/>
</filter>
</defs>
</svg>
