<svg width="204" height="226" viewBox="0 0 204 226" fill="none" xmlns="http://www.w3.org/2000/svg">
<g filter="url(#filter0_d_1548_228)">
<path d="M154.656 78.4874L115.298 10L102 33.153L88.702 10L49.3584 78.4874L10 146.96H194L154.656 78.4874ZM11.9635 145.824L50.3402 79.0554L88.702 12.2869L101.033 33.7359L127.079 79.0704L165.441 145.839H11.9635V145.824Z" fill="white"/>
<path d="M106.849 90.7889L102.981 84.0627L89.6686 60.9097L88.6868 59.2057L87.7051 60.9097L70.5397 90.7889L53.3743 120.653L52.3926 122.357H124.981L123.999 120.653L106.834 90.7889H106.849ZM80.9817 121.221L98.1471 91.3569L102.015 84.6307L105.882 91.3569L123.047 121.221H80.9966H80.9817Z" fill="white"/>
</g>
<path d="M103.488 178.663C102.625 175.703 100.781 173.551 97.9843 172.25C96.0655 171.369 94.0277 171.04 91.9154 170.935C90.6511 171.114 89.357 171.189 88.1224 171.488C84.4484 172.37 81.8304 174.537 80.5512 178.184C79.7926 180.367 79.6587 182.609 80.0306 184.881C80.6553 188.737 82.6336 191.622 86.3226 193.117C89.8925 194.551 93.5368 194.551 97.1513 193.281C100.29 192.175 102.402 189.948 103.414 186.749C104.261 184.074 104.291 181.353 103.488 178.648V178.663ZM98.0289 184.881C97.434 187.168 95.9614 188.558 93.6558 189.036C92.2873 189.32 90.904 189.29 89.5653 188.872C87.7208 188.304 86.5011 187.063 85.9209 185.21C85.4003 183.52 85.3855 181.817 85.8912 180.128C86.5754 177.781 88.405 176.316 90.8891 176.077C91.2461 176.047 91.618 176.032 91.9749 176.002C91.9749 176.002 91.9749 175.972 91.9749 175.957C92.6741 176.062 93.4029 176.122 94.0872 176.301C96.006 176.824 97.3001 178.035 97.91 179.948C98.4306 181.577 98.4454 183.236 98.0141 184.896L98.0289 184.881Z" fill="white"/>
<path d="M126.751 177.213C126.082 174.477 124.401 172.729 121.664 172.146C120.504 171.892 119.314 171.712 118.139 171.697C114.584 171.638 111.044 171.667 107.489 171.667C107.355 171.667 107.221 171.682 107.072 171.697V193.595C107.236 193.595 107.37 193.625 107.504 193.625C110.85 193.625 114.197 193.655 117.544 193.625C118.764 193.61 119.983 193.49 121.188 193.281C124.193 192.743 126.112 190.964 126.751 187.945C127.034 186.644 127.168 185.299 127.257 183.969C127.391 181.712 127.317 179.44 126.781 177.228L126.751 177.213ZM121.307 185.553C120.891 187.661 119.835 188.662 117.693 188.812C116.161 188.916 114.614 188.857 113.082 188.872C112.963 188.872 112.829 188.872 112.65 188.857V176.465C112.799 176.451 112.933 176.421 113.067 176.421C114.599 176.421 116.131 176.436 117.678 176.436C117.767 176.436 117.871 176.436 117.961 176.451C120.013 176.54 121.01 177.377 121.337 179.425C121.664 181.458 121.679 183.52 121.292 185.553H121.307Z" fill="white"/>
<path d="M167.806 192.608C166.229 193.535 164.489 193.968 162.689 194.088C159.937 194.282 157.2 194.193 154.612 193.072C152.217 192.04 150.536 189.933 150.477 186.525H151.161C152.574 186.525 153.987 186.525 155.4 186.525C155.668 186.525 155.831 186.57 155.891 186.884C156.084 187.84 156.694 188.483 157.587 188.782C159.699 189.514 161.856 189.514 163.998 188.916C164.414 188.797 164.816 188.543 165.143 188.274C165.872 187.646 165.827 186.644 165.084 186.032C164.459 185.508 163.7 185.344 162.927 185.254C160.725 185 158.509 184.791 156.307 184.477C155.474 184.358 154.641 184.088 153.853 183.745C151.964 182.938 150.953 181.443 150.774 179.38C150.551 176.794 151.146 174.507 153.362 172.938C154.121 172.4 154.984 171.981 155.876 171.727C158.911 170.86 161.975 170.726 165.024 171.682C167.969 172.624 169.977 174.522 170.557 177.691C170.587 177.9 170.602 178.095 170.632 178.304C170.632 178.379 170.632 178.453 170.632 178.558C170.498 178.558 170.394 178.588 170.29 178.588C168.728 178.588 167.151 178.588 165.574 178.588C165.426 178.588 165.173 178.438 165.128 178.319C164.801 177.213 164.013 176.585 162.971 176.271C161.142 175.718 159.312 175.763 157.512 176.421C157.14 176.555 156.769 176.809 156.486 177.078C155.802 177.736 155.876 178.782 156.709 179.231C157.393 179.604 158.182 179.858 158.94 179.978C161.067 180.292 163.224 180.471 165.351 180.77C167.047 181.009 168.579 181.622 169.695 182.997C172.075 185.912 171.138 190.665 167.806 192.623V192.608Z" fill="white"/>
<path d="M147.948 188.857V193.595H130.381V171.697H147.933V176.421H135.989V180.113H136.509C139.321 180.113 142.117 180.113 144.928 180.113C145.746 180.113 145.627 180.068 145.627 180.845C145.627 182.011 145.627 183.177 145.627 184.343V184.896H135.989V188.872H147.933L147.948 188.857Z" fill="white"/>
<path d="M56.7811 185.882C56.7811 188.02 56.1564 189.933 54.5797 191.442C53.2707 192.698 51.6643 193.415 49.9239 193.774C46.8597 194.417 43.8253 194.327 40.9098 193.102C37.8308 191.801 36.1648 189.454 36.1351 186.062C36.0904 181.368 36.1351 176.66 36.1351 171.966C36.1351 171.892 36.1351 171.802 36.1499 171.682H41.6982V172.265C41.6982 176.451 41.6982 180.651 41.6982 184.836C41.6982 185.299 41.7131 185.763 41.8023 186.211C42.1296 187.87 43.26 188.722 44.8368 189.051C46.0416 189.29 47.2613 189.275 48.4662 188.976C50.0875 188.573 51.0098 187.481 51.1734 185.807C51.2031 185.538 51.2031 185.269 51.2031 185C51.2031 180.755 51.2031 176.525 51.2031 172.28V171.682H56.7811C56.7811 171.847 56.796 171.996 56.796 172.161C56.796 176.735 56.796 181.308 56.796 185.882H56.7811Z" fill="white"/>
<path d="M35.3467 193.386C32.58 186.256 29.8282 179.141 27.0764 172.011C26.9574 171.712 26.8086 171.653 26.5111 171.653C24.4584 171.653 22.4206 171.667 20.3679 171.653C19.9365 171.653 19.7431 171.772 19.5795 172.176C17.1847 178.468 14.7899 184.761 12.3802 191.039C12.0678 191.861 11.7554 192.698 11.3984 193.61C13.3173 193.61 15.1469 193.61 16.9616 193.595C17.0806 193.595 17.2442 193.386 17.3037 193.236C17.7202 192.13 18.1218 191.024 18.4937 189.903C18.5978 189.589 18.7465 189.499 19.0738 189.499C21.9148 189.499 24.7559 189.499 27.5821 189.499C27.8796 189.499 28.0283 189.589 28.1325 189.888C28.5043 190.994 28.906 192.085 29.2778 193.176C29.3819 193.49 29.5307 193.625 29.8728 193.625C31.5537 193.61 33.2345 193.625 34.9153 193.625C35.0641 193.625 35.2128 193.61 35.3764 193.595C35.3467 193.475 35.3467 193.43 35.3318 193.386H35.3467ZM20.3381 184.776C21.3347 181.966 22.3313 179.186 23.3131 176.406C23.3428 176.406 23.3874 176.406 23.4172 176.421C24.384 179.186 25.3509 181.951 26.3475 184.776H20.3381Z" fill="white"/>
<path d="M194 193.625H193.39C191.412 193.625 189.433 193.625 187.44 193.625C187.053 193.625 186.801 193.505 186.548 193.221C184.317 190.74 182.085 188.274 179.839 185.792C179.72 185.673 179.646 185.523 179.542 185.389C179.497 185.419 179.452 185.449 179.393 185.479V193.595H173.845V171.682H179.378V180.382C179.378 180.382 179.482 180.441 179.542 180.471C179.631 180.337 179.69 180.202 179.795 180.083C182.189 177.392 184.599 174.702 186.994 171.996C187.217 171.757 187.425 171.638 187.767 171.638C189.79 171.638 191.828 171.638 193.985 171.638C190.564 175.389 187.217 179.036 183.826 182.758C187.187 186.345 190.534 189.918 194 193.61V193.625Z" fill="white"/>
<path d="M78.9296 171.697V176.391H71.9682V193.58H66.3456V176.421H59.3545V171.697H78.9296Z" fill="white"/>
<path d="M10.7734 203.684H16.5597V225.283H10.7734V203.684Z" fill="white"/>
<path d="M18.2852 203.684H24.949L32.2376 216.299H32.7731V203.684H38.4255V225.283H31.8955L24.4433 212.667H23.9375V225.283H18.2852V203.684Z" fill="white"/>
<path d="M39.6902 218.228H44.8964C44.9856 219.872 46.2351 220.903 49.1357 220.933C51.7685 220.963 53.0626 220.066 53.0626 218.825C53.0626 217.869 52.4676 217.151 50.4298 216.793L47.9903 216.359C44.3163 215.672 40.1662 214.969 40.1662 209.723C40.1662 205.508 43.2602 202.967 49.1803 202.967C54.5501 202.967 58.3134 204.76 58.239 210.679H53.0775C52.8246 209.065 51.6495 208.034 49.0464 208.034C46.7557 208.034 45.7294 208.826 45.7294 210.037C45.7294 210.889 46.2649 211.651 47.916 211.965L49.9687 212.368C53.7766 213.086 58.8042 213.4 58.8042 219.08C58.8042 223.623 55.5764 226.015 49.1357 226C42.6949 225.97 39.5712 223.668 39.6754 218.243L39.6902 218.228Z" fill="white"/>
<path d="M79.1521 209.08H72.1015V225.268H66.3153V209.08H59.2646V203.684H79.167V209.08H79.1521Z" fill="white"/>
<path d="M80.7891 203.684H86.5753V225.283H80.7891V203.684Z" fill="white"/>
<path d="M108.084 209.08H101.033V225.268H95.2469V209.08H88.1963V203.684H108.099V209.08H108.084Z" fill="white"/>
<path d="M109.72 216V203.684H115.551V215.836C115.551 218.766 116.77 220.559 119.522 220.559C122.274 220.559 123.509 218.766 123.509 215.836V203.684H129.325V215.971C129.325 222.831 125.963 226 119.522 226C113.081 226 109.72 222.831 109.72 216Z" fill="white"/>
<path d="M150.848 209.08H143.798V225.268H138.012V209.08H130.961V203.684H150.863V209.08H150.848Z" fill="white"/>
<path d="M152.484 203.684H169.546V208.871H158.271V212.294H169.129V216.643H158.271V220.066H169.546V225.283H152.484V203.684Z" fill="white"/>
<defs>
<filter id="filter0_d_1548_228" x="0" y="0" width="204" height="156.96" filterUnits="userSpaceOnUse" color-interpolation-filters="sRGB">
<feFlood flood-opacity="0" result="BackgroundImageFix"/>
<feColorMatrix in="SourceAlpha" type="matrix" values="0 0 0 0 0 0 0 0 0 0 0 0 0 0 0 0 0 0 127 0" result="hardAlpha"/>
<feOffset/>
<feGaussianBlur stdDeviation="5"/>
<feComposite in2="hardAlpha" operator="out"/>
<feColorMatrix type="matrix" values="0 0 0 0 1 0 0 0 0 1 0 0 0 0 1 0 0 0 0.5 0"/>
<feBlend mode="normal" in2="BackgroundImageFix" result="effect1_dropShadow_1548_228"/>
<feBlend mode="normal" in="SourceGraphic" in2="effect1_dropShadow_1548_228" result="shape"/>
</filter>
</defs>
</svg>
