<svg width="236" height="236" viewBox="0 0 236 236" fill="none" xmlns="http://www.w3.org/2000/svg">
<g filter="url(#filter0_d_1548_174)">
<path d="M117.997 226C58.4468 226 10 177.553 10 117.997C10 58.4414 58.4468 10 117.997 10C177.548 10 225.995 58.4468 225.995 117.997C225.995 177.548 177.548 225.995 117.997 225.995V226ZM117.997 13.2388C60.2336 13.2388 13.2388 60.2336 13.2388 117.997C13.2388 175.761 60.2336 222.756 117.997 222.756C175.761 222.756 222.756 175.761 222.756 117.997C222.756 60.2336 175.766 13.2388 117.997 13.2388Z" fill="white"/>
</g>
<g filter="url(#filter1_d_1548_174)">
<path d="M65.8524 169.516C66.1979 170.158 66.4354 170.833 66.5649 171.535C66.6945 172.236 66.7107 172.938 66.6135 173.64C66.5163 174.342 66.2788 175.049 65.8956 175.756C65.5177 176.463 64.9995 177.127 64.3518 177.748C63.7796 178.293 63.1642 178.746 62.5057 179.097C61.8471 179.448 61.167 179.686 60.4598 179.804C59.7527 179.923 59.0509 179.934 58.3438 179.826C57.6367 179.718 56.9349 179.475 56.2278 179.086C55.5261 178.698 54.8675 178.185 54.2468 177.537C53.7933 177.062 53.4155 176.533 53.1024 175.945C52.7893 175.356 52.5626 174.687 52.4114 173.937C52.2603 173.186 52.2333 172.425 52.3305 171.653L55.4559 171.977C55.3911 172.566 55.4397 173.165 55.6016 173.78C55.7636 174.395 56.0605 174.93 56.5031 175.389C56.7352 175.632 56.9889 175.842 57.2696 176.015C57.5503 176.188 57.8364 176.317 58.1387 176.409C58.441 176.501 58.7541 176.544 59.0833 176.549C59.4126 176.549 59.7365 176.511 60.0604 176.425C60.3842 176.339 60.7135 176.198 61.0428 176.004C61.3721 175.81 61.6906 175.572 61.9928 175.281C62.5218 174.779 62.8943 174.212 63.121 173.58C63.3477 172.949 63.3855 172.306 63.2452 171.653C63.1048 171 62.7863 170.406 62.2789 169.877C61.8579 169.435 61.3451 169.111 60.7459 168.9C60.1467 168.69 59.5422 168.609 58.9322 168.663L58.7649 165.521C59.7743 165.435 60.7891 165.564 61.8039 165.926C62.8187 166.282 63.7256 166.887 64.5353 167.729C65.0643 168.285 65.5015 168.884 65.8524 169.527V169.516Z" fill="white"/>
<path d="M57.0165 159.162C57.1839 160.102 57.1677 161.003 56.9679 161.856C56.7682 162.709 56.3849 163.519 55.8182 164.28C55.2514 165.041 54.5334 165.694 53.659 166.239C52.7845 166.779 51.883 167.135 50.9492 167.308C50.0153 167.475 49.1193 167.464 48.261 167.27C47.4027 167.076 46.5876 166.693 45.8211 166.12C45.0546 165.554 44.396 164.825 43.8455 163.94C43.3057 163.071 42.9494 162.174 42.7821 161.241C42.6093 160.312 42.6255 159.416 42.8252 158.563C43.025 157.71 43.4028 156.895 43.9696 156.129C44.5364 155.362 45.2597 154.698 46.1504 154.148C47.0357 153.597 47.9479 153.241 48.8872 153.073C49.8264 152.906 50.7225 152.928 51.5808 153.127C52.4336 153.327 53.2433 153.71 53.999 154.277C54.7548 154.844 55.4079 155.557 55.9423 156.426C56.4929 157.311 56.8492 158.223 57.0219 159.162H57.0165ZM51.8884 156.69C51.2839 156.393 50.6415 156.28 49.9506 156.339C49.2596 156.399 48.5903 156.631 47.9425 157.03C47.2948 157.43 46.7928 157.932 46.4257 158.525C46.0586 159.119 45.8805 159.751 45.8805 160.426C45.8805 161.095 46.064 161.732 46.4365 162.331C46.8143 162.941 47.311 163.394 47.9155 163.686C48.5255 163.983 49.1733 164.096 49.8642 164.037C50.5551 163.977 51.2245 163.745 51.8614 163.351C52.4984 162.957 52.995 162.461 53.3567 161.867C53.7184 161.273 53.9019 160.636 53.9073 159.961C53.9127 159.287 53.7291 158.644 53.3459 158.034C52.9734 157.435 52.4876 156.987 51.883 156.696L51.8884 156.69Z" fill="white"/>
<path d="M38.2202 153.047L37.0488 149.991L47.2672 146.072L45.189 140.653L47.8988 139.611L51.1537 148.091L38.2202 153.052V153.047Z" fill="white"/>
<path d="M33.6864 140.086L31.8564 131.228L34.712 130.64L35.8941 136.367L38.496 135.827L37.5621 131.303L40.3691 130.72L41.3029 135.244L43.7644 134.737L42.4959 128.61L45.3406 128.021L47.2569 137.279L33.6918 140.086H33.6864Z" fill="white"/>
<path d="M44.7468 121.479C44.5687 122.202 44.288 122.861 43.9101 123.466C43.5269 124.065 43.0626 124.588 42.5174 125.036C41.9722 125.484 41.3245 125.835 40.5742 126.094C39.8238 126.354 39.0088 126.494 38.1289 126.515C37.1195 126.542 36.1748 126.407 35.3003 126.105C34.4205 125.808 33.654 125.371 33.0008 124.804C32.3477 124.237 31.8186 123.509 31.43 122.629C31.0413 121.749 30.8308 120.772 30.7984 119.692C30.7714 118.656 30.9604 117.63 31.3598 116.616C31.7647 115.601 32.353 114.737 33.125 114.03L35.1492 116.281C34.2585 117.242 33.8321 118.359 33.8645 119.622C33.8753 120.113 33.9832 120.572 34.1776 120.999C34.3719 121.431 34.6472 121.803 34.9981 122.121C35.3489 122.44 35.7862 122.688 36.3152 122.866C36.8388 123.045 37.4163 123.131 38.0479 123.115C38.6093 123.099 39.1329 123.001 39.6241 122.818C40.1153 122.634 40.5418 122.381 40.898 122.057C41.2597 121.733 41.5404 121.333 41.7455 120.853C41.9507 120.373 42.0424 119.849 42.0262 119.277C42.0046 118.451 41.7779 117.668 41.3461 116.923L39.7753 116.966L39.8454 119.622L37.0925 119.692L36.9413 113.906L43.1706 113.744C43.6888 114.365 44.1152 115.169 44.4553 116.157C44.7954 117.145 44.9735 118.159 45.0005 119.207C45.0221 120.005 44.9411 120.767 44.763 121.49L44.7468 121.479Z" fill="white"/>
<path d="M31.4355 108.907L31.835 105.636L45.5836 107.326L45.1788 110.597L31.4355 108.907Z" fill="white"/>
<path d="M46.5769 100.308C45.9939 101.064 45.3138 101.652 44.5419 102.073C43.7699 102.494 42.9171 102.754 41.9724 102.84C41.0278 102.932 40.0615 102.835 39.0737 102.548C38.0859 102.262 37.2168 101.83 36.4665 101.248C35.7162 100.665 35.1278 99.9898 34.6959 99.2233C34.2695 98.4567 34.005 97.5931 33.9132 96.643C33.8215 95.693 33.9186 94.716 34.2101 93.7119C34.4962 92.7295 34.9227 91.8658 35.5002 91.1155C36.0778 90.3652 36.7472 89.7768 37.5191 89.3558C38.2856 88.9293 39.1439 88.6702 40.0939 88.5731C41.044 88.4759 42.021 88.5731 43.0304 88.8646C44.029 89.156 44.9089 89.5933 45.6592 90.1817C46.4095 90.77 46.9979 91.4502 47.419 92.2167C47.84 92.9886 48.0937 93.8415 48.1855 94.7807C48.2719 95.72 48.1747 96.6862 47.894 97.6632C47.6025 98.6619 47.1707 99.5417 46.5823 100.297L46.5769 100.308ZM44.9737 94.8455C44.7902 94.2031 44.4447 93.6418 43.9373 93.1667C43.4299 92.6917 42.8091 92.3516 42.0804 92.1411C41.3462 91.9306 40.6391 91.8874 39.9536 92.017C39.268 92.1465 38.6743 92.4326 38.1776 92.8806C37.6756 93.3287 37.3302 93.8901 37.1358 94.5648C36.9361 95.2558 36.9307 95.9251 37.1196 96.5729C37.3086 97.2206 37.6594 97.782 38.1668 98.257C38.6743 98.732 39.2896 99.0721 40.0183 99.2826C40.7363 99.4932 41.438 99.5309 42.1236 99.4014C42.8037 99.2718 43.3975 98.9804 43.9049 98.5323C44.4123 98.0843 44.7632 97.5175 44.9629 96.8266C45.1572 96.1518 45.1626 95.4879 44.9791 94.8455H44.9737Z" fill="white"/>
<path d="M41.7667 75.5963L44.3685 71.5748C44.9569 70.668 45.637 69.9285 46.4143 69.3563C47.1916 68.7841 48.0013 68.4062 48.8488 68.2227C49.6963 68.0392 50.5708 68.0338 51.4722 68.2119C52.3791 68.39 53.2535 68.7571 54.1064 69.3077C54.9593 69.8583 55.6556 70.506 56.19 71.2402C56.7298 71.9797 57.0861 72.7624 57.2696 73.5937C57.4532 74.425 57.4424 75.3102 57.2373 76.2495C57.0321 77.1887 56.6273 78.1172 56.0281 79.0456L53.3939 83.1157L41.7559 75.5909L41.7667 75.5963ZM53.4857 77.6422C53.7394 77.2481 53.9229 76.8433 54.0363 76.4222C54.1496 76.0012 54.1874 75.5963 54.155 75.1969C54.1226 74.7974 54.0309 74.4142 53.8797 74.0417C53.7286 73.6693 53.518 73.3238 53.2428 73.0053C52.9675 72.6814 52.6436 72.4007 52.2711 72.1578C51.6288 71.7422 50.9648 71.5047 50.2739 71.4399C49.5829 71.3751 48.9352 71.4885 48.3306 71.7746C47.726 72.0661 47.2348 72.5033 46.8569 73.0917L45.9555 74.4843L52.703 78.8513L53.4857 77.6422Z" fill="white"/>
<path d="M51.5371 61.648L57.734 55.057L59.8554 57.0543L55.8501 61.3133L57.7826 63.1324L60.9458 59.7695L63.0348 61.7343L59.8716 65.0973L61.7015 66.8192L65.9875 62.2633L68.1035 64.2552L61.6259 71.143L51.5371 61.6534V61.648Z" fill="white"/>
<path d="M67.375 47.1976L70.0902 45.3299L77.9388 56.7412L75.2237 58.6089L67.375 47.1976Z" fill="white"/>
<path d="M85.3614 37.0872L91.4125 49.5511L88.3897 51.0194L80.0336 45.8481L80.0012 45.8643L83.6287 53.3351L80.7084 54.7548L74.6572 42.2908L77.5937 40.8658L86.1171 46.1882L86.1495 46.172L82.4303 38.5123L85.3614 37.0926V37.0872Z" fill="white"/>
<path d="M98.3703 47.3217C97.6253 47.3056 96.9182 47.1814 96.2489 46.9439C95.5795 46.7064 94.9641 46.3663 94.4081 45.9345C93.8521 45.4972 93.3663 44.9466 92.9453 44.2719C92.5243 43.5971 92.2112 42.8306 91.9952 41.9778C91.7469 41.0007 91.6714 40.0507 91.7685 39.1276C91.8657 38.2046 92.1194 37.3625 92.5296 36.596C92.9399 35.8295 93.5337 35.1601 94.3056 34.5825C95.0775 34.0049 95.9843 33.5839 97.0316 33.3194C98.0356 33.0657 99.0774 33.0225 100.157 33.1898C101.237 33.3572 102.208 33.7404 103.072 34.3396L101.323 36.8119C100.184 36.1587 99.0072 35.986 97.7819 36.2991C97.3069 36.4178 96.8804 36.623 96.508 36.9091C96.1301 37.1951 95.8278 37.546 95.5957 37.9563C95.3636 38.3665 95.2178 38.8523 95.1585 39.4029C95.0991 39.9535 95.1477 40.5365 95.2988 41.1465C95.4392 41.6863 95.6497 42.1775 95.9358 42.6147C96.2219 43.0519 96.5673 43.4136 96.9614 43.6889C97.3554 43.9642 97.8089 44.1531 98.3217 44.2449C98.8345 44.3367 99.3689 44.3151 99.9195 44.1747C100.718 43.9696 101.436 43.5756 102.068 42.9926L101.679 41.4703L99.1044 42.1235L98.4242 39.4569L104.038 38.0318L105.571 44.0722C105.08 44.7145 104.389 45.3083 103.504 45.8535C102.618 46.3987 101.668 46.8035 100.648 47.0626C99.8709 47.2624 99.1152 47.3541 98.3703 47.3379V47.3217Z" fill="white"/>
<path d="M107.822 31.4463L116.853 30.8579L117.042 33.7674L111.206 34.1453L111.379 36.7957L115.989 36.4934L116.172 39.3543L111.563 39.6512L111.725 42.1613L117.97 41.7564L118.159 44.6551L108.718 45.2705L107.816 31.4409L107.822 31.4463Z" fill="white"/>
<path d="M134.153 32.2668L132.534 46.0262L129.198 45.6322L124.95 36.7741H124.912L123.94 45.0168L120.718 44.639L122.337 30.8795L125.581 31.2628L129.894 40.3422H129.932L130.925 31.8943L134.159 32.2722L134.153 32.2668Z" fill="white"/>
<path d="M139.476 33.6271L142.655 34.5015L138.99 47.8615L135.811 46.9871L139.476 33.6271Z" fill="white"/>
<path d="M147.734 36.0615L156.069 39.581L154.935 42.2638L149.548 39.9859L148.512 42.4312L152.765 44.2287L151.648 46.8683L147.394 45.0708L146.417 47.3865L152.182 49.821L151.054 52.4984L142.342 48.817L147.734 36.0562V36.0615Z" fill="white"/>
<path d="M159.41 57.6265L159.448 52.3365L158.487 51.7157L156.064 55.4673L153.37 53.7291L160.884 42.0911L165.418 45.0168C166.115 45.4648 166.671 45.9668 167.081 46.5174C167.491 47.0626 167.745 47.624 167.842 48.2016C167.939 48.7792 167.918 49.3622 167.772 49.9505C167.626 50.5389 167.367 51.1327 166.989 51.7157C166.433 52.5794 165.775 53.1839 165.024 53.5294C164.274 53.8749 163.459 53.9666 162.579 53.8101L162.552 53.8479L162.633 59.7047L159.41 57.6211V57.6265ZM160.037 49.319L161.3 50.1341C161.888 50.5119 162.439 50.6739 162.952 50.6199C163.47 50.5659 163.88 50.296 164.188 49.8264C164.479 49.373 164.555 48.9033 164.414 48.4121C164.274 47.9209 163.912 47.4891 163.324 47.1058L162.012 46.2583L160.037 49.319Z" fill="white"/>
<path d="M166.914 63.0514C166.52 62.1824 166.315 61.3079 166.299 60.428C166.283 59.5481 166.455 58.6737 166.817 57.7938C167.179 56.9139 167.713 56.1042 168.426 55.3647C169.138 54.6252 169.926 54.0584 170.79 53.6643C171.654 53.2703 172.523 53.0652 173.403 53.0436C174.283 53.022 175.162 53.1947 176.048 53.5564C176.933 53.9181 177.748 54.4632 178.498 55.1812C179.232 55.8883 179.799 56.6764 180.193 57.5347C180.587 58.393 180.792 59.262 180.814 60.1419C180.836 61.0218 180.663 61.9017 180.307 62.7869C179.95 63.6722 179.405 64.4927 178.682 65.2484C177.959 65.9987 177.165 66.5709 176.291 66.9596C175.421 67.3536 174.547 67.5533 173.667 67.5695C172.787 67.5857 171.913 67.413 171.038 67.0513C170.164 66.6897 169.36 66.1553 168.625 65.4481C167.875 64.7248 167.303 63.9313 166.909 63.0568L166.914 63.0514ZM172.496 64.185C173.154 64.3253 173.807 64.2768 174.466 64.0501C175.119 63.8233 175.713 63.4347 176.242 62.8841C176.771 62.3335 177.138 61.7289 177.343 61.0596C177.548 60.3956 177.57 59.7371 177.408 59.0839C177.246 58.4308 176.911 57.864 176.404 57.3728C175.886 56.8761 175.297 56.5577 174.633 56.4227C173.969 56.2878 173.311 56.3309 172.658 56.5631C172.005 56.7898 171.411 57.1784 170.887 57.7236C170.369 58.2634 170.007 58.8626 169.802 59.5265C169.597 60.1905 169.575 60.8491 169.737 61.5076C169.899 62.1662 170.234 62.7437 170.752 63.2404C171.26 63.7316 171.843 64.0447 172.496 64.1796V64.185Z" fill="white"/>
<path d="M176.522 73.3778C176.317 72.4493 176.3 71.4723 176.484 70.4521L179.539 70.6518C179.383 71.3751 179.356 72.0553 179.464 72.6922C179.572 73.3292 179.771 73.8528 180.068 74.2738C180.279 74.5707 180.495 74.7866 180.716 74.9216C180.943 75.0565 181.148 75.1213 181.342 75.1051C181.531 75.0889 181.72 75.0188 181.893 74.8946C182.2 74.6787 182.357 74.3926 182.373 74.0309C182.389 73.6693 182.271 73.0863 182.022 72.2712C181.92 71.9311 181.839 71.6234 181.774 71.3481C181.709 71.0728 181.65 70.7652 181.601 70.4251C181.553 70.085 181.531 69.7773 181.531 69.502C181.531 69.2267 181.563 68.9298 181.623 68.6222C181.682 68.3145 181.774 68.0284 181.904 67.7693C182.033 67.5102 182.206 67.2511 182.427 66.992C182.648 66.7329 182.913 66.49 183.226 66.274C183.841 65.8368 184.522 65.6047 185.267 65.5723C186.011 65.5399 186.729 65.7073 187.42 66.0635C188.117 66.4252 188.705 66.938 189.196 67.6127C190.216 69.0108 190.654 70.6734 190.497 72.5897L187.453 72.4709C187.539 71.0567 187.356 70.0202 186.891 69.3671C186.67 69.054 186.416 68.8543 186.13 68.7841C185.844 68.7085 185.563 68.7679 185.283 68.9568C185.029 69.1296 184.899 69.3887 184.894 69.7395C184.889 70.0904 184.986 70.6734 185.191 71.4939C185.499 72.7084 185.671 73.5451 185.72 74.0093C185.822 74.981 185.661 75.7799 185.229 76.4168C184.975 76.7947 184.619 77.1402 184.171 77.4586C183.658 77.8203 183.129 78.0632 182.589 78.1928C182.049 78.3169 181.547 78.3385 181.078 78.2522C180.613 78.1658 180.155 78.0038 179.712 77.7717C179.269 77.5396 178.875 77.2643 178.535 76.9458C178.195 76.6328 177.893 76.2819 177.623 75.904C177.094 75.1537 176.722 74.3116 176.516 73.3832L176.522 73.3778Z" fill="white"/>
<path d="M197.747 82.6515L199.393 87.148C199.766 88.1628 199.944 89.1506 199.933 90.1115C199.922 91.0777 199.733 91.9522 199.377 92.7403C199.015 93.5284 198.492 94.2301 197.806 94.8401C197.121 95.4555 196.3 95.9359 195.345 96.2868C194.389 96.6376 193.461 96.805 192.549 96.7888C191.636 96.7726 190.794 96.5891 190.017 96.2382C189.24 95.8819 188.543 95.3421 187.917 94.6134C187.291 93.8847 186.789 93.0048 186.411 91.9684L184.743 87.4179L197.747 82.6461V82.6515ZM189.072 90.7808C189.234 91.2235 189.45 91.6121 189.715 91.9522C189.985 92.2923 190.287 92.573 190.622 92.7835C190.962 92.9994 191.323 93.1559 191.707 93.2585C192.09 93.3611 192.495 93.3989 192.921 93.3719C193.342 93.3449 193.763 93.2531 194.179 93.102C194.897 92.8375 195.485 92.4542 195.955 91.9414C196.424 91.4286 196.721 90.8456 196.851 90.1871C196.98 89.5285 196.926 88.8753 196.689 88.2168L196.117 86.6622L188.576 89.4259L189.072 90.7754V90.7808Z" fill="white"/>
<path d="M203.037 98.8778L204.554 107.801L201.682 108.292L200.7 102.527L198.082 102.975L198.859 107.531L196.031 108.011L195.253 103.455L192.776 103.876L193.828 110.046L190.962 110.532L189.375 101.21L203.037 98.8832V98.8778Z" fill="white"/>
<path d="M204.959 113.031L205.013 116.308L194.061 116.486L194.158 122.294L191.254 122.343L191.103 113.258L204.959 113.031Z" fill="white"/>
<path d="M203.68 134.029L202.438 139.147C202.244 139.956 201.952 140.642 201.569 141.203C201.186 141.765 200.738 142.191 200.23 142.466C199.723 142.742 199.162 142.914 198.557 142.968C197.952 143.022 197.31 142.968 196.635 142.807C195.653 142.569 194.876 142.159 194.298 141.57C193.72 140.987 193.364 140.28 193.218 139.454C193.078 138.628 193.127 137.705 193.38 136.68L193.807 134.92L189.467 133.867L190.223 130.747L203.68 134.019V134.029ZM196.263 136.939C196.096 137.63 196.123 138.202 196.338 138.655C196.56 139.109 196.943 139.406 197.499 139.541C198.023 139.67 198.492 139.589 198.908 139.303C199.323 139.017 199.615 138.531 199.782 137.84L200.117 136.464L196.587 135.606L196.263 136.939Z" fill="white"/>
<path d="M199.68 148.431L196.09 156.733L193.418 155.578L195.739 150.213L193.299 149.16L191.464 153.397L188.835 152.258L190.67 148.021L188.365 147.022L185.882 152.766L183.216 151.611L186.973 142.931L199.69 148.431H199.68Z" fill="white"/>
<path d="M178.023 159.923L183.313 160.004L183.939 159.049L180.209 156.598L181.974 153.916L193.553 161.527L190.59 166.039C190.131 166.736 189.629 167.286 189.078 167.691C188.528 168.096 187.961 168.344 187.389 168.436C186.811 168.528 186.228 168.501 185.64 168.35C185.051 168.204 184.463 167.934 183.88 167.551C183.022 166.984 182.422 166.325 182.082 165.57C181.742 164.814 181.656 163.999 181.823 163.119L181.786 163.092L175.929 163.124L178.034 159.918L178.023 159.923ZM186.325 160.62L185.499 161.878C185.116 162.461 184.949 163.011 185.003 163.529C185.057 164.048 185.316 164.458 185.791 164.771C186.244 165.068 186.714 165.149 187.205 165.014C187.696 164.879 188.134 164.517 188.517 163.934L189.375 162.628L186.331 160.625L186.325 160.62Z" fill="white"/>
<path d="M172.641 167.033C173.316 166.709 174.007 166.536 174.714 166.52C175.421 166.504 176.139 166.655 176.878 166.984C177.613 167.308 178.32 167.799 179.005 168.452L184.835 174.039L182.563 176.414L176.884 170.973C176.571 170.676 176.247 170.433 175.901 170.25C175.556 170.066 175.216 169.948 174.87 169.888C174.53 169.834 174.19 169.861 173.856 169.969C173.521 170.077 173.219 170.277 172.943 170.563C172.436 171.092 172.225 171.713 172.312 172.431C172.398 173.149 172.787 173.845 173.483 174.509L179.162 179.95L176.895 182.314L171.065 176.727C170.196 175.891 169.586 175.005 169.246 174.066C168.906 173.127 168.857 172.177 169.105 171.205C169.354 170.239 169.893 169.316 170.736 168.442C171.329 167.821 171.961 167.351 172.641 167.027V167.033Z" fill="white"/>
</g>
<g filter="url(#filter2_d_1548_174)">
<path d="M99.5362 193.213L97.1989 194.222L96.2812 191.583L101.053 189.672L103.52 190.26L100.416 203.291L97.3123 202.551L99.5362 193.213Z" fill="white"/>
<path d="M113.657 192.069C114.359 192.592 114.877 193.283 115.212 194.152C115.547 195.016 115.66 195.987 115.563 197.062C115.471 198.087 115.212 199.054 114.791 199.971C114.37 200.883 113.819 201.693 113.139 202.389C112.459 203.086 111.639 203.663 110.678 204.117C109.717 204.57 108.675 204.851 107.552 204.959L106.915 202.427C108.151 202.195 109.166 201.85 109.954 201.391C110.743 200.932 111.347 200.322 111.774 199.566C111.066 199.858 110.311 199.971 109.517 199.896C108.988 199.847 108.492 199.707 108.033 199.475C107.574 199.242 107.174 198.929 106.834 198.546C106.5 198.157 106.246 197.677 106.079 197.11C105.911 196.538 105.857 195.917 105.922 195.243C106.003 194.357 106.289 193.591 106.78 192.938C107.272 192.284 107.903 191.809 108.664 191.502C109.425 191.194 110.257 191.086 111.158 191.167C112.124 191.253 112.961 191.561 113.663 192.085L113.657 192.069ZM109.064 196.484C109.188 196.749 109.377 196.959 109.625 197.116C109.873 197.267 110.165 197.364 110.51 197.391C110.883 197.423 111.255 197.369 111.622 197.229C111.995 197.089 112.319 196.884 112.605 196.614L112.616 196.516C112.68 195.788 112.551 195.189 112.232 194.714C111.914 194.239 111.477 193.974 110.942 193.925C110.408 193.877 109.949 194.006 109.571 194.314C109.193 194.622 108.977 195.037 108.929 195.572C108.896 195.912 108.945 196.22 109.069 196.484H109.064Z" fill="white"/>
<path d="M125.879 196.333C126.375 196.489 126.818 196.732 127.217 197.056C127.617 197.38 127.941 197.812 128.2 198.352C128.459 198.892 128.61 199.496 128.653 200.176C128.713 201.062 128.556 201.86 128.178 202.573C127.8 203.286 127.255 203.852 126.543 204.273C125.83 204.694 124.999 204.932 124.065 204.997C123.369 205.045 122.716 204.959 122.1 204.738C121.485 204.516 120.95 204.187 120.497 203.75C120.044 203.313 119.666 202.762 119.38 202.093C119.094 201.429 118.921 200.694 118.861 199.89C118.802 199.075 118.856 198.276 119.013 197.493C119.169 196.711 119.423 195.971 119.784 195.275C120.141 194.579 120.589 193.936 121.123 193.353C121.658 192.77 122.295 192.263 123.029 191.826C123.763 191.388 124.572 191.054 125.447 190.822L126.483 193.224C125.334 193.639 124.416 194.131 123.725 194.692C123.034 195.253 122.532 195.928 122.224 196.705L122.295 196.759C122.931 196.403 123.612 196.198 124.34 196.149C124.875 196.112 125.388 196.171 125.879 196.328V196.333ZM125.226 201.618C125.539 201.245 125.674 200.802 125.641 200.29C125.62 199.95 125.523 199.653 125.355 199.399C125.188 199.145 124.961 198.956 124.664 198.827C124.373 198.697 124.038 198.643 123.666 198.67C123.326 198.692 122.985 198.805 122.656 199.005C122.327 199.205 122.052 199.469 121.825 199.788L121.836 199.96C121.884 200.689 122.111 201.256 122.51 201.672C122.91 202.087 123.401 202.271 123.973 202.228C124.492 202.19 124.907 201.99 125.22 201.618H125.226Z" fill="white"/>
<path d="M140.955 199.124L141.586 201.909L132.901 203.874L132.41 201.887L135.335 196.851C135.756 196.133 136.053 195.523 136.215 195.037C136.377 194.552 136.41 194.087 136.312 193.656C136.221 193.245 136.016 192.938 135.697 192.732C135.379 192.527 135.022 192.468 134.618 192.554C133.829 192.733 133.252 193.288 132.885 194.222L130.337 193.137C130.461 192.738 130.628 192.365 130.834 192.015C131.039 191.664 131.298 191.334 131.611 191.021C131.919 190.708 132.302 190.433 132.75 190.195C133.198 189.963 133.694 189.78 134.24 189.661C134.553 189.591 134.871 189.548 135.195 189.537C135.514 189.526 135.827 189.548 136.134 189.596C136.437 189.645 136.734 189.726 137.014 189.839C137.295 189.947 137.565 190.088 137.813 190.266C138.061 190.444 138.288 190.638 138.488 190.865C138.688 191.092 138.86 191.351 139.011 191.648C139.163 191.944 139.271 192.263 139.352 192.603C139.47 193.127 139.519 193.612 139.503 194.055C139.486 194.498 139.379 195 139.173 195.566C138.974 196.128 138.655 196.776 138.218 197.499L136.663 200.079V200.106L140.96 199.135L140.955 199.124Z" fill="white"/>
</g>
<g filter="url(#filter3_d_1548_174)">
<path d="M157.419 191.21C159.837 191.21 161.797 189.25 161.797 186.832C161.797 184.415 159.837 182.455 157.419 182.455C155.001 182.455 153.041 184.415 153.041 186.832C153.041 189.25 155.001 191.21 157.419 191.21Z" fill="white"/>
<path d="M78.576 191.21C80.9938 191.21 82.9538 189.25 82.9538 186.832C82.9538 184.415 80.9938 182.455 78.576 182.455C76.1582 182.455 74.1982 184.415 74.1982 186.832C74.1982 189.25 76.1582 191.21 78.576 191.21Z" fill="white"/>
</g>
<g filter="url(#filter4_d_1548_174)">
<path d="M141.403 124.664H125.436V93.7819L141.403 124.664Z" fill="white"/>
<path d="M141.846 124.934H125.166V92.6753L141.846 124.934ZM125.706 124.394H140.96L125.706 94.8939V124.394Z" fill="white"/>
<path d="M118.003 61.1943V144.447H165.354L118.003 61.1943ZM127.644 140.129H120.464V73.3506L153.603 132.048H127.644V140.134V140.129Z" fill="white"/>
<path d="M70.6572 144.447H118.008V61.1943L70.6572 144.447ZM107.056 109.598L93.8523 132.944H106.959V140.124H78.6408C78.6408 140.124 106.807 91.9682 107.061 91.9682V109.593L107.056 109.598ZM117.301 140.129H110.17V85.1452L117.301 73.0429V140.124V140.129Z" fill="white"/>
</g>
<g filter="url(#filter5_d_1548_174)">
<path d="M141.403 124.664H125.436V93.7819L141.403 124.664Z" fill="white"/>
<path d="M141.846 124.934H125.166V92.6753L141.846 124.934ZM125.706 124.394H140.96L125.706 94.8939V124.394Z" fill="white"/>
<path d="M141.403 124.664H125.436V93.7819L141.403 124.664Z" fill="white"/>
</g>
<defs>
<filter id="filter0_d_1548_174" x="0" y="0" width="235.994" height="236" filterUnits="userSpaceOnUse" color-interpolation-filters="sRGB">
<feFlood flood-opacity="0" result="BackgroundImageFix"/>
<feColorMatrix in="SourceAlpha" type="matrix" values="0 0 0 0 0 0 0 0 0 0 0 0 0 0 0 0 0 0 127 0" result="hardAlpha"/>
<feOffset/>
<feGaussianBlur stdDeviation="5"/>
<feComposite in2="hardAlpha" operator="out"/>
<feColorMatrix type="matrix" values="0 0 0 0 1 0 0 0 0 1 0 0 0 0 1 0 0 0 0.5 0"/>
<feBlend mode="normal" in2="BackgroundImageFix" result="effect1_dropShadow_1548_174"/>
<feBlend mode="normal" in="SourceGraphic" in2="effect1_dropShadow_1548_174" result="shape"/>
</filter>
<filter id="filter1_d_1548_174" x="20.7959" y="20.8579" width="194.217" height="171.456" filterUnits="userSpaceOnUse" color-interpolation-filters="sRGB">
<feFlood flood-opacity="0" result="BackgroundImageFix"/>
<feColorMatrix in="SourceAlpha" type="matrix" values="0 0 0 0 0 0 0 0 0 0 0 0 0 0 0 0 0 0 127 0" result="hardAlpha"/>
<feOffset/>
<feGaussianBlur stdDeviation="5"/>
<feComposite in2="hardAlpha" operator="out"/>
<feColorMatrix type="matrix" values="0 0 0 0 1 0 0 0 0 1 0 0 0 0 1 0 0 0 0.5 0"/>
<feBlend mode="normal" in2="BackgroundImageFix" result="effect1_dropShadow_1548_174"/>
<feBlend mode="normal" in="SourceGraphic" in2="effect1_dropShadow_1548_174" result="shape"/>
</filter>
<filter id="filter2_d_1548_174" x="86.2812" y="179.534" width="65.3047" height="35.4756" filterUnits="userSpaceOnUse" color-interpolation-filters="sRGB">
<feFlood flood-opacity="0" result="BackgroundImageFix"/>
<feColorMatrix in="SourceAlpha" type="matrix" values="0 0 0 0 0 0 0 0 0 0 0 0 0 0 0 0 0 0 127 0" result="hardAlpha"/>
<feOffset/>
<feGaussianBlur stdDeviation="5"/>
<feComposite in2="hardAlpha" operator="out"/>
<feColorMatrix type="matrix" values="0 0 0 0 1 0 0 0 0 1 0 0 0 0 1 0 0 0 0.5 0"/>
<feBlend mode="normal" in2="BackgroundImageFix" result="effect1_dropShadow_1548_174"/>
<feBlend mode="normal" in="SourceGraphic" in2="effect1_dropShadow_1548_174" result="shape"/>
</filter>
<filter id="filter3_d_1548_174" x="64.1982" y="172.455" width="107.599" height="28.7555" filterUnits="userSpaceOnUse" color-interpolation-filters="sRGB">
<feFlood flood-opacity="0" result="BackgroundImageFix"/>
<feColorMatrix in="SourceAlpha" type="matrix" values="0 0 0 0 0 0 0 0 0 0 0 0 0 0 0 0 0 0 127 0" result="hardAlpha"/>
<feOffset/>
<feGaussianBlur stdDeviation="5"/>
<feComposite in2="hardAlpha" operator="out"/>
<feColorMatrix type="matrix" values="0 0 0 0 1 0 0 0 0 1 0 0 0 0 1 0 0 0 0.5 0"/>
<feBlend mode="normal" in2="BackgroundImageFix" result="effect1_dropShadow_1548_174"/>
<feBlend mode="normal" in="SourceGraphic" in2="effect1_dropShadow_1548_174" result="shape"/>
</filter>
<filter id="filter4_d_1548_174" x="60.6572" y="51.1943" width="114.696" height="103.253" filterUnits="userSpaceOnUse" color-interpolation-filters="sRGB">
<feFlood flood-opacity="0" result="BackgroundImageFix"/>
<feColorMatrix in="SourceAlpha" type="matrix" values="0 0 0 0 0 0 0 0 0 0 0 0 0 0 0 0 0 0 127 0" result="hardAlpha"/>
<feOffset/>
<feGaussianBlur stdDeviation="5"/>
<feComposite in2="hardAlpha" operator="out"/>
<feColorMatrix type="matrix" values="0 0 0 0 1 0 0 0 0 1 0 0 0 0 1 0 0 0 0.35 0"/>
<feBlend mode="normal" in2="BackgroundImageFix" result="effect1_dropShadow_1548_174"/>
<feBlend mode="normal" in="SourceGraphic" in2="effect1_dropShadow_1548_174" result="shape"/>
</filter>
<filter id="filter5_d_1548_174" x="115.166" y="82.6753" width="36.6797" height="52.2583" filterUnits="userSpaceOnUse" color-interpolation-filters="sRGB">
<feFlood flood-opacity="0" result="BackgroundImageFix"/>
<feColorMatrix in="SourceAlpha" type="matrix" values="0 0 0 0 0 0 0 0 0 0 0 0 0 0 0 0 0 0 127 0" result="hardAlpha"/>
<feOffset/>
<feGaussianBlur stdDeviation="5"/>
<feComposite in2="hardAlpha" operator="out"/>
<feColorMatrix type="matrix" values="0 0 0 0 1 0 0 0 0 1 0 0 0 0 1 0 0 0 0.35 0"/>
<feBlend mode="normal" in2="BackgroundImageFix" result="effect1_dropShadow_1548_174"/>
<feBlend mode="normal" in="SourceGraphic" in2="effect1_dropShadow_1548_174" result="shape"/>
</filter>
</defs>
</svg>
