<svg version="1.2" xmlns="http://www.w3.org/2000/svg" viewBox="0 0 250 186" width="250" height="186">
	<title>acreditacion-cdd-white2-svg</title>
	<defs>
		<filter x="-50%" y="-50%" width="200%" height="200%" id="f1" ><feDropShadow dx="0" dy="0" stdDeviation="3.75" flood-color="#ffffff" flood-opacity=".9"/></filter>
	</defs>
	<style>
		.s0 { filter: url(#f1);fill: #ffffff } 
	</style>
	<g>
		<path fill-rule="evenodd" class="s0" d="m109.8 47.1c-8.3-8.3-8.3-21.8 0-30.1 8.3-8.3 21.8-8.3 30.1 0 8.3 8.3 8.3 21.8 0 30.1-8.3 8.3-21.8 8.3-30.1 0zm15 127.3c-19.8-22.9-58.5-35.5-114.8-38.3l38.9-64.6c0 0 7.2 1.9 17.1 7.1l-15.1-2.5-26.4 53.2c53.7 4.4 89.5 15.9 100.3 37.3l0.1 0.1v-0.1c10.9-21.4 46.6-32.9 100.3-37.3l-26.4-53.2-15 2.5c9.9-5.2 17-7.1 17-7.1l38.9 64.6c-56.3 2.8-95 15.4-114.8 38.3zm-11.2 1.2c-41.5-22.4-90.5-24-90.5-24l3.6-7.4c63.4 6.2 86.9 31.4 86.9 31.4zm109.5-31.4l3.7 7.4c0 0-49.1 1.6-90.6 24 0 0 23.6-25.2 86.9-31.4zm-117.4-57.9c-15.7-24.3-44-61-44-61 0 0 44.2 39.9 61.6 40h3.1c17.4-0.1 61.6-40 61.6-40 0 0-25.9 33.6-41.9 57.8-4.8-4-11.6-6.4-18.5-6.4-9.3 0-16.4 3.6-21.9 9.6zm-9.1 30.7l6.9 3.3c-2.6 4.4-7.4 9.2-16.3 9.2-12.1 0-20.9-8.2-20.9-20 0-11.8 8.6-20 20.9-20 9 0 13.8 4.7 16.3 9.1l-6.9 3.3c-1.9-3.3-5.6-5.5-9.4-5.5-7.3 0-12.6 5.6-12.6 13.1 0 7.5 5.4 13.1 12.6 13.1 3.8 0 7.5-2.2 9.4-5.6zm88.3-7.5c0 11.4-8 18.9-20.4 18.9h-15.7v-37.8h15.6c12.5 0 20.5 7.4 20.5 18.9zm-8.1 0c0-7.5-4.8-12.3-12.3-12.3h-7.8v24.6h7.7c7.2 0 12.4-4.9 12.4-12.3zm-40 7.6l6.8 3.2c-2.6 4.4-7.4 9.2-16.2 9.2-12.2 0-21-8.4-21-20 0-4.3 1.2-8.4 3.5-11.6 3.8-5.4 10.1-8.4 17.5-8.4 5 0 9.3 1.5 12.6 4.5q2.1 2 3.6 4.6l-6.8 3.3q-0.1-0.2-0.3-0.4c-2-3.1-5.5-5.1-9.1-5.1-7.4 0-12.7 5.5-12.7 13.1 0 7.5 5.5 13.1 12.7 13.1 3.8 0 7.5-2.2 9.4-5.5z"/>
	</g>
</svg>