<svg width="52" height="39" viewBox="0 0 52 39" fill="none" xmlns="http://www.w3.org/2000/svg">
<path d="M51.6119 17.7255C49.7096 13.5655 42.2497 0 25.9997 0C9.74972 0 2.28989 13.5655 0.387554 17.7255C0.132187 18.283 0 18.889 0 19.5022C0 20.1154 0.132187 20.7213 0.387554 21.2788C2.28989 25.4345 9.74972 39 25.9997 39C42.2497 39 49.7096 25.4345 51.6119 21.2745C51.8667 20.7176 51.9987 20.1124 51.9987 19.5C51.9987 18.8876 51.8667 18.2824 51.6119 17.7255ZM25.9997 32.5C23.4286 32.5 20.9151 31.7376 18.7773 30.3091C16.6395 28.8806 14.9732 26.8503 13.9893 24.4749C13.0053 22.0994 12.7479 19.4856 13.2495 16.9638C13.7511 14.4421 14.9893 12.1257 16.8073 10.3076C18.6254 8.48953 20.9418 7.2514 23.4635 6.74979C25.9853 6.24818 28.5992 6.50563 30.9746 7.48957C33.35 8.47351 35.3804 10.1397 36.8088 12.2776C38.2373 14.4154 38.9997 16.9288 38.9997 19.5C38.9963 22.9468 37.6255 26.2514 35.1883 28.6886C32.7511 31.1258 29.4465 32.4966 25.9997 32.5Z" fill="white"/>
<path d="M25.9997 28.1668C30.7861 28.1668 34.6663 24.2866 34.6663 19.5002C34.6663 14.7137 30.7861 10.8335 25.9997 10.8335C21.2132 10.8335 17.333 14.7137 17.333 19.5002C17.333 24.2866 21.2132 28.1668 25.9997 28.1668Z" fill="white"/>
</svg>
