<svg width="45" height="45" viewBox="0 0 45 45" fill="none" xmlns="http://www.w3.org/2000/svg">
<path d="M31.875 10.4813V5.625L37.5 0V7.5H45L39.375 13.125H34.5187L26.1 21.5437C26.175 21.8438 26.2312 22.1625 26.2312 22.5C26.2312 24.5625 24.5437 26.25 22.4812 26.25C20.4187 26.25 18.7312 24.5625 18.7312 22.5C18.7312 20.4375 20.4187 18.75 22.4812 18.75C22.8188 18.75 23.1375 18.8062 23.4375 18.8812L31.8562 10.4625L31.875 10.4813ZM40.9313 16.875H38.4188C39.0187 18.6187 39.375 20.475 39.375 22.425C38.5312 44.85 6.46875 44.85 5.625 22.425C5.625 13.0875 13.2 5.49375 22.5 5.49375C24.4688 5.49375 26.3625 5.85 28.125 6.4875V4.06875L30.7312 1.4625C17.8125 -3.31875 0.7125 3.65625 0 22.425C0 34.875 10.0875 45 22.5 45C34.9125 45 45 34.875 45 22.425C44.8875 19.425 44.3438 16.725 43.4625 14.325L40.9313 16.8562V16.875ZM22.1063 14.9437L27 10.05C25.6687 9.58125 24.1688 9.3 22.5 9.2625C5.15625 9.80625 5.15625 35.0438 22.5 35.6063C33.1312 35.2687 37.2375 25.65 34.8375 18.1313L29.8688 23.1C29.5875 26.5688 27.15 29.8312 22.5 29.9625C12.4313 29.7375 11.55 15.675 22.0875 14.9625L22.1063 14.9437Z" fill="white"/>
</svg>
