<svg width="26" height="24" viewBox="0 0 26 24" fill="none" xmlns="http://www.w3.org/2000/svg">
<path d="M21.6667 0L4.33333 0C3.18406 0 2.08186 0.421427 1.2692 1.17157C0.456546 1.92172 0 2.93913 0 4L0 16C0 17.0609 0.456546 18.0783 1.2692 18.8284C2.08186 19.5786 3.18406 20 4.33333 20H7.475L12.2969 23.763C12.4925 23.9158 12.7405 23.9997 12.9967 23.9997C13.253 23.9997 13.501 23.9158 13.6966 23.763L18.525 20H21.6667C22.8159 20 23.9181 19.5786 24.7308 18.8284C25.5435 18.0783 26 17.0609 26 16L26 4C26 2.93913 25.5435 1.92172 24.7308 1.17157C23.9181 0.421427 22.8159 0 21.6667 0ZM7.58333 5L13 5C13.2873 5 13.5629 5.10536 13.766 5.29289C13.9692 5.48043 14.0833 5.73478 14.0833 6C14.0833 6.26522 13.9692 6.51957 13.766 6.70711C13.5629 6.89464 13.2873 7 13 7L7.58333 7C7.29602 7 7.02047 6.89464 6.8173 6.70711C6.61414 6.51957 6.5 6.26522 6.5 6C6.5 5.73478 6.61414 5.48043 6.8173 5.29289C7.02047 5.10536 7.29602 5 7.58333 5ZM18.4167 15L7.58333 15C7.29602 15 7.02047 14.8946 6.8173 14.7071C6.61414 14.5196 6.5 14.2652 6.5 14C6.5 13.7348 6.61414 13.4804 6.8173 13.2929C7.02047 13.1054 7.29602 13 7.58333 13L18.4167 13C18.704 13 18.9795 13.1054 19.1827 13.2929C19.3859 13.4804 19.5 13.7348 19.5 14C19.5 14.2652 19.3859 14.5196 19.1827 14.7071C18.9795 14.8946 18.704 15 18.4167 15ZM18.4167 11L7.58333 11C7.29602 11 7.02047 10.8946 6.8173 10.7071C6.61414 10.5196 6.5 10.2652 6.5 10C6.5 9.73478 6.61414 9.48043 6.8173 9.29289C7.02047 9.10536 7.29602 9 7.58333 9L18.4167 9C18.704 9 18.9795 9.10536 19.1827 9.29289C19.3859 9.48043 19.5 9.73478 19.5 10C19.5 10.2652 19.3859 10.5196 19.1827 10.7071C18.9795 10.8946 18.704 11 18.4167 11Z" fill="#162E54"/>
</svg>
