<svg width="26" height="22" viewBox="0 0 26 22" fill="none" xmlns="http://www.w3.org/2000/svg">
<path d="M2.49549 7.0825C2.82438 7.31459 3.8158 8.00389 5.46978 9.15004C7.12382 10.2962 8.39093 11.1787 9.27115 11.7976C9.36786 11.8655 9.57332 12.0129 9.88763 12.2403C10.202 12.4677 10.4632 12.6515 10.671 12.7917C10.879 12.9319 11.1305 13.0891 11.4256 13.2632C11.7207 13.4371 11.9988 13.5679 12.26 13.6545C12.5212 13.7418 12.763 13.785 12.9854 13.785H13H13.0146C13.2371 13.785 13.479 13.7417 13.7402 13.6545C14.0012 13.5679 14.2796 13.4369 14.5744 13.2632C14.8694 13.0889 15.1208 12.9318 15.3288 12.7917C15.5368 12.6515 15.7978 12.4677 16.1123 12.2403C16.4265 12.0127 16.6322 11.8655 16.729 11.7976C17.6187 11.1787 19.8823 9.60685 23.519 7.08219C24.2251 6.5891 24.815 5.99412 25.2889 5.29765C25.7631 4.60149 26 3.87118 26 3.10713C26 2.46865 25.7701 1.9221 25.3106 1.46753C24.8512 1.01285 24.307 0.785645 23.6785 0.785645H2.32133C1.57659 0.785645 1.00346 1.03709 0.602045 1.53999C0.200682 2.04299 0 2.67172 0 3.42612C0 4.03548 0.266085 4.69581 0.798001 5.40671C1.32987 6.11766 1.89588 6.67631 2.49549 7.0825Z" fill="#162E54"/>
<path d="M24.5489 8.63479C21.3766 10.7819 18.9679 12.4506 17.3237 13.6404C16.7724 14.0465 16.3251 14.3635 15.9817 14.5907C15.6382 14.818 15.1814 15.0501 14.6106 15.287C14.04 15.5242 13.5082 15.6425 13.0148 15.6425H13.0001H12.9855C12.4922 15.6425 11.9601 15.5242 11.3895 15.287C10.8189 15.0501 10.3618 14.818 10.0184 14.5907C9.67516 14.3635 9.22775 14.0465 8.67647 13.6404C7.37059 12.6829 4.96699 11.0142 1.46555 8.63479C0.91407 8.26747 0.425604 7.84644 0 7.37256V18.8923C0 19.5311 0.227209 20.0774 0.681881 20.532C1.13645 20.9867 1.68305 21.2141 2.32148 21.2141H23.6787C24.317 21.2141 24.8636 20.9867 25.3182 20.532C25.7729 20.0772 26.0001 19.5312 26.0001 18.8923V7.37256C25.5841 7.83663 25.1006 8.25766 24.5489 8.63479Z" fill="#162E54"/>
</svg>
